<?xml version="1.0" standalone="no"?>
<!DOCTYPE svg PUBLIC "-//W3C//DTD SVG 1.1//EN" "http://www.w3.org/Graphics/SVG/1.1/DTD/svg11.dtd" >
<svg xmlns="http://www.w3.org/2000/svg" xmlns:xlink="http://www.w3.org/1999/xlink" version="1.1">
<metadata>
Created by FontForge 20141024 at Thu Apr 16 22:54:10 2015
 By System Administrator
Part of the Neutraface 2 collection from House Industries
</metadata>
<defs>
<font id="Neutraface2Display-Inline" horiz-adv-x="782" >
  <font-face 
    font-family="Neutraface 2 Display Inline"
    font-weight="1000"
    font-stretch="normal"
    units-per-em="1000"
    panose-1="2 0 6 0 4 0 0 2 0 4"
    ascent="780"
    descent="-220"
    x-height="680"
    cap-height="680"
    bbox="-45 -267 1152 944"
    underline-thickness="20"
    underline-position="-113"
    stemh="155"
    stemv="185"
    unicode-range="U+0020-FB02"
  />
<missing-glyph horiz-adv-x="500" 
 />
    <glyph glyph-name=".notdef" horiz-adv-x="500" 
 />
    <glyph glyph-name="space" unicode=" " horiz-adv-x="242" 
 />
    <glyph glyph-name="exclam" unicode="!" horiz-adv-x="302" 
d="M225 220h-65v460h85zM77 220l-20 460h85v-460h-65zM151 -7c-48 0 -91 36 -91 89s43 89 91 89c47 0 91 -36 91 -89s-44 -89 -91 -89zM138 82c0 -7 6 -13 13 -13s13 6 13 13s-6 13 -13 13s-13 -6 -13 -13z" />
    <glyph glyph-name="quotedbl" unicode="&#x22;" horiz-adv-x="438" 
d="M183 443h-61v237h80zM43 443l-19 237h80v-237h-61zM395 443h-61v237h80zM255 443l-19 237h80v-237h-61z" />
    <glyph glyph-name="numbersign" unicode="#" horiz-adv-x="512" 
d="M54 475v88h97l27 117h98l-27 -117h72l27 117h98l-27 -117h61v-88h-81l-18 -77h77v-88h-97l-26 -117h-98l26 117h-72l-26 -117h-98l26 117h-61v88h81l18 77h-77zM229 475l-18 -77h72l18 77h-72z" />
    <glyph glyph-name="dollar" unicode="$" horiz-adv-x="591" 
d="M261 -9c-125 8 -207 71 -249 130l58 44c40 -55 113 -110 220 -110c125 0 196 49 196 135c0 69 -39 115 -142 150l-98 33c-69 24 -108 55 -108 119c0 78 73 114 153 114c87 0 135 -36 167 -74l-45 -45c-19 21 -40 42 -79 50v-119l33 -11c150 -52 196 -118 196 -220
c0 -113 -85 -184 -229 -195v-108h-73v107zM290 73c-100 0 -168 51 -206 102l57 43c28 -39 66 -70 120 -78v133l-46 15c-104 35 -170 93 -170 202c0 128 110 189 216 197v86h73v-88c92 -11 149 -52 181 -94l-44 -45c-34 40 -87 78 -180 78c-90 0 -171 -42 -171 -132
c0 -73 45 -111 122 -137l98 -33c98 -33 128 -71 128 -132c0 -74 -65 -117 -178 -117zM334 248v-107c38 7 57 24 57 52c0 26 -16 40 -57 55zM261 538c-32 -6 -48 -21 -48 -45c0 -25 14 -36 48 -49v94z" />
    <glyph glyph-name="percent" unicode="%" horiz-adv-x="806" 
d="M200 414c63 0 112 47 112 109c0 63 -49 109 -112 109s-113 -46 -113 -109c0 -62 50 -109 113 -109zM200 432c-53 0 -95 39 -95 91c0 53 42 91 95 91s94 -38 94 -91c0 -52 -41 -91 -94 -91zM200 356c-97 0 -176 73 -176 167c0 95 79 166 176 166s175 -71 175 -166
c0 -94 -78 -167 -175 -167zM200 489c18 0 31 13 31 34c0 20 -13 33 -31 33c-19 0 -32 -13 -32 -33c0 -21 13 -34 32 -34zM272 0h-74l429 680h74zM106 0l429 680h73l-429 -680h-73zM607 49c63 0 112 47 112 109c0 63 -49 109 -112 109s-113 -46 -113 -109
c0 -62 50 -109 113 -109zM607 67c-53 0 -95 39 -95 91c0 53 42 91 95 91s94 -38 94 -91c0 -52 -41 -91 -94 -91zM607 -9c-97 0 -176 73 -176 167c0 95 79 166 176 166s175 -71 175 -166c0 -94 -78 -167 -175 -167zM607 124c18 0 31 13 31 34c0 20 -13 33 -31 33
c-19 0 -32 -13 -32 -33c0 -21 13 -34 32 -34z" />
    <glyph glyph-name="ampersand" unicode="&#x26;" horiz-adv-x="689" 
d="M394 364l79 -100c12 26 20 56 22 91h72c-5 -89 -43 -161 -95 -207l-176 224c102 44 149 81 149 152c0 63 -46 108 -116 108c-71 0 -126 -43 -126 -111c0 -39 16 -80 52 -126l14 -18c-112 -47 -167 -89 -167 -178c0 -90 74 -145 185 -145c66 0 128 25 181 69l98 -123h-94
l-25 31c-48 -26 -105 -41 -167 -41c-151 0 -262 75 -262 200c0 101 56 152 151 198c-28 46 -42 95 -42 134c0 101 83 166 199 166c115 0 191 -59 191 -154c0 -76 -39 -124 -123 -170zM287 72c-101 0 -167 49 -167 127c0 81 52 121 159 165l178 -227
c-51 -42 -109 -65 -170 -65zM221 521c0 56 46 93 108 93c61 0 98 -38 98 -90c0 -62 -44 -96 -141 -139l-17 22c-31 42 -48 81 -48 114zM483 134c55 49 97 127 102 221h72c-3 -85 -31 -160 -80 -221l106 -134h-94zM356 147l-111 140c-30 -23 -41 -47 -41 -79
c0 -44 28 -73 89 -73c21 0 42 4 63 12zM319 461c25 16 38 33 38 55s-10 34 -29 34c-21 0 -33 -11 -33 -32c0 -20 7 -35 24 -57z" />
    <glyph glyph-name="quoteright" unicode="&#x2019;" horiz-adv-x="254" 
d="M51 414l33 108c-28 11 -48 43 -48 80c0 52 42 86 89 86c50 0 93 -34 93 -86c0 -32 -14 -60 -35 -94l-58 -94h-74zM113 599c0 -8 7 -14 14 -14s14 6 14 14s-7 14 -14 14s-14 -6 -14 -14z" />
    <glyph glyph-name="parenleft" unicode="(" horiz-adv-x="351" 
d="M229 -62c-85 70 -193 198 -193 403c0 204 108 333 193 403l45 -36c-79 -81 -155 -190 -155 -367s77 -288 156 -369zM137 341c0 172 75 280 151 357l46 -36c-71 -89 -115 -174 -115 -321s47 -235 118 -324l-48 -35c-77 78 -152 186 -152 359z" />
    <glyph glyph-name="parenright" unicode=")" horiz-adv-x="351" 
d="M122 -62l-46 34c79 81 156 192 156 369s-76 286 -155 367l45 36c85 -70 193 -199 193 -403c0 -205 -108 -333 -193 -403zM214 341c0 -173 -75 -281 -152 -359l-48 35c71 89 118 177 118 324s-44 232 -115 321l46 36c76 -77 151 -185 151 -357z" />
    <glyph glyph-name="asterisk" unicode="*" horiz-adv-x="403" 
d="M393 490l-35 -59l-137 77l138 78l35 -58l-81 -20zM259 602l57 59l34 -59l-136 -80l1 158h68zM129 680h68l1 -158l-136 80l35 59l54 -58zM100 508l-81 20l34 58l138 -78l-137 -77l-34 59zM283 338h-68l-1 157l135 -79l-34 -59l-56 57zM98 357l-35 58l135 79l-1 -156h-68
l23 75z" />
    <glyph glyph-name="plus" unicode="+" horiz-adv-x="423" 
d="M396 403v-66h-176v183h70v-117h106zM290 254v-117h-70v182h176v-65h-106zM133 403v117h69v-183h-175v66h106zM133 254h-106v65h175v-182h-69v117z" />
    <glyph glyph-name="comma" unicode="," horiz-adv-x="254" 
d="M51 -103l33 108c-28 11 -48 43 -48 80c0 52 42 86 89 86c50 0 93 -34 93 -86c0 -32 -14 -60 -35 -94l-58 -94h-74zM113 82c0 -8 7 -14 14 -14s14 6 14 14s-7 14 -14 14s-14 -6 -14 -14z" />
    <glyph glyph-name="hyphen" unicode="-" horiz-adv-x="316" 
d="M280 359v-64h-244v64h244zM36 214v63h244v-63h-244z" />
    <glyph glyph-name="period" unicode="." horiz-adv-x="254" 
d="M127 -7c-48 0 -91 36 -91 89s43 89 91 89c47 0 91 -36 91 -89s-44 -89 -91 -89zM113 82c0 -8 7 -14 14 -14s14 6 14 14s-7 14 -14 14s-14 -6 -14 -14z" />
    <glyph glyph-name="slash" unicode="/" horiz-adv-x="491" 
d="M185 0h-74l287 680h74zM19 0l287 680h73l-287 -680h-73z" />
    <glyph glyph-name="zero" unicode="0" horiz-adv-x="688" 
d="M344 61c133 0 232 100 232 280c0 179 -99 277 -232 277c-132 0 -232 -98 -232 -277c0 -180 100 -280 232 -280zM344 79c-122 0 -214 94 -214 262c0 167 92 259 214 259c123 0 214 -92 214 -259c0 -168 -91 -262 -214 -262zM344 -9c-174 0 -316 122 -316 350
s142 347 316 347s316 -119 316 -347s-142 -350 -316 -350zM344 149c81 0 130 72 130 191s-49 190 -130 190s-130 -71 -130 -190s49 -191 130 -191z" />
    <glyph glyph-name="one" unicode="1" horiz-adv-x="367" 
d="M218 613h-197v67h279v-680h-82v613zM118 0v527h-97v68h179v-595h-82z" />
    <glyph glyph-name="two" unicode="2" horiz-adv-x="579" 
d="M12 0c-9 0 -11 6 -3 14l294 314c37 41 69 80 69 129c0 44 -31 76 -81 76c-51 0 -93 -40 -103 -105l-73 21c21 98 87 153 179 153s158 -54 158 -137c0 -64 -37 -116 -88 -170l-215 -229h396v-66h-533zM294 620c-100 0 -173 -60 -197 -166l-72 22c31 134 129 212 271 212
c145 0 253 -83 253 -216c0 -86 -45 -152 -111 -222l-95 -101h202v-65h-355l188 199c53 56 92 110 92 182c0 93 -74 155 -176 155z" />
    <glyph glyph-name="three" unicode="3" horiz-adv-x="605" 
d="M296 -10c-142 0 -242 71 -286 159l67 34c35 -68 107 -125 213 -125c127 0 206 71 206 177c0 130 -113 168 -190 165l155 213h-388v67h501c5 0 7 -3 3 -8l-168 -228c89 -17 170 -82 170 -213c0 -143 -110 -241 -283 -241zM290 76c-99 0 -166 53 -198 115l67 35
c21 -45 58 -82 125 -82c69 0 111 36 111 95c0 60 -42 91 -119 91c-43 0 -76 -5 -101 -13c-9 -3 -17 1 -10 11l139 199h-231v68h354l-152 -211c104 8 203 -28 203 -149c0 -96 -73 -159 -188 -159z" />
    <glyph glyph-name="four" unicode="4" horiz-adv-x="653" 
d="M446 647v-448h-363zM59 198v-17h387v-181h-78v118h-362v118l354 444h88zM620 262v-63h-156v481h78v-418h78zM542 118v-118h-78v181h156v-63h-78zM368 262v188l-149 -188h149z" />
    <glyph glyph-name="five" unicode="5" horiz-adv-x="593" 
d="M282 -10c-135 0 -229 62 -272 146l65 36c36 -65 102 -113 204 -113c122 0 204 66 204 175c0 106 -74 171 -206 171c-49 0 -90 -9 -120 -20v210h344v-68h-279v-72c13 5 39 10 77 10c175 0 268 -97 268 -231c0 -148 -113 -244 -285 -244zM279 77c-94 0 -156 44 -188 104
l65 36c17 -31 57 -72 120 -72c61 0 105 30 105 88c0 67 -49 94 -126 94c-73 0 -133 -28 -167 -50c-11 -7 -15 -4 -15 5v398h428v-67h-362v-255c37 19 84 30 138 30c120 0 188 -60 188 -154c0 -97 -74 -157 -186 -157z" />
    <glyph glyph-name="six" unicode="6" horiz-adv-x="612" 
d="M461 680l-144 -205c171 14 271 -107 271 -233c0 -143 -120 -252 -283 -252c-160 0 -279 109 -279 248c0 81 18 130 91 235l145 207h90l-171 -244c-43 -62 -76 -128 -76 -196c0 -101 83 -185 200 -185c119 0 202 84 202 187c0 96 -69 182 -200 182
c-71 0 -126 -30 -157 -67c12 23 31 49 45 69l177 254h89zM305 73c-107 0 -182 76 -182 167c0 62 39 166 184 166c119 0 182 -78 182 -164c0 -93 -75 -169 -184 -169zM304 138c65 0 103 48 103 102c0 55 -37 102 -103 102c-64 0 -103 -45 -103 -102c0 -54 39 -102 103 -102z
" />
    <glyph glyph-name="seven" unicode="7" horiz-adv-x="586" 
d="M467 613h-442v67h550c5 0 7 -2 3 -11l-307 -669h-86zM79 0l244 527h-298v68h414l-274 -595h-86z" />
    <glyph glyph-name="eight" unicode="8" horiz-adv-x="588" 
d="M295 436c43 0 65 31 65 61s-22 60 -65 60c-44 0 -67 -30 -67 -60s23 -61 67 -61zM295 130c64 0 97 39 97 89c0 48 -33 87 -97 87s-99 -39 -99 -87c0 -52 35 -89 99 -89zM295 -10c-175 0 -271 99 -271 216c0 83 45 143 115 176c-40 30 -68 74 -68 131c0 98 86 175 224 175
c137 0 223 -77 223 -175c0 -57 -29 -101 -69 -131c70 -33 115 -94 115 -176c0 -117 -95 -216 -269 -216zM295 51c125 0 193 76 193 168c0 86 -59 141 -146 155c57 16 107 59 107 125c0 72 -58 133 -154 133c-97 0 -155 -61 -155 -133c0 -66 48 -109 106 -125
c-87 -14 -145 -69 -145 -155c0 -93 69 -168 194 -168zM295 69c-113 0 -176 67 -176 150c0 89 73 145 176 145s175 -56 175 -145c0 -82 -62 -150 -175 -150zM295 382c-68 0 -137 45 -137 117c0 62 52 115 137 115c84 0 136 -53 136 -115c0 -72 -70 -117 -136 -117z" />
    <glyph glyph-name="nine" unicode="9" horiz-adv-x="612" 
d="M135 0l150 202c-165 -5 -261 110 -261 236c0 143 120 252 283 252c160 0 279 -109 279 -248c0 -81 -23 -130 -99 -235l-153 -207h-90l180 244c45 62 83 128 83 196c0 101 -83 185 -200 185c-119 0 -202 -84 -202 -187c0 -96 69 -180 200 -180c71 0 119 24 150 61
c-12 -23 -30 -45 -45 -65l-186 -254h-89zM307 607c107 0 182 -76 182 -167c0 -62 -39 -164 -184 -164c-119 0 -182 76 -182 162c0 93 75 169 184 169zM308 542c-65 0 -103 -48 -103 -102c0 -55 37 -102 103 -102c64 0 103 45 103 102c0 54 -39 102 -103 102z" />
    <glyph glyph-name="colon" unicode=":" horiz-adv-x="260" 
d="M130 -7c-48 0 -91 36 -91 89s43 89 91 89c47 0 91 -36 91 -89s-44 -89 -91 -89zM130 270c-48 0 -91 36 -91 89s43 89 91 89c47 0 91 -36 91 -89s-44 -89 -91 -89zM116 359c0 -8 7 -14 14 -14s14 6 14 14s-7 14 -14 14s-14 -6 -14 -14zM116 82c0 -8 7 -14 14 -14
s14 6 14 14s-7 14 -14 14s-14 -6 -14 -14z" />
    <glyph glyph-name="semicolon" unicode=";" horiz-adv-x="260" 
d="M130 270c-48 0 -91 36 -91 89s43 89 91 89c47 0 91 -36 91 -89s-44 -89 -91 -89zM54 -103l33 108c-28 11 -48 43 -48 80c0 52 42 86 89 86c50 0 93 -34 93 -86c0 -32 -14 -60 -35 -94l-58 -94h-74zM116 82c0 -8 7 -14 14 -14s14 6 14 14s-7 14 -14 14s-14 -6 -14 -14z
M116 359c0 -8 7 -14 14 -14s14 6 14 14s-7 14 -14 14s-14 -6 -14 -14z" />
    <glyph glyph-name="less" unicode="&#x3c;" horiz-adv-x="418" 
d="M391 96l-364 210c-9 5 -9 11 0 16l364 210v-74l-258 -144l258 -143v-75zM391 265v-74l-221 123l221 124v-75l-102 -49z" />
    <glyph glyph-name="equal" unicode="=" horiz-adv-x="423" 
d="M396 494v-67h-369v67h369zM396 294v-67h-369v67h369zM27 343v66h369v-66h-369zM27 143v66h369v-66h-369z" />
    <glyph glyph-name="greater" unicode="&#x3e;" horiz-adv-x="418" 
d="M391 306l-364 -210v75l258 143l-258 144v74l364 -210c9 -5 9 -11 0 -16zM27 191v74l102 49l-102 49v75l221 -124z" />
    <glyph glyph-name="question" unicode="?" horiz-adv-x="519" 
d="M248 622c-87 0 -145 -42 -174 -101l-63 35c35 73 117 132 241 132c148 0 245 -81 245 -195c0 -113 -54 -192 -171 -215v-58h-75v113h4c112 0 160 68 160 151c0 82 -67 138 -167 138zM158 220v186h67c63 0 89 26 89 69c0 40 -28 63 -70 63c-45 0 -72 -22 -92 -59l-64 34
c27 53 80 91 160 91c90 0 149 -48 149 -120c0 -75 -42 -133 -142 -133h-22v-131h-75zM240 -7c-48 0 -91 36 -91 89s43 89 91 89c47 0 91 -36 91 -89s-44 -89 -91 -89zM227 82c0 -7 6 -13 13 -13s13 6 13 13s-6 13 -13 13s-13 -6 -13 -13z" />
    <glyph glyph-name="at" unicode="@" horiz-adv-x="770" 
d="M397 -24c-213 0 -374 134 -374 356c0 210 169 356 367 356c209 0 357 -136 357 -329c0 -140 -54 -203 -127 -203c-61 0 -110 30 -110 121v226h81v-230c0 -30 8 -44 29 -44c24 0 47 27 47 129c0 167 -101 257 -280 257c-169 0 -280 -116 -280 -283s102 -283 287 -283
c51 0 109 8 152 30l35 -64c-50 -29 -118 -39 -184 -39zM380 289c22 0 40 15 40 40c0 24 -18 42 -40 42c-23 0 -41 -18 -41 -42c0 -25 18 -40 41 -40zM378 225c-62 0 -113 34 -113 104c0 68 51 106 113 106c64 0 114 -38 114 -106c0 -70 -54 -104 -114 -104zM372 144
c-108 0 -201 63 -201 184c0 119 90 187 198 187c57 0 96 -18 123 -46v-77c-22 38 -63 60 -114 60c-72 0 -130 -43 -130 -123c0 -82 58 -121 130 -121c54 0 92 24 114 58c1 -27 8 -49 16 -65c-20 -29 -67 -57 -136 -57z" />
    <glyph glyph-name="A" unicode="A" horiz-adv-x="681" 
d="M337 553l-254 -553h-79l326 690c5 10 17 10 22 0l325 -690h-84zM175 157l162 353l163 -353h-325zM486 0l-35 79h-233l-33 -79h-82l63 139h343l64 -139h-87zM333 352l-57 -135h115z" />
    <glyph glyph-name="B" unicode="B" horiz-adv-x="638" 
d="M138 618v-555h207c120 0 178 53 178 146c0 82 -53 129 -132 141c74 19 105 72 105 132c0 90 -55 136 -153 136h-205zM345 81h-189v259h188c95 0 161 -43 161 -131c0 -81 -52 -128 -160 -128zM330 358h-174v242h187c86 0 135 -40 135 -118c0 -67 -42 -124 -148 -124zM59 0
v680h295c135 0 222 -62 222 -176c0 -85 -40 -126 -74 -146c43 -18 103 -60 103 -161c0 -124 -91 -197 -260 -197h-286zM235 414h94c50 0 69 23 69 61s-17 62 -67 62h-96v-123zM235 143h109c59 0 79 27 79 71s-21 70 -79 70h-109v-141z" />
    <glyph glyph-name="C" unicode="C" horiz-adv-x="690" 
d="M679 153c-67 -113 -161 -162 -299 -162c-191 0 -354 144 -354 349s162 348 344 348c147 0 237 -62 294 -146l-61 -42c-43 65 -112 118 -231 118c-146 0 -262 -117 -262 -278s117 -279 270 -279c116 0 186 46 236 132zM372 600c111 0 176 -49 216 -109l-61 -42
c-26 40 -68 81 -154 81c-100 0 -161 -83 -161 -190s63 -191 167 -191c88 0 131 40 160 94l62 -40c-46 -82 -113 -124 -221 -124c-143 0 -252 110 -252 261s108 260 244 260z" />
    <glyph glyph-name="D" unicode="D" horiz-adv-x="688" 
d="M141 612v-544h171c158 0 270 104 270 272s-112 272 -270 272h-171zM159 86v508h153c148 0 252 -98 252 -254s-104 -254 -252 -254h-153zM59 0v680h263c196 0 344 -129 344 -340s-148 -340 -344 -340h-263zM241 154h61c110 0 178 73 178 186s-68 186 -178 186h-61v-372z
" />
    <glyph glyph-name="E" unicode="E" horiz-adv-x="579" 
d="M59 0v680h477v-68h-395v-545h409v-67h-491zM550 153v-68h-391v248h328v-63h-246v-117h309zM487 415v-64h-328v243h377v-67h-295v-112h246z" />
    <glyph glyph-name="F" unicode="F" horiz-adv-x="552" 
d="M59 0v680h462v-68h-380v-612h-82zM488 389v-68h-329v273h362v-67h-280v-138h247zM241 0h-82v303h329v-67h-247v-236z" />
    <glyph glyph-name="G" unicode="G" horiz-adv-x="720" 
d="M616 318h-225v63h297v-296c-63 -52 -145 -94 -296 -94c-200 0 -366 144 -366 349s166 348 362 348c120 0 214 -45 273 -121l-57 -49c-49 61 -123 100 -218 100c-158 0 -276 -117 -276 -278s118 -281 283 -281c111 0 173 29 223 65v194zM526 171v66h-135v63h207v-168
c-43 -30 -102 -55 -205 -55c-155 0 -265 112 -265 263s110 260 258 260c89 0 160 -36 205 -94l-57 -49c-34 44 -82 73 -150 73c-111 0 -172 -83 -172 -190s62 -196 182 -196c66 0 103 13 132 27z" />
    <glyph glyph-name="H" unicode="H" horiz-adv-x="718" 
d="M241 0h-82v333h400v-333h-82v266h-236v-266zM477 419v261h82v-329h-400v329h82v-261h236zM59 0v680h82v-680h-82zM659 0h-82v680h82v-680z" />
    <glyph glyph-name="I" unicode="I" horiz-adv-x="308" 
d="M245 0h-82v680h82v-680zM63 0v680h82v-680h-82z" />
    <glyph glyph-name="J" unicode="J" horiz-adv-x="486" 
d="M432 680v-489c0 -128 -77 -201 -208 -201c-115 0 -183 47 -218 113l63 40c25 -48 69 -84 145 -84c86 0 136 48 136 139v482h82zM84 153l62 40c14 -24 26 -47 57 -47c29 0 47 16 47 58v476h82v-482c0 -79 -44 -121 -118 -121c-69 0 -108 33 -130 76z" />
    <glyph glyph-name="K" unicode="K" horiz-adv-x="682" 
d="M560 680h88l-226 -295l253 -385h-97l-254 379zM241 406l204 274h94l-380 -485v485h82v-274zM59 0v680h82v-680h-82zM460 0l-160 244l-59 -74v-170h-82v168l154 197l245 -365h-98z" />
    <glyph glyph-name="L" unicode="L" horiz-adv-x="555" 
d="M59 0v680h82v-613h389v-67h-471zM530 153v-68h-371v595h82v-527h289z" />
    <glyph glyph-name="M" unicode="M" horiz-adv-x="827" 
d="M41 0l40 687c1 7 5 6 9 1l326 -366l321 366c4 5 8 6 9 -1l40 -687h-80l-29 513l-260 -298l-267 297l-30 -512h-79zM417 187l244 280l27 -467h-78l-16 286l-173 -200c-3 -3 -6 -3 -9 0l-180 201l-16 -287h-78l28 468z" />
    <glyph glyph-name="N" unicode="N" horiz-adv-x="730" 
d="M135 540v-540h-76v689c0 6 3 11 14 2l429 -355v344h76v-503zM657 -12l-429 354v-342h-75v502l443 -363v541h75v-690c0 -8 -3 -11 -14 -2z" />
    <glyph glyph-name="O" unicode="O" 
d="M391 61c160 0 281 118 281 279s-121 278 -281 278s-281 -117 -281 -278s121 -279 281 -279zM391 79c-150 0 -263 110 -263 261s113 260 263 260s263 -109 263 -260s-113 -261 -263 -261zM391 -9c-196 0 -365 144 -365 349s169 348 365 348s365 -143 365 -348
s-169 -349 -365 -349zM391 149c114 0 179 84 179 191s-65 190 -179 190s-179 -83 -179 -190s65 -191 179 -191z" />
    <glyph glyph-name="P" unicode="P" horiz-adv-x="628" 
d="M241 195v-195h-82v262h171c123 0 191 72 191 174c0 103 -68 176 -191 176h-189v-612h-82v680h275c173 0 269 -105 269 -244s-96 -241 -269 -241h-93zM330 280h-171v314h171c111 0 173 -65 173 -158c0 -92 -62 -156 -173 -156zM241 347h84c62 0 95 33 95 89s-33 90 -95 90
h-84v-179z" />
    <glyph glyph-name="Q" unicode="Q" 
d="M466 -2v-122h-66v185c155 4 272 121 272 279c0 161 -121 278 -281 278s-281 -117 -281 -278c0 -158 116 -275 272 -279v-185h-66v122c-162 32 -290 164 -290 342c0 205 169 348 365 348s365 -143 365 -348c0 -178 -128 -310 -290 -342zM316 158v121h66v-200
c-146 4 -254 113 -254 261c0 151 113 260 263 260s263 -109 263 -260c0 -148 -109 -257 -254 -261v200h66v-121c67 27 104 94 104 182c0 107 -65 190 -179 190s-179 -83 -179 -190c0 -88 37 -155 104 -182z" />
    <glyph glyph-name="R" unicode="R" horiz-adv-x="647" 
d="M141 612v-612h-82v680h275c173 0 269 -102 269 -241c0 -90 -43 -161 -124 -198l141 -241h-89l-158 277c96 14 148 74 148 162c0 103 -68 173 -191 173h-189zM330 292h-171v302h171c111 0 173 -62 173 -155c0 -90 -62 -147 -173 -147zM241 213v-213h-82v274h171
c8 0 13 0 24 1l157 -275h-88l-120 213h-62zM241 352h84c62 0 95 31 95 87s-33 87 -95 87h-84v-174z" />
    <glyph glyph-name="S" unicode="S" horiz-adv-x="568" 
d="M286 -10c-153 0 -240 70 -282 126l59 44c42 -55 109 -103 219 -103c123 0 181 57 181 143c0 68 -37 109 -131 140l-85 29c-59 21 -102 51 -102 119c0 75 63 116 140 116c86 0 132 -30 168 -68l-46 -48c-28 29 -63 50 -117 50c-44 0 -66 -20 -66 -47c0 -26 15 -39 48 -50
l90 -30c136 -45 182 -110 182 -206c0 -125 -78 -215 -258 -215zM282 75c-106 0 -166 46 -205 96l59 44c33 -41 74 -74 142 -74c54 0 86 16 86 54c0 29 -22 43 -67 58l-80 27c-99 33 -169 93 -169 205c0 134 111 203 232 203c124 0 186 -41 231 -91l-45 -47
c-39 41 -94 72 -181 72s-158 -47 -158 -134c0 -74 45 -113 115 -136l85 -29c79 -28 117 -61 117 -123c0 -76 -51 -125 -162 -125z" />
    <glyph glyph-name="T" unicode="T" horiz-adv-x="588" 
d="M385 0h-82v594h262v-67h-180v-527zM203 0v527h-180v67h262v-594h-82zM565 680v-68h-542v68h542z" />
    <glyph glyph-name="U" unicode="U" horiz-adv-x="694" 
d="M347 -10c-170 0 -295 90 -295 273v417h82v-416c0 -135 85 -203 213 -203c129 0 213 68 213 203v416h82v-417c0 -183 -125 -273 -295 -273zM347 79c-118 0 -195 62 -195 185v416h82v-415c0 -74 36 -116 113 -116s113 42 113 116v415h82v-416c0 -123 -76 -185 -195 -185z
" />
    <glyph glyph-name="V" unicode="V" horiz-adv-x="661" 
d="M657 680l-321 -687c-3 -6 -9 -6 -12 0l-320 687h87l243 -530l240 530h83zM334 194l-223 486h87l139 -317l135 317h82z" />
    <glyph glyph-name="W" unicode="W" horiz-adv-x="936" 
d="M469 354l-167 -362c-3 -7 -9 -7 -12 0l-286 688h86l217 -530l164 361l167 -361l213 530h81l-282 -688c-3 -8 -8 -8 -12 0zM308 191l-200 489h84l125 -319l151 332c2 5 6 5 8 0l158 -332l119 319h79l-194 -489l-167 359z" />
    <glyph glyph-name="X" unicode="X" horiz-adv-x="687" 
d="M678 0h-90l-232 370l201 310h84l-197 -307zM244 365l-198 315h92l194 -310l-239 -370h-84zM115 0l229 354l221 -354h-90l-137 231l-140 -231h-83zM344 385l-184 295h89l102 -172l101 172h82z" />
    <glyph glyph-name="Y" unicode="Y" horiz-adv-x="666" 
d="M244 263l-240 417h89l233 -412v-268h-82v263zM426 0h-82v267l233 413h85l-236 -412v-268zM338 431l133 249h86l-221 -394l-222 394h90z" />
    <glyph glyph-name="Z" unicode="Z" horiz-adv-x="613" 
d="M14 0c-6 0 -8 2 -3 10l303 517h-252v68h377l-306 -527h436v-68h-555zM472 613h-410v67h529c6 0 8 -2 3 -10l-303 -517h278v-67h-403z" />
    <glyph glyph-name="bracketleft" unicode="[" horiz-adv-x="358" 
d="M59 0v680h265v-63h-188v-554h188v-63h-265zM154 81v518h170v-63h-93v-392h93v-63h-170z" />
    <glyph glyph-name="backslash" unicode="\" horiz-adv-x="491" 
d="M380 0h-74l-287 680h74zM185 680l287 -680h-73l-287 680h73z" />
    <glyph glyph-name="bracketright" unicode="]" horiz-adv-x="358" 
d="M299 680v-680h-265v63h188v554h-188v63h265zM204 599v-518h-170v63h93v392h-93v63h170z" />
    <glyph glyph-name="asciicircum" unicode="^" horiz-adv-x="508" 
d="M253 565l-165 -262h-76l237 378c3 5 9 5 12 0l235 -378h-79zM250 404l-64 -101h-75l142 227l142 -227h-80z" />
    <glyph glyph-name="underscore" unicode="_" horiz-adv-x="350" 
d="M352 -37v-65h-354v65h354zM-2 -184v64h354v-64h-354z" />
    <glyph glyph-name="quoteleft" unicode="&#x2018;" horiz-adv-x="254" 
d="M203 680l-33 -108c28 -11 48 -43 48 -80c0 -52 -42 -86 -89 -86c-50 0 -93 34 -93 86c0 32 14 60 35 94l58 94h74zM113 495c0 -8 7 -14 14 -14s14 6 14 14s-7 14 -14 14s-14 -6 -14 -14z" />
    <glyph glyph-name="a" unicode="a" horiz-adv-x="681" 
d="M337 553l-254 -553h-79l326 690c5 10 17 10 22 0l325 -690h-84zM175 157l162 353l163 -353h-325zM486 0l-35 79h-233l-33 -79h-82l63 139h343l64 -139h-87zM333 352l-57 -135h115z" />
    <glyph glyph-name="b" unicode="b" horiz-adv-x="638" 
d="M138 618v-555h207c120 0 178 53 178 146c0 82 -53 129 -132 141c74 19 105 72 105 132c0 90 -55 136 -153 136h-205zM345 81h-189v259h188c95 0 161 -43 161 -131c0 -81 -52 -128 -160 -128zM330 358h-174v242h187c86 0 135 -40 135 -118c0 -67 -42 -124 -148 -124zM59 0
v680h295c135 0 222 -62 222 -176c0 -85 -40 -126 -74 -146c43 -18 103 -60 103 -161c0 -124 -91 -197 -260 -197h-286zM235 414h94c50 0 69 23 69 61s-17 62 -67 62h-96v-123zM235 143h109c59 0 79 27 79 71s-21 70 -79 70h-109v-141z" />
    <glyph glyph-name="c" unicode="c" horiz-adv-x="690" 
d="M679 153c-67 -113 -161 -162 -299 -162c-191 0 -354 144 -354 349s162 348 344 348c147 0 237 -62 294 -146l-61 -42c-43 65 -112 118 -231 118c-146 0 -262 -117 -262 -278s117 -279 270 -279c116 0 186 46 236 132zM372 600c111 0 176 -49 216 -109l-61 -42
c-26 40 -68 81 -154 81c-100 0 -161 -83 -161 -190s63 -191 167 -191c88 0 131 40 160 94l62 -40c-46 -82 -113 -124 -221 -124c-143 0 -252 110 -252 261s108 260 244 260z" />
    <glyph glyph-name="d" unicode="d" horiz-adv-x="688" 
d="M141 612v-544h171c158 0 270 104 270 272s-112 272 -270 272h-171zM159 86v508h153c148 0 252 -98 252 -254s-104 -254 -252 -254h-153zM59 0v680h263c196 0 344 -129 344 -340s-148 -340 -344 -340h-263zM241 154h61c110 0 178 73 178 186s-68 186 -178 186h-61v-372z
" />
    <glyph glyph-name="e" unicode="e" horiz-adv-x="579" 
d="M59 0v680h477v-68h-395v-545h409v-67h-491zM550 153v-68h-391v248h328v-63h-246v-117h309zM487 415v-64h-328v243h377v-67h-295v-112h246z" />
    <glyph glyph-name="f" unicode="f" horiz-adv-x="552" 
d="M59 0v680h462v-68h-380v-612h-82zM488 389v-68h-329v273h362v-67h-280v-138h247zM241 0h-82v303h329v-67h-247v-236z" />
    <glyph glyph-name="g" unicode="g" horiz-adv-x="720" 
d="M616 318h-225v63h297v-296c-63 -52 -145 -94 -296 -94c-200 0 -366 144 -366 349s166 348 362 348c120 0 214 -45 273 -121l-57 -49c-49 61 -123 100 -218 100c-158 0 -276 -117 -276 -278s118 -281 283 -281c111 0 173 29 223 65v194zM526 171v66h-135v63h207v-168
c-43 -30 -102 -55 -205 -55c-155 0 -265 112 -265 263s110 260 258 260c89 0 160 -36 205 -94l-57 -49c-34 44 -82 73 -150 73c-111 0 -172 -83 -172 -190s62 -196 182 -196c66 0 103 13 132 27z" />
    <glyph glyph-name="h" unicode="h" horiz-adv-x="718" 
d="M241 0h-82v333h400v-333h-82v266h-236v-266zM477 419v261h82v-329h-400v329h82v-261h236zM59 0v680h82v-680h-82zM659 0h-82v680h82v-680z" />
    <glyph glyph-name="i" unicode="i" horiz-adv-x="308" 
d="M245 0h-82v680h82v-680zM63 0v680h82v-680h-82z" />
    <glyph glyph-name="j" unicode="j" horiz-adv-x="486" 
d="M432 680v-489c0 -128 -77 -201 -208 -201c-115 0 -183 47 -218 113l63 40c25 -48 69 -84 145 -84c86 0 136 48 136 139v482h82zM84 153l62 40c14 -24 26 -47 57 -47c29 0 47 16 47 58v476h82v-482c0 -79 -44 -121 -118 -121c-69 0 -108 33 -130 76z" />
    <glyph glyph-name="k" unicode="k" horiz-adv-x="682" 
d="M560 680h88l-226 -295l253 -385h-97l-254 379zM241 406l204 274h94l-380 -485v485h82v-274zM59 0v680h82v-680h-82zM460 0l-160 244l-59 -74v-170h-82v168l154 197l245 -365h-98z" />
    <glyph glyph-name="l" unicode="l" horiz-adv-x="555" 
d="M59 0v680h82v-613h389v-67h-471zM530 153v-68h-371v595h82v-527h289z" />
    <glyph glyph-name="m" unicode="m" horiz-adv-x="827" 
d="M41 0l40 687c1 7 5 6 9 1l326 -366l321 366c4 5 8 6 9 -1l40 -687h-80l-29 513l-260 -298l-267 297l-30 -512h-79zM417 187l244 280l27 -467h-78l-16 286l-173 -200c-3 -3 -6 -3 -9 0l-180 201l-16 -287h-78l28 468z" />
    <glyph glyph-name="n" unicode="n" horiz-adv-x="730" 
d="M135 540v-540h-76v689c0 6 3 11 14 2l429 -355v344h76v-503zM657 -12l-429 354v-342h-75v502l443 -363v541h75v-690c0 -8 -3 -11 -14 -2z" />
    <glyph glyph-name="o" unicode="o" 
d="M391 61c160 0 281 118 281 279s-121 278 -281 278s-281 -117 -281 -278s121 -279 281 -279zM391 79c-150 0 -263 110 -263 261s113 260 263 260s263 -109 263 -260s-113 -261 -263 -261zM391 -9c-196 0 -365 144 -365 349s169 348 365 348s365 -143 365 -348
s-169 -349 -365 -349zM391 149c114 0 179 84 179 191s-65 190 -179 190s-179 -83 -179 -190s65 -191 179 -191z" />
    <glyph glyph-name="p" unicode="p" horiz-adv-x="628" 
d="M241 195v-195h-82v262h171c123 0 191 72 191 174c0 103 -68 176 -191 176h-189v-612h-82v680h275c173 0 269 -105 269 -244s-96 -241 -269 -241h-93zM330 280h-171v314h171c111 0 173 -65 173 -158c0 -92 -62 -156 -173 -156zM241 347h84c62 0 95 33 95 89s-33 90 -95 90
h-84v-179z" />
    <glyph glyph-name="q" unicode="q" 
d="M466 -2v-122h-66v185c155 4 272 121 272 279c0 161 -121 278 -281 278s-281 -117 -281 -278c0 -158 116 -275 272 -279v-185h-66v122c-162 32 -290 164 -290 342c0 205 169 348 365 348s365 -143 365 -348c0 -178 -128 -310 -290 -342zM316 158v121h66v-200
c-146 4 -254 113 -254 261c0 151 113 260 263 260s263 -109 263 -260c0 -148 -109 -257 -254 -261v200h66v-121c67 27 104 94 104 182c0 107 -65 190 -179 190s-179 -83 -179 -190c0 -88 37 -155 104 -182z" />
    <glyph glyph-name="r" unicode="r" horiz-adv-x="647" 
d="M141 612v-612h-82v680h275c173 0 269 -102 269 -241c0 -90 -43 -161 -124 -198l141 -241h-89l-158 277c96 14 148 74 148 162c0 103 -68 173 -191 173h-189zM330 292h-171v302h171c111 0 173 -62 173 -155c0 -90 -62 -147 -173 -147zM241 213v-213h-82v274h171
c8 0 13 0 24 1l157 -275h-88l-120 213h-62zM241 352h84c62 0 95 31 95 87s-33 87 -95 87h-84v-174z" />
    <glyph glyph-name="s" unicode="s" horiz-adv-x="568" 
d="M286 -10c-153 0 -240 70 -282 126l59 44c42 -55 109 -103 219 -103c123 0 181 57 181 143c0 68 -37 109 -131 140l-85 29c-59 21 -102 51 -102 119c0 75 63 116 140 116c86 0 132 -30 168 -68l-46 -48c-28 29 -63 50 -117 50c-44 0 -66 -20 -66 -47c0 -26 15 -39 48 -50
l90 -30c136 -45 182 -110 182 -206c0 -125 -78 -215 -258 -215zM282 75c-106 0 -166 46 -205 96l59 44c33 -41 74 -74 142 -74c54 0 86 16 86 54c0 29 -22 43 -67 58l-80 27c-99 33 -169 93 -169 205c0 134 111 203 232 203c124 0 186 -41 231 -91l-45 -47
c-39 41 -94 72 -181 72s-158 -47 -158 -134c0 -74 45 -113 115 -136l85 -29c79 -28 117 -61 117 -123c0 -76 -51 -125 -162 -125z" />
    <glyph glyph-name="t" unicode="t" horiz-adv-x="588" 
d="M385 0h-82v594h262v-67h-180v-527zM203 0v527h-180v67h262v-594h-82zM565 680v-68h-542v68h542z" />
    <glyph glyph-name="u" unicode="u" horiz-adv-x="694" 
d="M347 -10c-170 0 -295 90 -295 273v417h82v-416c0 -135 85 -203 213 -203c129 0 213 68 213 203v416h82v-417c0 -183 -125 -273 -295 -273zM347 79c-118 0 -195 62 -195 185v416h82v-415c0 -74 36 -116 113 -116s113 42 113 116v415h82v-416c0 -123 -76 -185 -195 -185z
" />
    <glyph glyph-name="v" unicode="v" horiz-adv-x="661" 
d="M657 680l-321 -687c-3 -6 -9 -6 -12 0l-320 687h87l243 -530l240 530h83zM334 194l-223 486h87l139 -317l135 317h82z" />
    <glyph glyph-name="w" unicode="w" horiz-adv-x="936" 
d="M469 354l-167 -362c-3 -7 -9 -7 -12 0l-286 688h86l217 -530l164 361l167 -361l213 530h81l-282 -688c-3 -8 -8 -8 -12 0zM308 191l-200 489h84l125 -319l151 332c2 5 6 5 8 0l158 -332l119 319h79l-194 -489l-167 359z" />
    <glyph glyph-name="x" unicode="x" horiz-adv-x="687" 
d="M678 0h-90l-232 370l201 310h84l-197 -307zM244 365l-198 315h92l194 -310l-239 -370h-84zM115 0l229 354l221 -354h-90l-137 231l-140 -231h-83zM344 385l-184 295h89l102 -172l101 172h82z" />
    <glyph glyph-name="y" unicode="y" horiz-adv-x="666" 
d="M244 263l-240 417h89l233 -412v-268h-82v263zM426 0h-82v267l233 413h85l-236 -412v-268zM338 431l133 249h86l-221 -394l-222 394h90z" />
    <glyph glyph-name="z" unicode="z" horiz-adv-x="613" 
d="M14 0c-6 0 -8 2 -3 10l303 517h-252v68h377l-306 -527h436v-68h-555zM472 613h-410v67h529c6 0 8 -2 3 -10l-303 -517h278v-67h-403z" />
    <glyph glyph-name="braceleft" unicode="{" horiz-adv-x="414" 
d="M210 525c0 55 38 74 78 74h92v-63h-63c-19 0 -30 -7 -30 -32v-79c0 -57 -30 -78 -68 -85c38 -7 68 -30 68 -85v-79c0 -25 11 -32 30 -32h63v-63h-92c-40 0 -78 19 -78 74v80c0 62 -34 93 -88 105c54 11 88 43 88 105v80zM259 0c-71 0 -144 35 -144 134v81
c0 36 -15 53 -48 53h-40v63h40c75 0 125 -27 125 -96v-80c0 -69 46 -92 96 -92h92v-63h-121zM67 349h-40v63h40c33 0 48 17 48 53v81c0 99 73 134 144 134h121v-63h-92c-50 0 -96 -23 -96 -92v-80c0 -69 -50 -96 -125 -96z" />
    <glyph glyph-name="bar" unicode="|" horiz-adv-x="254" 
d="M204 -70h-68v820h68v-820zM50 -70v820h68v-820h-68z" />
    <glyph glyph-name="braceright" unicode="}" horiz-adv-x="414" 
d="M204 525v-80c0 -62 34 -94 88 -105c-54 -12 -88 -43 -88 -105v-80c0 -55 -38 -74 -78 -74h-92v63h63c19 0 30 7 30 32v79c0 55 30 78 68 85c-38 7 -68 28 -68 85v79c0 25 -11 32 -30 32h-63v63h92c40 0 78 -19 78 -74zM155 0h-121v63h92c50 0 96 23 96 92v80
c0 69 50 96 125 96h40v-63h-40c-33 0 -48 -17 -48 -53v-81c0 -99 -73 -134 -144 -134zM387 349h-40c-75 0 -125 27 -125 96v80c0 69 -46 92 -96 92h-92v63h121c71 0 144 -35 144 -134v-81c0 -36 15 -53 48 -53h40v-63z" />
    <glyph glyph-name="asciitilde" unicode="~" horiz-adv-x="484" 
d="M178 313c-47 0 -89 -40 -100 -114l-56 8c15 109 80 175 148 175c66 0 100 -40 128 -40c18 0 27 13 33 36l57 -8c-11 -63 -44 -97 -82 -97c-22 0 -41 9 -60 19c-21 10 -43 21 -68 21zM314 186c-66 0 -100 40 -128 40c-18 0 -27 -13 -33 -36l-57 7c10 64 44 98 82 98
c21 0 41 -10 60 -19c21 -11 42 -21 68 -21c47 0 87 40 100 113l56 -7c-15 -109 -80 -175 -148 -175z" />
    <glyph glyph-name="exclamdown" unicode="&#xa1;" horiz-adv-x="302" 
d="M77 460h65v-460h-85zM225 460l20 -460h-85v460h65zM151 687c48 0 91 -36 91 -89s-43 -89 -91 -89c-47 0 -91 36 -91 89s44 89 91 89zM164 598c0 7 -6 13 -13 13s-13 -6 -13 -13s6 -13 13 -13s13 6 13 13z" />
    <glyph glyph-name="cent" unicode="&#xa2;" horiz-adv-x="497" 
d="M246 573v106h73v-106c73 -9 124 -40 159 -85l-50 -42c-30 38 -75 67 -146 67c-103 0 -182 -74 -182 -178c0 -105 79 -178 183 -178c73 0 117 27 149 62l51 -42c-39 -44 -92 -73 -164 -80v-97h-73v97c-126 15 -220 110 -220 238c0 127 94 224 220 238zM369 272l49 -41
c-29 -31 -70 -56 -135 -56c-94 0 -165 65 -165 160c0 94 71 160 164 160c65 0 107 -26 133 -60l-50 -43c-11 13 -25 28 -46 35v-187c24 6 38 20 50 32zM192 335c0 -46 20 -78 54 -92v182c-33 -14 -54 -47 -54 -90z" />
    <glyph glyph-name="sterling" unicode="&#xa3;" horiz-adv-x="635" 
d="M82 329h159c24 -56 39 -108 39 -153c0 -7 0 -14 -1 -20c-37 28 -75 50 -123 50c-47 0 -88 -29 -88 -83c0 -51 43 -83 96 -83c57 0 108 32 126 87c47 -32 95 -68 164 -68c59 0 100 14 141 56l43 -50c-50 -56 -106 -75 -178 -75c-64 0 -111 23 -151 52
c-40 -36 -85 -52 -147 -52c-74 0 -150 47 -150 135c0 83 66 131 136 131c15 0 34 -2 50 -7l-11 27h-105v53zM115 487c0 99 79 201 239 201c116 0 186 -55 222 -125l-61 -39c-30 58 -79 96 -161 96c-106 0 -159 -67 -159 -137c0 -44 18 -92 38 -136h-151v52h50
c-10 30 -17 59 -17 88zM213 483c0 60 47 119 141 119c74 0 119 -35 145 -87l-61 -39c-21 37 -39 58 -84 58c-41 0 -62 -24 -62 -56c0 -24 6 -52 18 -79h162v-52h-220c-21 48 -39 94 -39 136zM454 77c-68 0 -113 37 -159 68c2 10 3 20 3 31c0 48 -16 101 -38 153h212v-53
h-116c10 -34 20 -76 16 -108c24 -12 48 -19 75 -19c47 0 68 7 93 31l43 -51c-38 -40 -75 -52 -129 -52zM164 58c-43 0 -78 27 -78 65c0 42 33 65 70 65c46 0 83 -23 120 -51c-15 -51 -60 -79 -112 -79zM173 138c-18 0 -25 -8 -25 -18s7 -18 24 -18c13 0 27 7 36 20
c-12 11 -23 16 -35 16z" />
    <glyph glyph-name="fraction" unicode="&#x2044;" horiz-adv-x="483" 
d="M121 0h-74l407 680h74zM-45 0l407 680h73l-407 -680h-73z" />
    <glyph glyph-name="yen" unicode="&#xa5;" horiz-adv-x="658" 
d="M53 254v78h149l-198 348h89l229 -412v-268h-80v142h-189v78h189v34h-189zM420 0h-80v267l229 413h85l-198 -348h159v-78h-195v-34h195v-78h-195v-142zM334 431l129 249h86l-217 -394l-218 394h90z" />
    <glyph glyph-name="florin" unicode="&#x192;" horiz-adv-x="450" 
d="M28 313v57h75l16 136c15 130 86 182 181 182c76 0 120 -29 148 -61l-39 -45c-20 22 -52 43 -97 43c-59 0 -106 -38 -117 -120l-22 -192h-145zM363 238h-104l-41 -362h-77l48 419h174v-57zM123 -124h-76l41 362h-60v57h143zM324 542c-17 0 -31 -9 -35 -41l-15 -131h89v-57
h-172l22 190c8 75 48 104 99 104c41 0 69 -18 85 -38l-39 -44c-8 11 -18 17 -34 17z" />
    <glyph glyph-name="section" unicode="&#xa7;" horiz-adv-x="591" 
d="M120 394c-22 28 -39 61 -39 106c0 98 73 188 216 188c112 0 177 -47 215 -108l-55 -39c-34 50 -81 80 -158 80c-91 0 -140 -53 -140 -118c0 -49 27 -83 67 -104c-77 -24 -128 -63 -128 -124c0 -52 26 -90 110 -113l106 -29c60 -16 98 -53 98 -105c0 -58 -52 -93 -138 -93
c-72 0 -128 23 -169 65l49 48c23 -23 65 -45 114 -45c44 0 63 8 63 31c0 16 -13 23 -41 30l-98 26c-130 34 -164 96 -164 171c0 66 38 103 92 133zM299 603c69 0 112 -28 142 -72l-55 -39c-20 26 -45 44 -85 44c-27 0 -46 -8 -46 -31c0 -18 19 -29 40 -35l108 -31
c127 -36 160 -101 160 -185c0 -57 -29 -93 -85 -125c21 -31 33 -67 33 -108c0 -104 -92 -171 -231 -171c-105 0 -182 29 -239 90l50 48c46 -47 105 -71 183 -71c98 0 156 41 156 111c0 45 -24 80 -63 102c79 16 126 60 126 117s-22 98 -107 122l-116 32
c-49 15 -93 50 -93 102c0 55 43 100 122 100zM318 151l-106 29c-70 20 -96 50 -96 95c0 56 53 95 133 113l133 -37c70 -21 93 -56 93 -104c0 -52 -44 -92 -127 -104c0 0 -17 5 -30 8zM379 207c15 4 28 15 28 33c0 22 -9 32 -43 41l-149 41c-15 -3 -29 -16 -29 -34
c0 -21 16 -30 41 -36l115 -32c15 -4 23 -7 37 -13z" />
    <glyph glyph-name="quotesingle" unicode="'" horiz-adv-x="226" 
d="M183 443h-61v237h80zM43 443l-19 237h80v-237h-61z" />
    <glyph glyph-name="quotedblleft" unicode="&#x201c;" horiz-adv-x="471" 
d="M203 680l-33 -108c28 -11 48 -43 48 -80c0 -52 -42 -86 -89 -86c-50 0 -93 34 -93 86c0 32 14 60 35 94l58 94h74zM420 680l-33 -108c28 -11 48 -43 48 -80c0 -52 -42 -86 -89 -86c-50 0 -93 34 -93 86c0 32 14 60 35 94l58 94h74zM113 495c0 -8 7 -14 14 -14s14 6 14 14
s-7 14 -14 14s-14 -6 -14 -14zM330 495c0 -8 7 -14 14 -14s14 6 14 14s-7 14 -14 14s-14 -6 -14 -14z" />
    <glyph glyph-name="guillemotleft" unicode="&#xab;" horiz-adv-x="520" 
d="M327 69l-82 176c-1 3 -1 5 0 8l82 174h79l-83 -178l83 -180h-79zM101 69l-82 176c-1 3 -1 5 0 8l82 174h79l-83 -178l83 -180h-79zM279 69h-79l-83 180l83 178h79l-83 -178zM505 69h-79l-83 180l83 178h79l-83 -178z" />
    <glyph glyph-name="guilsinglleft" unicode="&#x2039;" horiz-adv-x="294" 
d="M101 69l-82 176c-1 3 -1 5 0 8l82 174h79l-83 -178l83 -180h-79zM279 69h-79l-83 180l83 178h79l-83 -178z" />
    <glyph glyph-name="guilsinglright" unicode="&#x203a;" horiz-adv-x="294" 
d="M193 427l82 -176c1 -3 1 -5 0 -8l-82 -174h-79l83 178l-83 180h79zM15 427h79l83 -180l-83 -178h-79l83 178z" />
    <glyph glyph-name="fi" unicode="&#xfb01;" horiz-adv-x="860" 
d="M59 0v680h462v-68h-380v-612h-82zM488 389v-68h-329v273h362v-67h-280v-138h247zM241 0h-82v303h329v-67h-247v-236zM797 0h-82v680h82v-680zM615 0v680h82v-680h-82z" />
    <glyph glyph-name="fl" unicode="&#xfb02;" horiz-adv-x="1107" 
d="M59 0v680h462v-68h-380v-612h-82zM488 389v-68h-329v273h362v-67h-280v-138h247zM241 0h-82v303h329v-67h-247v-236zM611 0v680h82v-613h389v-67h-471zM1082 153v-68h-371v595h82v-527h289z" />
    <glyph glyph-name="endash" unicode="&#x2013;" horiz-adv-x="406" 
d="M370 359v-64h-334v64h334zM36 214v63h334v-63h-334z" />
    <glyph glyph-name="dagger" unicode="&#x2020;" horiz-adv-x="355" 
d="M260 234h-74v266h152v-64h-78v-202zM95 436h-78v64h151v-266h-73v202zM338 582v-64h-152v162h74v-98h78zM95 582v98h73v-162h-151v64h78z" />
    <glyph glyph-name="daggerdbl" unicode="&#x2021;" horiz-adv-x="355" 
d="M186 535h152v-64h-78v-28h78v-64h-152v156zM17 443h78v28h-78v64h151v-156h-151v64zM338 617v-64h-152v127h74v-63h78zM338 361v-64h-78v-63h-74v127h152zM95 617v63h73v-127h-151v64h78zM95 234v63h-78v64h151v-127h-73z" />
    <glyph glyph-name="periodcentered" unicode="&#xb7;" horiz-adv-x="254" 
d="M127 218c-48 0 -91 36 -91 89s43 89 91 89c47 0 91 -36 91 -89s-44 -89 -91 -89zM113 307c0 -8 7 -14 14 -14s14 6 14 14s-7 14 -14 14s-14 -6 -14 -14z" />
    <glyph glyph-name="paragraph" unicode="&#xb6;" horiz-adv-x="585" 
d="M244 264h-8c-126 0 -214 98 -214 208s88 208 214 208h90v-680h-82v264zM426 0h-82v680h82v-680zM526 0h-82v680h82v-680z" />
    <glyph glyph-name="bullet" unicode="&#x2022;" horiz-adv-x="316" 
d="M157 236c34 -1 65 27 65 63c1 36 -29 65 -63 65c-34 1 -65 -26 -65 -63c-1 -36 29 -65 63 -65zM157 254c-24 0 -46 21 -45 47c0 27 23 46 47 45c24 0 46 -21 45 -47c0 -26 -23 -46 -47 -45zM158 167c-70 0 -133 58 -133 133c0 76 63 133 133 133s133 -57 133 -133
c0 -75 -63 -133 -133 -133z" />
    <glyph glyph-name="quotesinglbase" unicode="&#x201a;" horiz-adv-x="254" 
d="M51 -81l33 108c-28 11 -48 43 -48 80c0 52 42 86 89 86c50 0 93 -34 93 -86c0 -32 -14 -60 -35 -94l-58 -94h-74zM113 104c0 -8 7 -14 14 -14s14 6 14 14s-7 14 -14 14s-14 -6 -14 -14z" />
    <glyph glyph-name="quotedblbase" unicode="&#x201e;" horiz-adv-x="471" 
d="M51 -81l33 108c-28 11 -48 43 -48 80c0 52 42 86 89 86c50 0 93 -34 93 -86c0 -32 -14 -60 -35 -94l-58 -94h-74zM268 -81l33 108c-28 11 -48 43 -48 80c0 52 42 86 89 86c50 0 93 -34 93 -86c0 -32 -14 -60 -35 -94l-58 -94h-74zM113 104c0 -8 7 -14 14 -14s14 6 14 14
s-7 14 -14 14s-14 -6 -14 -14zM330 104c0 -8 7 -14 14 -14s14 6 14 14s-7 14 -14 14s-14 -6 -14 -14z" />
    <glyph glyph-name="quotedblright" unicode="&#x201d;" horiz-adv-x="471" 
d="M51 414l33 108c-28 11 -48 43 -48 80c0 52 42 86 89 86c50 0 93 -34 93 -86c0 -32 -14 -60 -35 -94l-58 -94h-74zM268 414l33 108c-28 11 -48 43 -48 80c0 52 42 86 89 86c50 0 93 -34 93 -86c0 -32 -14 -60 -35 -94l-58 -94h-74zM113 599c0 -8 7 -14 14 -14s14 6 14 14
s-7 14 -14 14s-14 -6 -14 -14zM330 599c0 -8 7 -14 14 -14s14 6 14 14s-7 14 -14 14s-14 -6 -14 -14z" />
    <glyph glyph-name="guillemotright" unicode="&#xbb;" horiz-adv-x="520" 
d="M193 427l82 -176c1 -3 1 -5 0 -8l-82 -174h-79l83 178l-83 180h79zM419 427l82 -176c1 -3 1 -5 0 -8l-82 -174h-79l83 178l-83 180h79zM241 427h79l83 -180l-83 -178h-79l83 178zM15 427h79l83 -180l-83 -178h-79l83 178z" />
    <glyph glyph-name="ellipsis" unicode="&#x2026;" horiz-adv-x="718" 
d="M127 -7c-48 0 -91 36 -91 89s43 89 91 89c47 0 91 -36 91 -89s-44 -89 -91 -89zM113 82c0 -8 7 -14 14 -14s14 6 14 14s-7 14 -14 14s-14 -6 -14 -14zM359 -7c-48 0 -91 36 -91 89s43 89 91 89c47 0 91 -36 91 -89s-44 -89 -91 -89zM345 82c0 -8 7 -14 14 -14s14 6 14 14
s-7 14 -14 14s-14 -6 -14 -14zM591 -7c-48 0 -91 36 -91 89s43 89 91 89c47 0 91 -36 91 -89s-44 -89 -91 -89zM577 82c0 -8 7 -14 14 -14s14 6 14 14s-7 14 -14 14s-14 -6 -14 -14z" />
    <glyph glyph-name="perthousand" unicode="&#x2030;" horiz-adv-x="1176" 
d="M200 414c63 0 112 47 112 109c0 63 -49 109 -112 109s-113 -46 -113 -109c0 -62 50 -109 113 -109zM200 432c-53 0 -95 39 -95 91c0 53 42 91 95 91s94 -38 94 -91c0 -52 -41 -91 -94 -91zM200 356c-97 0 -176 73 -176 167c0 95 79 166 176 166s175 -71 175 -166
c0 -94 -78 -167 -175 -167zM200 489c18 0 31 13 31 34c0 20 -13 33 -31 33c-19 0 -32 -13 -32 -33c0 -21 13 -34 32 -34zM272 0h-74l429 680h74zM106 0l429 680h73l-429 -680h-73zM607 49c63 0 112 47 112 109c0 63 -49 109 -112 109s-113 -46 -113 -109
c0 -62 50 -109 113 -109zM607 67c-53 0 -95 39 -95 91c0 53 42 91 95 91s94 -38 94 -91c0 -52 -41 -91 -94 -91zM607 -9c-97 0 -176 73 -176 167c0 95 79 166 176 166s175 -71 175 -166c0 -94 -78 -167 -175 -167zM607 124c18 0 31 13 31 34c0 20 -13 33 -31 33
c-19 0 -32 -13 -32 -33c0 -21 13 -34 32 -34zM977 49c63 0 112 47 112 109c0 63 -49 109 -112 109s-113 -46 -113 -109c0 -62 50 -109 113 -109zM977 67c-53 0 -95 39 -95 91c0 53 42 91 95 91s94 -38 94 -91c0 -52 -41 -91 -94 -91zM977 -9c-97 0 -176 73 -176 167
c0 95 79 166 176 166s175 -71 175 -166c0 -94 -78 -167 -175 -167zM977 124c18 0 31 13 31 34c0 20 -13 33 -31 33c-19 0 -32 -13 -32 -33c0 -21 13 -34 32 -34z" />
    <glyph glyph-name="questiondown" unicode="&#xbf;" horiz-adv-x="519" 
d="M271 56c87 0 145 42 174 101l63 -35c-35 -73 -117 -132 -241 -132c-148 0 -245 81 -245 195c0 113 54 192 171 215v58h75v-113h-4c-112 0 -160 -68 -160 -151c0 -82 67 -138 167 -138zM361 458v-186h-67c-63 0 -89 -26 -89 -69c0 -40 28 -63 70 -63c45 0 72 22 92 59
l64 -34c-27 -53 -80 -91 -160 -91c-90 0 -149 48 -149 120c0 75 42 133 142 133h22v131h75zM279 685c48 0 91 -36 91 -89s-43 -89 -91 -89c-47 0 -91 36 -91 89s44 89 91 89zM292 596c0 7 -6 13 -13 13s-13 -6 -13 -13s6 -13 13 -13s13 6 13 13z" />
    <glyph glyph-name="grave" unicode="`" horiz-adv-x="500" 
d="M260 722h-57l-95 182h86zM296 904l40 -182h-58l-66 182h84z" />
    <glyph glyph-name="acute" unicode="&#xb4;" horiz-adv-x="500" 
d="M297 722h-57l66 182h86zM164 722l40 182h84l-66 -182h-58z" />
    <glyph glyph-name="circumflex" unicode="&#x2c6;" horiz-adv-x="500" 
d="M73 722l172 210c3 4 6 4 9 0l172 -210h-64l-112 134l-114 -134h-63zM159 722l91 105l90 -105h-61l-29 29l-30 -29h-61z" />
    <glyph glyph-name="tilde" unicode="&#x2dc;" horiz-adv-x="500" 
d="M196 832c-42 0 -76 -37 -88 -103l-51 6c14 107 74 156 130 156c50 0 90 -36 111 -36c17 0 22 11 28 33l50 -6c-9 -56 -39 -87 -69 -87c-39 0 -75 37 -111 37zM315 718c-50 0 -90 36 -111 36c-17 0 -22 -11 -28 -33l-50 6c9 56 38 87 70 87c35 0 71 -37 111 -37
c39 0 76 37 86 103l52 -6c-13 -105 -74 -156 -130 -156z" />
    <glyph glyph-name="macron" unicode="&#xaf;" horiz-adv-x="500" 
d="M108 799v59h284v-59h-284zM108 722v59h284v-59h-284z" />
    <glyph glyph-name="breve" unicode="&#x2d8;" horiz-adv-x="500" 
d="M250 715c-100 0 -166 63 -175 145l57 4c7 -54 51 -95 118 -95s109 41 117 95l57 -4c-9 -82 -74 -145 -174 -145zM250 787c-56 0 -93 34 -100 78l59 3c3 -18 16 -30 41 -30s38 12 41 30l57 -3c-7 -44 -41 -78 -98 -78z" />
    <glyph glyph-name="dotaccent" unicode="&#x2d9;" horiz-adv-x="500" 
d="M250 717c-41 0 -80 35 -80 80s39 80 80 80c42 0 79 -35 79 -80s-37 -80 -79 -80zM236 797c0 -8 7 -14 14 -14s14 6 14 14s-7 14 -14 14s-14 -6 -14 -14z" />
    <glyph glyph-name="dieresis" unicode="&#xa8;" horiz-adv-x="500" 
d="M154 717c-41 0 -80 35 -80 80s39 80 80 80c42 0 79 -35 79 -80s-37 -80 -79 -80zM347 717c-41 0 -80 35 -80 80s39 80 80 80c42 0 79 -35 79 -80s-37 -80 -79 -80zM140 797c0 -8 7 -14 14 -14s14 6 14 14s-7 14 -14 14s-14 -6 -14 -14zM333 797c0 -8 7 -14 14 -14
s14 6 14 14s-7 14 -14 14s-14 -6 -14 -14z" />
    <glyph glyph-name="ring" unicode="&#x2da;" horiz-adv-x="500" 
d="M250 726c-69 0 -116 50 -116 109s47 109 116 109s116 -50 116 -109s-47 -109 -116 -109zM250 792c23 0 42 16 42 43c0 26 -19 43 -42 43s-42 -17 -42 -43c0 -27 19 -43 42 -43z" />
    <glyph glyph-name="cedilla" unicode="&#xb8;" horiz-adv-x="500" 
d="M259 -222c-59 0 -95 19 -119 57l68 45c7 -12 18 -23 35 -23c15 0 28 6 28 24c0 16 -11 25 -34 25h-34v94h79v-31c46 -7 83 -41 83 -97c0 -59 -55 -94 -106 -94z" />
    <glyph glyph-name="hungarumlaut" unicode="&#x2dd;" horiz-adv-x="500" 
d="M220 722h-57l59 182h79zM87 722l40 182h77l-59 -182h-58zM424 722h-57l59 182h79zM291 722l40 182h77l-59 -182h-58z" />
    <glyph glyph-name="ogonek" unicode="&#x2db;" horiz-adv-x="500" 
d="M284 -223c-77 0 -126 38 -126 98c0 51 35 92 79 125h51c-39 -37 -65 -71 -65 -107c0 -42 31 -68 78 -68c34 0 64 11 82 25l19 -35c-25 -23 -62 -38 -118 -38zM241 -107c0 33 28 70 69 107h56c-36 -40 -60 -67 -60 -87c0 -15 11 -20 23 -20s19 4 26 8l19 -35
c-14 -13 -42 -24 -73 -24c-39 0 -60 20 -60 51z" />
    <glyph glyph-name="caron" unicode="&#x2c7;" horiz-adv-x="500" 
d="M427 923l-172 -210c-3 -4 -6 -4 -9 0l-172 210h64l112 -134l114 134h63zM341 923l-91 -105l-90 105h61l29 -29l30 29h61z" />
    <glyph glyph-name="emdash" unicode="&#x2014;" horiz-adv-x="706" 
d="M670 359v-64h-634v64h634zM36 214v63h634v-63h-634z" />
    <glyph glyph-name="AE" unicode="&#xc6;" horiz-adv-x="977" 
d="M934 612h-416l-433 -612h-84l485 680h448v-68zM227 171l299 423h13v-423h-312zM457 0v96h-196l-65 -96h-90l108 153h325v-86h409v-67h-491zM948 153v-68h-391v248h328v-63h-246v-117h309zM885 415v-64h-328v243h377v-67h-295v-112h246zM351 228h106v155z" />
    <glyph glyph-name="ordfeminine" unicode="&#xaa;" horiz-adv-x="556" 
d="M276 556l-188 -384h-80l264 508c4 7 10 7 14 0l262 -508h-84zM155 267l121 248l122 -248h-243zM360 172l-12 29h-148l-12 -29h-80l38 77h261l37 -77h-84zM273 382l-27 -66h54z" />
    <glyph glyph-name="Lslash" unicode="&#x141;" horiz-adv-x="564" 
d="M68 0v211l-58 -21v71l140 50v-244h389v-67h-471zM539 153v-68h-371v233l233 83v-71l-151 -54v-123h289zM401 490v-71l-233 -83v344h82v-244zM150 680v-351l-140 -50v71l58 21v309h82z" />
    <glyph glyph-name="Oslash" unicode="&#xd8;" 
d="M391 61c160 0 281 118 281 279s-121 278 -281 278s-281 -117 -281 -278s121 -279 281 -279zM391 79c-150 0 -263 110 -263 261s113 260 263 260s263 -109 263 -260s-113 -261 -263 -261zM391 -9c-84 0 -163 26 -226 73l-67 -65l-58 58l65 63c-49 58 -79 134 -79 220
c0 205 169 348 365 348c84 0 162 -27 225 -73l66 64l58 -58l-63 -61c49 -59 79 -134 79 -220c0 -205 -169 -349 -365 -349zM391 149c114 0 179 84 179 191c0 35 -8 68 -21 96l-264 -256c28 -20 63 -31 106 -31zM212 340c0 -36 7 -69 20 -97l264 256c-28 19 -63 31 -105 31
c-114 0 -179 -83 -179 -190z" />
    <glyph glyph-name="OE" unicode="&#x152;" horiz-adv-x="969" 
d="M380 594h152v-509h-152c-148 0 -252 99 -252 255s104 254 252 254zM380 67h560v-67h-570c-196 0 -344 129 -344 340s148 340 344 340h556v-68h-546c-158 0 -270 -104 -270 -272s112 -273 270 -273zM451 526h-61c-110 0 -178 -73 -178 -186s68 -187 178 -187h61v373z
M940 153v-68h-390v248h327v-63h-246v-117h309zM877 415v-64h-327v243h376v-67h-295v-112h246z" />
    <glyph glyph-name="ordmasculine" unicode="&#xba;" horiz-adv-x="590" 
d="M295 161c-148 0 -277 110 -277 264c0 155 129 263 277 263c147 0 277 -108 277 -263c0 -154 -130 -264 -277 -264zM295 317c64 0 101 47 101 108c0 60 -37 107 -101 107s-101 -47 -101 -107c0 -61 37 -108 101 -108zM295 230c111 0 198 83 198 195
c0 113 -87 194 -198 194s-198 -81 -198 -194c0 -112 87 -195 198 -195zM295 248c-101 0 -180 75 -180 177c0 103 79 176 180 176s180 -73 180 -176c0 -102 -79 -177 -180 -177z" />
    <glyph glyph-name="ae" unicode="&#xe6;" horiz-adv-x="977" 
d="M934 612h-416l-433 -612h-84l485 680h448v-68zM227 171l299 423h13v-423h-312zM457 0v96h-196l-65 -96h-90l108 153h325v-86h409v-67h-491zM948 153v-68h-391v248h328v-63h-246v-117h309zM885 415v-64h-328v243h377v-67h-295v-112h246zM351 228h106v155z" />
    <glyph glyph-name="dotlessi" unicode="&#x131;" horiz-adv-x="308" 
d="M245 0h-82v680h82v-680zM63 0v680h82v-680h-82z" />
    <glyph glyph-name="lslash" unicode="&#x142;" horiz-adv-x="564" 
d="M68 0v211l-58 -21v71l140 50v-244h389v-67h-471zM539 153v-68h-371v233l233 83v-71l-151 -54v-123h289zM401 490v-71l-233 -83v344h82v-244zM150 680v-351l-140 -50v71l58 21v309h82z" />
    <glyph glyph-name="oslash" unicode="&#xf8;" 
d="M391 61c160 0 281 118 281 279s-121 278 -281 278s-281 -117 -281 -278s121 -279 281 -279zM391 79c-150 0 -263 110 -263 261s113 260 263 260s263 -109 263 -260s-113 -261 -263 -261zM391 -9c-84 0 -163 26 -226 73l-67 -65l-58 58l65 63c-49 58 -79 134 -79 220
c0 205 169 348 365 348c84 0 162 -27 225 -73l66 64l58 -58l-63 -61c49 -59 79 -134 79 -220c0 -205 -169 -349 -365 -349zM391 149c114 0 179 84 179 191c0 35 -8 68 -21 96l-264 -256c28 -20 63 -31 106 -31zM212 340c0 -36 7 -69 20 -97l264 256c-28 19 -63 31 -105 31
c-114 0 -179 -83 -179 -190z" />
    <glyph glyph-name="oe" unicode="&#x153;" horiz-adv-x="969" 
d="M380 594h152v-509h-152c-148 0 -252 99 -252 255s104 254 252 254zM380 67h560v-67h-570c-196 0 -344 129 -344 340s148 340 344 340h556v-68h-546c-158 0 -270 -104 -270 -272s112 -273 270 -273zM451 526h-61c-110 0 -178 -73 -178 -186s68 -187 178 -187h61v373z
M940 153v-68h-390v248h327v-63h-246v-117h309zM877 415v-64h-327v243h376v-67h-295v-112h246z" />
    <glyph glyph-name="germandbls" unicode="&#xdf;" horiz-adv-x="568" 
d="M286 -10c-153 0 -240 70 -282 126l59 44c42 -55 109 -103 219 -103c123 0 181 57 181 143c0 68 -37 109 -131 140l-85 29c-59 21 -102 51 -102 119c0 75 63 116 140 116c86 0 132 -30 168 -68l-46 -48c-28 29 -63 50 -117 50c-44 0 -66 -20 -66 -47c0 -26 15 -39 48 -50
l90 -30c136 -45 182 -110 182 -206c0 -125 -78 -215 -258 -215zM282 75c-106 0 -166 46 -205 96l59 44c33 -41 74 -74 142 -74c54 0 86 16 86 54c0 29 -22 43 -67 58l-80 27c-99 33 -169 93 -169 205c0 134 111 203 232 203c124 0 186 -41 231 -91l-45 -47
c-39 41 -94 72 -181 72s-158 -47 -158 -134c0 -74 45 -113 115 -136l85 -29c79 -28 117 -61 117 -123c0 -76 -51 -125 -162 -125zM854 -10c-153 0 -240 70 -282 126l59 44c42 -55 109 -103 219 -103c123 0 181 57 181 143c0 68 -37 109 -131 140l-85 29
c-59 21 -102 51 -102 119c0 75 63 116 140 116c86 0 132 -30 168 -68l-46 -48c-28 29 -63 50 -117 50c-44 0 -66 -20 -66 -47c0 -26 15 -39 48 -50l90 -30c136 -45 182 -110 182 -206c0 -125 -78 -215 -258 -215zM850 75c-106 0 -166 46 -205 96l59 44
c33 -41 74 -74 142 -74c54 0 86 16 86 54c0 29 -22 43 -67 58l-80 27c-99 33 -169 93 -169 205c0 134 111 203 232 203c124 0 186 -41 231 -91l-45 -47c-39 41 -94 72 -181 72s-158 -47 -158 -134c0 -74 45 -113 115 -136l85 -29c79 -28 117 -61 117 -123
c0 -76 -51 -125 -162 -125z" />
    <glyph glyph-name="trademark" unicode="&#x2122;" horiz-adv-x="548" 
d="M252 452v227c0 8 5 8 11 2l115 -116l114 116c6 6 11 6 11 -2v-227h-77v66l-44 -45c-3 -3 -4 -3 -7 0l-45 45v-66h-78zM77 607h-58v73h196v-73h-56v-155h-82v155z" />
    <glyph glyph-name="Eth" unicode="&#xd0;" horiz-adv-x="688" 
d="M6 348v62h53v270h263c196 0 344 -129 344 -340s-148 -340 -344 -340h-263v269h-53v61h135v-262h171c158 0 270 104 270 272s-112 272 -270 272h-171v-264h-135zM241 526v-116h128v-62h-210v246h153c148 0 252 -98 252 -254s-104 -254 -252 -254h-153v244h210v-61h-128
v-115h61c110 0 178 73 178 186s-68 186 -178 186h-61z" />
    <glyph glyph-name="onehalf" unicode="&#xbd;" horiz-adv-x="362" 
d="M129 405v198h-52v77h149v-275h-97zM54 0c-6 0 -8 5 -3 11l102 108c29 31 42 49 42 66c0 13 -10 22 -24 22c-20 0 -31 -18 -35 -35l-82 25c17 54 59 88 127 88c77 0 112 -41 112 -89c0 -37 -22 -64 -61 -103l-19 -20h88v-73h-247zM31 308v67h301v-67h-301z" />
    <glyph glyph-name="Thorn" unicode="&#xde;" horiz-adv-x="628" 
d="M159 497h171c111 0 173 -60 173 -151c0 -90 -62 -149 -173 -149h-171v300zM241 113v-113h-82v179h171c123 0 191 67 191 167c0 101 -68 169 -191 169h-171v165h82v-98h93c173 0 269 -100 269 -236s-96 -233 -269 -233h-93zM59 0v680h82v-680h-82zM241 263h84
c62 0 95 28 95 83s-33 84 -95 84h-84v-167z" />
    <glyph glyph-name="onequarter" unicode="&#xbc;" horiz-adv-x="362" 
d="M134 405v198h-53v77h149v-275h-96zM273 114h39v-61h-39v-53h-88v53h-145v37l177 193h56v-169zM189 112v57l-52 -57h52zM31 307v67h301v-67h-301z" />
    <glyph glyph-name="divide" unicode="&#xf7;" horiz-adv-x="443" 
d="M222 58c-48 0 -91 36 -91 89s43 89 91 89c47 0 91 -36 91 -89s-44 -89 -91 -89zM222 421c-48 0 -91 36 -91 89s43 89 91 89c47 0 91 -36 91 -89s-44 -89 -91 -89zM27 403h389v-66h-389v66zM416 254h-389v65h389v-65zM208 147c0 -8 7 -14 14 -14s14 6 14 14s-7 14 -14 14
s-14 -6 -14 -14zM208 510c0 -8 7 -14 14 -14s14 6 14 14s-7 14 -14 14s-14 -6 -14 -14z" />
    <glyph glyph-name="degree" unicode="&#xb0;" horiz-adv-x="341" 
d="M171 401c-85 0 -153 65 -153 144c0 81 68 143 153 143s152 -62 152 -143c0 -79 -67 -144 -152 -144zM171 486c32 0 56 24 56 59c0 33 -24 58 -56 58c-33 0 -57 -25 -57 -58c0 -35 24 -59 57 -59z" />
    <glyph glyph-name="thorn" unicode="&#xfe;" horiz-adv-x="628" 
d="M159 497h171c111 0 173 -60 173 -151c0 -90 -62 -149 -173 -149h-171v300zM241 113v-113h-82v179h171c123 0 191 67 191 167c0 101 -68 169 -191 169h-171v165h82v-98h93c173 0 269 -100 269 -236s-96 -233 -269 -233h-93zM59 0v680h82v-680h-82zM241 263h84
c62 0 95 28 95 83s-33 84 -95 84h-84v-167z" />
    <glyph glyph-name="threequarters" unicode="&#xbe;" horiz-adv-x="362" 
d="M274 114h39v-61h-39v-53h-87v53h-146v37l178 193h55v-169zM191 112v57l-52 -57h52zM31 306v67h301v-67h-301zM180 392c-66 0 -100 29 -121 66l66 37c8 -19 24 -34 50 -34c21 0 37 14 37 36c0 25 -21 35 -43 35c-16 0 -29 -3 -42 -8c-5 -2 -9 3 -5 9l61 78h-103v69h220
c4 0 5 -4 2 -8l-73 -94c37 -9 72 -34 72 -83c0 -56 -36 -103 -121 -103z" />
    <glyph glyph-name="registered" unicode="&#xae;" horiz-adv-x="391" 
d="M195 356c-93 0 -169 70 -169 166c0 98 76 167 169 167c94 0 170 -69 170 -167c0 -96 -76 -166 -170 -166zM195 393c75 0 131 54 131 129c0 78 -56 131 -131 131s-129 -53 -129 -131c0 -75 54 -129 129 -129zM250 497l30 -62h-60l-24 51h-14v-51h-57v178h76
c47 0 77 -31 77 -62c0 -24 -9 -42 -28 -54zM182 530h18c10 0 20 4 20 18c0 12 -10 15 -20 15h-18v-33z" />
    <glyph glyph-name="minus" unicode="&#x2212;" horiz-adv-x="423" 
d="M27 403h369v-66h-369v66zM396 254h-369v65h369v-65z" />
    <glyph glyph-name="eth" unicode="&#xf0;" horiz-adv-x="688" 
d="M6 348v62h53v270h263c196 0 344 -129 344 -340s-148 -340 -344 -340h-263v269h-53v61h135v-262h171c158 0 270 104 270 272s-112 272 -270 272h-171v-264h-135zM241 526v-116h128v-62h-210v246h153c148 0 252 -98 252 -254s-104 -254 -252 -254h-153v244h210v-61h-128
v-115h61c110 0 178 73 178 186s-68 186 -178 186h-61z" />
    <glyph glyph-name="multiply" unicode="&#xd7;" horiz-adv-x="451" 
d="M24 206l98 98l-98 99l46 46l144 -144l-145 -145zM81 148l145 145l144 -144l-46 -46l-99 98l-98 -98zM427 206l-45 -45l-144 144l143 143l46 -45l-99 -99zM226 317l-144 144l45 45l98 -99l99 99l45 -46z" />
    <glyph glyph-name="copyright" unicode="&#xa9;" horiz-adv-x="758" 
d="M379 -8c-188 0 -349 147 -349 348s161 348 349 348s349 -147 349 -348s-161 -348 -349 -348zM379 61c153 0 277 118 277 279s-124 279 -277 279s-277 -118 -277 -279s124 -279 277 -279zM381 127c-117 0 -216 89 -216 213s99 215 216 215c75 0 129 -29 166 -82l-53 -43
c-26 36 -61 57 -111 57c-81 0 -145 -62 -145 -147c0 -84 64 -145 145 -145c55 0 93 25 118 60l54 -41c-36 -54 -94 -87 -174 -87zM383 469c43 0 75 -18 98 -49l-53 -43c-10 15 -23 24 -43 24c-36 0 -57 -25 -57 -61c0 -35 22 -59 57 -59c25 0 38 12 48 25l54 -41
c-21 -31 -55 -52 -104 -52c-71 0 -127 53 -127 127c0 75 56 129 127 129z" />
    <glyph glyph-name="Aacute" unicode="&#xc1;" horiz-adv-x="681" 
d="M337 553l-254 -553h-79l326 690c5 10 17 10 22 0l325 -690h-84zM175 157l162 353l163 -353h-325zM486 0l-35 79h-233l-33 -79h-82l63 139h343l64 -139h-87zM333 352l-57 -135h115zM411 722h-57l66 182h86zM278 722l40 182h84l-66 -182h-58z" />
    <glyph glyph-name="Acircumflex" unicode="&#xc2;" horiz-adv-x="681" 
d="M337 553l-254 -553h-79l326 690c5 10 17 10 22 0l325 -690h-84zM175 157l162 353l163 -353h-325zM486 0l-35 79h-233l-33 -79h-82l63 139h343l64 -139h-87zM333 352l-57 -135h115zM164 722l172 210c3 4 6 4 9 0l172 -210h-64l-112 134l-114 -134h-63zM250 722l91 105
l90 -105h-61l-29 29l-30 -29h-61z" />
    <glyph glyph-name="Adieresis" unicode="&#xc4;" horiz-adv-x="681" 
d="M337 553l-254 -553h-79l326 690c5 10 17 10 22 0l325 -690h-84zM175 157l162 353l163 -353h-325zM486 0l-35 79h-233l-33 -79h-82l63 139h343l64 -139h-87zM333 352l-57 -135h115zM244 717c-41 0 -80 35 -80 80s39 80 80 80c42 0 79 -35 79 -80s-37 -80 -79 -80zM437 717
c-41 0 -80 35 -80 80s39 80 80 80c42 0 79 -35 79 -80s-37 -80 -79 -80zM230 797c0 -8 7 -14 14 -14s14 6 14 14s-7 14 -14 14s-14 -6 -14 -14zM423 797c0 -8 7 -14 14 -14s14 6 14 14s-7 14 -14 14s-14 -6 -14 -14z" />
    <glyph glyph-name="Agrave" unicode="&#xc0;" horiz-adv-x="681" 
d="M337 553l-254 -553h-79l326 690c5 10 17 10 22 0l325 -690h-84zM175 157l162 353l163 -353h-325zM486 0l-35 79h-233l-33 -79h-82l63 139h343l64 -139h-87zM333 352l-57 -135h115zM331 722h-57l-95 182h86zM367 904l40 -182h-58l-66 182h84z" />
    <glyph glyph-name="Aring" unicode="&#xc5;" horiz-adv-x="681" 
d="M337 553l-254 -553h-79l326 690c5 10 17 10 22 0l325 -690h-84zM175 157l162 353l163 -353h-325zM486 0l-35 79h-233l-33 -79h-82l63 139h343l64 -139h-87zM333 352l-57 -135h115zM340 726c-69 0 -116 50 -116 109s47 109 116 109s116 -50 116 -109s-47 -109 -116 -109z
M340 792c23 0 42 16 42 43c0 26 -19 43 -42 43s-42 -17 -42 -43c0 -27 19 -43 42 -43z" />
    <glyph glyph-name="Atilde" unicode="&#xc3;" horiz-adv-x="681" 
d="M337 553l-254 -553h-79l326 690c5 10 17 10 22 0l325 -690h-84zM175 157l162 353l163 -353h-325zM486 0l-35 79h-233l-33 -79h-82l63 139h343l64 -139h-87zM333 352l-57 -135h115zM286 832c-42 0 -76 -37 -88 -103l-51 6c14 107 74 156 130 156c50 0 90 -36 111 -36
c17 0 22 11 28 33l50 -6c-9 -56 -39 -87 -69 -87c-39 0 -75 37 -111 37zM405 718c-50 0 -90 36 -111 36c-17 0 -22 -11 -28 -33l-50 6c9 56 38 87 70 87c35 0 71 -37 111 -37c39 0 76 37 86 103l52 -6c-13 -105 -74 -156 -130 -156z" />
    <glyph glyph-name="Ccedilla" unicode="&#xc7;" horiz-adv-x="690" 
d="M372 -222c-59 0 -95 19 -119 57l68 45c7 -12 18 -23 35 -23c15 0 28 6 28 24c0 16 -11 25 -34 25h-34v91c-162 27 -290 161 -290 343c0 205 162 348 344 348c147 0 237 -62 294 -146l-61 -42c-43 65 -112 118 -231 118c-146 0 -262 -117 -262 -278s117 -279 270 -279
c116 0 186 46 236 132l63 -40c-65 -109 -154 -158 -284 -162v-22c46 -7 83 -41 83 -97c0 -59 -55 -94 -106 -94zM372 600c111 0 176 -49 216 -109l-61 -42c-26 40 -68 81 -154 81c-100 0 -161 -83 -161 -190s63 -191 167 -191c88 0 131 40 160 94l62 -40
c-46 -82 -113 -124 -221 -124c-143 0 -252 110 -252 261s108 260 244 260z" />
    <glyph glyph-name="Eacute" unicode="&#xc9;" horiz-adv-x="579" 
d="M59 0v680h477v-68h-395v-545h409v-67h-491zM550 153v-68h-391v248h328v-63h-246v-117h309zM487 415v-64h-328v243h377v-67h-295v-112h246zM377 722h-57l66 182h86zM244 722l40 182h84l-66 -182h-58z" />
    <glyph glyph-name="Ecircumflex" unicode="&#xca;" horiz-adv-x="579" 
d="M59 0v680h477v-68h-395v-545h409v-67h-491zM550 153v-68h-391v248h328v-63h-246v-117h309zM487 415v-64h-328v243h377v-67h-295v-112h246zM130 722l172 210c3 4 6 4 9 0l172 -210h-64l-112 134l-114 -134h-63zM216 722l91 105l90 -105h-61l-29 29l-30 -29h-61z" />
    <glyph glyph-name="Edieresis" unicode="&#xcb;" horiz-adv-x="579" 
d="M59 0v680h477v-68h-395v-545h409v-67h-491zM550 153v-68h-391v248h328v-63h-246v-117h309zM487 415v-64h-328v243h377v-67h-295v-112h246zM210 717c-41 0 -80 35 -80 80s39 80 80 80c42 0 79 -35 79 -80s-37 -80 -79 -80zM403 717c-41 0 -80 35 -80 80s39 80 80 80
c42 0 79 -35 79 -80s-37 -80 -79 -80zM196 797c0 -8 7 -14 14 -14s14 6 14 14s-7 14 -14 14s-14 -6 -14 -14zM389 797c0 -8 7 -14 14 -14s14 6 14 14s-7 14 -14 14s-14 -6 -14 -14z" />
    <glyph glyph-name="Egrave" unicode="&#xc8;" horiz-adv-x="579" 
d="M59 0v680h477v-68h-395v-545h409v-67h-491zM550 153v-68h-391v248h328v-63h-246v-117h309zM487 415v-64h-328v243h377v-67h-295v-112h246zM297 722h-57l-95 182h86zM333 904l40 -182h-58l-66 182h84z" />
    <glyph glyph-name="Iacute" unicode="&#xcd;" horiz-adv-x="308" 
d="M245 0h-82v680h82v-680zM63 0v680h82v-680h-82zM225 722h-57l66 182h86zM92 722l40 182h84l-66 -182h-58z" />
    <glyph glyph-name="Icircumflex" unicode="&#xce;" horiz-adv-x="308" 
d="M245 0h-82v680h82v-680zM63 0v680h82v-680h-82zM-22 722l172 210c3 4 6 4 9 0l172 -210h-64l-112 134l-114 -134h-63zM64 722l91 105l90 -105h-61l-29 29l-30 -29h-61z" />
    <glyph glyph-name="Idieresis" unicode="&#xcf;" horiz-adv-x="308" 
d="M245 0h-82v680h82v-680zM63 0v680h82v-680h-82zM58 717c-41 0 -80 35 -80 80s39 80 80 80c42 0 79 -35 79 -80s-37 -80 -79 -80zM251 717c-41 0 -80 35 -80 80s39 80 80 80c42 0 79 -35 79 -80s-37 -80 -79 -80zM44 797c0 -8 7 -14 14 -14s14 6 14 14s-7 14 -14 14
s-14 -6 -14 -14zM237 797c0 -8 7 -14 14 -14s14 6 14 14s-7 14 -14 14s-14 -6 -14 -14z" />
    <glyph glyph-name="Igrave" unicode="&#xcc;" horiz-adv-x="308" 
d="M245 0h-82v680h82v-680zM63 0v680h82v-680h-82zM145 722h-57l-95 182h86zM181 904l40 -182h-58l-66 182h84z" />
    <glyph glyph-name="Ntilde" unicode="&#xd1;" horiz-adv-x="730" 
d="M135 540v-540h-76v689c0 6 3 11 14 2l429 -355v344h76v-503zM657 -12l-429 354v-342h-75v502l443 -363v541h75v-690c0 -8 -3 -11 -14 -2zM300 832c-42 0 -76 -37 -88 -103l-51 6c14 107 74 156 130 156c50 0 90 -36 111 -36c17 0 22 11 28 33l50 -6
c-9 -56 -39 -87 -69 -87c-39 0 -75 37 -111 37zM419 718c-50 0 -90 36 -111 36c-17 0 -22 -11 -28 -33l-50 6c9 56 38 87 70 87c35 0 71 -37 111 -37c39 0 76 37 86 103l52 -6c-13 -105 -74 -156 -130 -156z" />
    <glyph glyph-name="Oacute" unicode="&#xd3;" 
d="M391 61c160 0 281 118 281 279s-121 278 -281 278s-281 -117 -281 -278s121 -279 281 -279zM391 79c-150 0 -263 110 -263 261s113 260 263 260s263 -109 263 -260s-113 -261 -263 -261zM391 -9c-196 0 -365 144 -365 349s169 348 365 348s365 -143 365 -348
s-169 -349 -365 -349zM391 149c114 0 179 84 179 191s-65 190 -179 190s-179 -83 -179 -190s65 -191 179 -191zM462 722h-57l66 182h86zM329 722l40 182h84l-66 -182h-58z" />
    <glyph glyph-name="Ocircumflex" unicode="&#xd4;" 
d="M391 61c160 0 281 118 281 279s-121 278 -281 278s-281 -117 -281 -278s121 -279 281 -279zM391 79c-150 0 -263 110 -263 261s113 260 263 260s263 -109 263 -260s-113 -261 -263 -261zM391 -9c-196 0 -365 144 -365 349s169 348 365 348s365 -143 365 -348
s-169 -349 -365 -349zM391 149c114 0 179 84 179 191s-65 190 -179 190s-179 -83 -179 -190s65 -191 179 -191zM215 722l172 210c3 4 6 4 9 0l172 -210h-64l-112 134l-114 -134h-63zM301 722l91 105l90 -105h-61l-29 29l-30 -29h-61z" />
    <glyph glyph-name="Odieresis" unicode="&#xd6;" 
d="M391 61c160 0 281 118 281 279s-121 278 -281 278s-281 -117 -281 -278s121 -279 281 -279zM391 79c-150 0 -263 110 -263 261s113 260 263 260s263 -109 263 -260s-113 -261 -263 -261zM391 -9c-196 0 -365 144 -365 349s169 348 365 348s365 -143 365 -348
s-169 -349 -365 -349zM391 149c114 0 179 84 179 191s-65 190 -179 190s-179 -83 -179 -190s65 -191 179 -191zM295 717c-41 0 -80 35 -80 80s39 80 80 80c42 0 79 -35 79 -80s-37 -80 -79 -80zM488 717c-41 0 -80 35 -80 80s39 80 80 80c42 0 79 -35 79 -80
s-37 -80 -79 -80zM281 797c0 -8 7 -14 14 -14s14 6 14 14s-7 14 -14 14s-14 -6 -14 -14zM474 797c0 -8 7 -14 14 -14s14 6 14 14s-7 14 -14 14s-14 -6 -14 -14z" />
    <glyph glyph-name="Ograve" unicode="&#xd2;" 
d="M391 61c160 0 281 118 281 279s-121 278 -281 278s-281 -117 -281 -278s121 -279 281 -279zM391 79c-150 0 -263 110 -263 261s113 260 263 260s263 -109 263 -260s-113 -261 -263 -261zM391 -9c-196 0 -365 144 -365 349s169 348 365 348s365 -143 365 -348
s-169 -349 -365 -349zM391 149c114 0 179 84 179 191s-65 190 -179 190s-179 -83 -179 -190s65 -191 179 -191zM382 722h-57l-95 182h86zM418 904l40 -182h-58l-66 182h84z" />
    <glyph glyph-name="Otilde" unicode="&#xd5;" 
d="M391 61c160 0 281 118 281 279s-121 278 -281 278s-281 -117 -281 -278s121 -279 281 -279zM391 79c-150 0 -263 110 -263 261s113 260 263 260s263 -109 263 -260s-113 -261 -263 -261zM391 -9c-196 0 -365 144 -365 349s169 348 365 348s365 -143 365 -348
s-169 -349 -365 -349zM391 149c114 0 179 84 179 191s-65 190 -179 190s-179 -83 -179 -190s65 -191 179 -191zM337 832c-42 0 -76 -37 -88 -103l-51 6c14 107 74 156 130 156c50 0 90 -36 111 -36c17 0 22 11 28 33l50 -6c-9 -56 -39 -87 -69 -87c-39 0 -75 37 -111 37z
M456 718c-50 0 -90 36 -111 36c-17 0 -22 -11 -28 -33l-50 6c9 56 38 87 70 87c35 0 71 -37 111 -37c39 0 76 37 86 103l52 -6c-13 -105 -74 -156 -130 -156z" />
    <glyph glyph-name="Scaron" unicode="&#x160;" horiz-adv-x="568" 
d="M286 -10c-153 0 -240 70 -282 126l59 44c42 -55 109 -103 219 -103c123 0 181 57 181 143c0 68 -37 109 -131 140l-85 29c-59 21 -102 51 -102 119c0 75 63 116 140 116c86 0 132 -30 168 -68l-46 -48c-28 29 -63 50 -117 50c-44 0 -66 -20 -66 -47c0 -26 15 -39 48 -50
l90 -30c136 -45 182 -110 182 -206c0 -125 -78 -215 -258 -215zM282 75c-106 0 -166 46 -205 96l59 44c33 -41 74 -74 142 -74c54 0 86 16 86 54c0 29 -22 43 -67 58l-80 27c-99 33 -169 93 -169 205c0 134 111 203 232 203c124 0 186 -41 231 -91l-45 -47
c-39 41 -94 72 -181 72s-158 -47 -158 -134c0 -74 45 -113 115 -136l85 -29c79 -28 117 -61 117 -123c0 -76 -51 -125 -162 -125zM461 923l-172 -210c-3 -4 -6 -4 -9 0l-172 210h64l112 -134l114 134h63zM375 923l-91 -105l-90 105h61l29 -29l30 29h61z" />
    <glyph glyph-name="Uacute" unicode="&#xda;" horiz-adv-x="694" 
d="M347 -10c-170 0 -295 90 -295 273v417h82v-416c0 -135 85 -203 213 -203c129 0 213 68 213 203v416h82v-417c0 -183 -125 -273 -295 -273zM347 79c-118 0 -195 62 -195 185v416h82v-415c0 -74 36 -116 113 -116s113 42 113 116v415h82v-416c0 -123 -76 -185 -195 -185z
M418 722h-57l66 182h86zM285 722l40 182h84l-66 -182h-58z" />
    <glyph glyph-name="Ucircumflex" unicode="&#xdb;" horiz-adv-x="694" 
d="M347 -10c-170 0 -295 90 -295 273v417h82v-416c0 -135 85 -203 213 -203c129 0 213 68 213 203v416h82v-417c0 -183 -125 -273 -295 -273zM347 79c-118 0 -195 62 -195 185v416h82v-415c0 -74 36 -116 113 -116s113 42 113 116v415h82v-416c0 -123 -76 -185 -195 -185z
M171 722l172 210c3 4 6 4 9 0l172 -210h-64l-112 134l-114 -134h-63zM257 722l91 105l90 -105h-61l-29 29l-30 -29h-61z" />
    <glyph glyph-name="Udieresis" unicode="&#xdc;" horiz-adv-x="694" 
d="M347 -10c-170 0 -295 90 -295 273v417h82v-416c0 -135 85 -203 213 -203c129 0 213 68 213 203v416h82v-417c0 -183 -125 -273 -295 -273zM347 79c-118 0 -195 62 -195 185v416h82v-415c0 -74 36 -116 113 -116s113 42 113 116v415h82v-416c0 -123 -76 -185 -195 -185z
M251 717c-41 0 -80 35 -80 80s39 80 80 80c42 0 79 -35 79 -80s-37 -80 -79 -80zM444 717c-41 0 -80 35 -80 80s39 80 80 80c42 0 79 -35 79 -80s-37 -80 -79 -80zM237 797c0 -8 7 -14 14 -14s14 6 14 14s-7 14 -14 14s-14 -6 -14 -14zM430 797c0 -8 7 -14 14 -14
s14 6 14 14s-7 14 -14 14s-14 -6 -14 -14z" />
    <glyph glyph-name="Ugrave" unicode="&#xd9;" horiz-adv-x="694" 
d="M347 -10c-170 0 -295 90 -295 273v417h82v-416c0 -135 85 -203 213 -203c129 0 213 68 213 203v416h82v-417c0 -183 -125 -273 -295 -273zM347 79c-118 0 -195 62 -195 185v416h82v-415c0 -74 36 -116 113 -116s113 42 113 116v415h82v-416c0 -123 -76 -185 -195 -185z
M338 722h-57l-95 182h86zM374 904l40 -182h-58l-66 182h84z" />
    <glyph glyph-name="Yacute" unicode="&#xdd;" horiz-adv-x="666" 
d="M244 263l-240 417h89l233 -412v-268h-82v263zM426 0h-82v267l233 413h85l-236 -412v-268zM338 431l133 249h86l-221 -394l-222 394h90zM408 722h-57l66 182h86zM275 722l40 182h84l-66 -182h-58z" />
    <glyph glyph-name="Ydieresis" unicode="&#x178;" horiz-adv-x="666" 
d="M244 263l-240 417h89l233 -412v-268h-82v263zM426 0h-82v267l233 413h85l-236 -412v-268zM338 431l133 249h86l-221 -394l-222 394h90zM241 717c-41 0 -80 35 -80 80s39 80 80 80c42 0 79 -35 79 -80s-37 -80 -79 -80zM434 717c-41 0 -80 35 -80 80s39 80 80 80
c42 0 79 -35 79 -80s-37 -80 -79 -80zM227 797c0 -8 7 -14 14 -14s14 6 14 14s-7 14 -14 14s-14 -6 -14 -14zM420 797c0 -8 7 -14 14 -14s14 6 14 14s-7 14 -14 14s-14 -6 -14 -14z" />
    <glyph glyph-name="Zcaron" unicode="&#x17d;" horiz-adv-x="613" 
d="M14 0c-6 0 -8 2 -3 10l303 517h-252v68h377l-306 -527h436v-68h-555zM472 613h-410v67h529c6 0 8 -2 3 -10l-303 -517h278v-67h-403zM497 923l-172 -210c-3 -4 -6 -4 -9 0l-172 210h64l112 -134l114 134h63zM411 923l-91 -105l-90 105h61l29 -29l30 29h61z" />
    <glyph glyph-name="aacute" unicode="&#xe1;" horiz-adv-x="681" 
d="M337 553l-254 -553h-79l326 690c5 10 17 10 22 0l325 -690h-84zM175 157l162 353l163 -353h-325zM486 0l-35 79h-233l-33 -79h-82l63 139h343l64 -139h-87zM333 352l-57 -135h115zM411 722h-57l66 182h86zM278 722l40 182h84l-66 -182h-58z" />
    <glyph glyph-name="acircumflex" unicode="&#xe2;" horiz-adv-x="681" 
d="M337 553l-254 -553h-79l326 690c5 10 17 10 22 0l325 -690h-84zM175 157l162 353l163 -353h-325zM486 0l-35 79h-233l-33 -79h-82l63 139h343l64 -139h-87zM333 352l-57 -135h115zM164 722l172 210c3 4 6 4 9 0l172 -210h-64l-112 134l-114 -134h-63zM250 722l91 105
l90 -105h-61l-29 29l-30 -29h-61z" />
    <glyph glyph-name="adieresis" unicode="&#xe4;" horiz-adv-x="681" 
d="M337 553l-254 -553h-79l326 690c5 10 17 10 22 0l325 -690h-84zM175 157l162 353l163 -353h-325zM486 0l-35 79h-233l-33 -79h-82l63 139h343l64 -139h-87zM333 352l-57 -135h115zM244 717c-41 0 -80 35 -80 80s39 80 80 80c42 0 79 -35 79 -80s-37 -80 -79 -80zM437 717
c-41 0 -80 35 -80 80s39 80 80 80c42 0 79 -35 79 -80s-37 -80 -79 -80zM230 797c0 -8 7 -14 14 -14s14 6 14 14s-7 14 -14 14s-14 -6 -14 -14zM423 797c0 -8 7 -14 14 -14s14 6 14 14s-7 14 -14 14s-14 -6 -14 -14z" />
    <glyph glyph-name="agrave" unicode="&#xe0;" horiz-adv-x="681" 
d="M337 553l-254 -553h-79l326 690c5 10 17 10 22 0l325 -690h-84zM175 157l162 353l163 -353h-325zM486 0l-35 79h-233l-33 -79h-82l63 139h343l64 -139h-87zM333 352l-57 -135h115zM331 722h-57l-95 182h86zM367 904l40 -182h-58l-66 182h84z" />
    <glyph glyph-name="aring" unicode="&#xe5;" horiz-adv-x="681" 
d="M337 553l-254 -553h-79l326 690c5 10 17 10 22 0l325 -690h-84zM175 157l162 353l163 -353h-325zM486 0l-35 79h-233l-33 -79h-82l63 139h343l64 -139h-87zM333 352l-57 -135h115zM340 726c-69 0 -116 50 -116 109s47 109 116 109s116 -50 116 -109s-47 -109 -116 -109z
M340 792c23 0 42 16 42 43c0 26 -19 43 -42 43s-42 -17 -42 -43c0 -27 19 -43 42 -43z" />
    <glyph glyph-name="atilde" unicode="&#xe3;" horiz-adv-x="681" 
d="M337 553l-254 -553h-79l326 690c5 10 17 10 22 0l325 -690h-84zM175 157l162 353l163 -353h-325zM486 0l-35 79h-233l-33 -79h-82l63 139h343l64 -139h-87zM333 352l-57 -135h115zM286 832c-42 0 -76 -37 -88 -103l-51 6c14 107 74 156 130 156c50 0 90 -36 111 -36
c17 0 22 11 28 33l50 -6c-9 -56 -39 -87 -69 -87c-39 0 -75 37 -111 37zM405 718c-50 0 -90 36 -111 36c-17 0 -22 -11 -28 -33l-50 6c9 56 38 87 70 87c35 0 71 -37 111 -37c39 0 76 37 86 103l52 -6c-13 -105 -74 -156 -130 -156z" />
    <glyph glyph-name="ccedilla" unicode="&#xe7;" horiz-adv-x="690" 
d="M372 -222c-59 0 -95 19 -119 57l68 45c7 -12 18 -23 35 -23c15 0 28 6 28 24c0 16 -11 25 -34 25h-34v91c-162 27 -290 161 -290 343c0 205 162 348 344 348c147 0 237 -62 294 -146l-61 -42c-43 65 -112 118 -231 118c-146 0 -262 -117 -262 -278s117 -279 270 -279
c116 0 186 46 236 132l63 -40c-65 -109 -154 -158 -284 -162v-22c46 -7 83 -41 83 -97c0 -59 -55 -94 -106 -94zM372 600c111 0 176 -49 216 -109l-61 -42c-26 40 -68 81 -154 81c-100 0 -161 -83 -161 -190s63 -191 167 -191c88 0 131 40 160 94l62 -40
c-46 -82 -113 -124 -221 -124c-143 0 -252 110 -252 261s108 260 244 260z" />
    <glyph glyph-name="eacute" unicode="&#xe9;" horiz-adv-x="579" 
d="M59 0v680h477v-68h-395v-545h409v-67h-491zM550 153v-68h-391v248h328v-63h-246v-117h309zM487 415v-64h-328v243h377v-67h-295v-112h246zM377 722h-57l66 182h86zM244 722l40 182h84l-66 -182h-58z" />
    <glyph glyph-name="ecircumflex" unicode="&#xea;" horiz-adv-x="579" 
d="M59 0v680h477v-68h-395v-545h409v-67h-491zM550 153v-68h-391v248h328v-63h-246v-117h309zM487 415v-64h-328v243h377v-67h-295v-112h246zM130 722l172 210c3 4 6 4 9 0l172 -210h-64l-112 134l-114 -134h-63zM216 722l91 105l90 -105h-61l-29 29l-30 -29h-61z" />
    <glyph glyph-name="edieresis" unicode="&#xeb;" horiz-adv-x="579" 
d="M59 0v680h477v-68h-395v-545h409v-67h-491zM550 153v-68h-391v248h328v-63h-246v-117h309zM487 415v-64h-328v243h377v-67h-295v-112h246zM210 717c-41 0 -80 35 -80 80s39 80 80 80c42 0 79 -35 79 -80s-37 -80 -79 -80zM403 717c-41 0 -80 35 -80 80s39 80 80 80
c42 0 79 -35 79 -80s-37 -80 -79 -80zM196 797c0 -8 7 -14 14 -14s14 6 14 14s-7 14 -14 14s-14 -6 -14 -14zM389 797c0 -8 7 -14 14 -14s14 6 14 14s-7 14 -14 14s-14 -6 -14 -14z" />
    <glyph glyph-name="egrave" unicode="&#xe8;" horiz-adv-x="579" 
d="M59 0v680h477v-68h-395v-545h409v-67h-491zM550 153v-68h-391v248h328v-63h-246v-117h309zM487 415v-64h-328v243h377v-67h-295v-112h246zM297 722h-57l-95 182h86zM333 904l40 -182h-58l-66 182h84z" />
    <glyph glyph-name="iacute" unicode="&#xed;" horiz-adv-x="308" 
d="M245 0h-82v680h82v-680zM63 0v680h82v-680h-82zM225 722h-57l66 182h86zM92 722l40 182h84l-66 -182h-58z" />
    <glyph glyph-name="icircumflex" unicode="&#xee;" horiz-adv-x="308" 
d="M245 0h-82v680h82v-680zM63 0v680h82v-680h-82zM-22 722l172 210c3 4 6 4 9 0l172 -210h-64l-112 134l-114 -134h-63zM64 722l91 105l90 -105h-61l-29 29l-30 -29h-61z" />
    <glyph glyph-name="idieresis" unicode="&#xef;" horiz-adv-x="308" 
d="M245 0h-82v680h82v-680zM63 0v680h82v-680h-82zM58 717c-41 0 -80 35 -80 80s39 80 80 80c42 0 79 -35 79 -80s-37 -80 -79 -80zM251 717c-41 0 -80 35 -80 80s39 80 80 80c42 0 79 -35 79 -80s-37 -80 -79 -80zM44 797c0 -8 7 -14 14 -14s14 6 14 14s-7 14 -14 14
s-14 -6 -14 -14zM237 797c0 -8 7 -14 14 -14s14 6 14 14s-7 14 -14 14s-14 -6 -14 -14z" />
    <glyph glyph-name="igrave" unicode="&#xec;" horiz-adv-x="308" 
d="M245 0h-82v680h82v-680zM63 0v680h82v-680h-82zM145 722h-57l-95 182h86zM181 904l40 -182h-58l-66 182h84z" />
    <glyph glyph-name="ntilde" unicode="&#xf1;" horiz-adv-x="730" 
d="M135 540v-540h-76v689c0 6 3 11 14 2l429 -355v344h76v-503zM657 -12l-429 354v-342h-75v502l443 -363v541h75v-690c0 -8 -3 -11 -14 -2zM300 832c-42 0 -76 -37 -88 -103l-51 6c14 107 74 156 130 156c50 0 90 -36 111 -36c17 0 22 11 28 33l50 -6
c-9 -56 -39 -87 -69 -87c-39 0 -75 37 -111 37zM419 718c-50 0 -90 36 -111 36c-17 0 -22 -11 -28 -33l-50 6c9 56 38 87 70 87c35 0 71 -37 111 -37c39 0 76 37 86 103l52 -6c-13 -105 -74 -156 -130 -156z" />
    <glyph glyph-name="oacute" unicode="&#xf3;" 
d="M391 61c160 0 281 118 281 279s-121 278 -281 278s-281 -117 -281 -278s121 -279 281 -279zM391 79c-150 0 -263 110 -263 261s113 260 263 260s263 -109 263 -260s-113 -261 -263 -261zM391 -9c-196 0 -365 144 -365 349s169 348 365 348s365 -143 365 -348
s-169 -349 -365 -349zM391 149c114 0 179 84 179 191s-65 190 -179 190s-179 -83 -179 -190s65 -191 179 -191zM462 722h-57l66 182h86zM329 722l40 182h84l-66 -182h-58z" />
    <glyph glyph-name="ocircumflex" unicode="&#xf4;" 
d="M391 61c160 0 281 118 281 279s-121 278 -281 278s-281 -117 -281 -278s121 -279 281 -279zM391 79c-150 0 -263 110 -263 261s113 260 263 260s263 -109 263 -260s-113 -261 -263 -261zM391 -9c-196 0 -365 144 -365 349s169 348 365 348s365 -143 365 -348
s-169 -349 -365 -349zM391 149c114 0 179 84 179 191s-65 190 -179 190s-179 -83 -179 -190s65 -191 179 -191zM215 722l172 210c3 4 6 4 9 0l172 -210h-64l-112 134l-114 -134h-63zM301 722l91 105l90 -105h-61l-29 29l-30 -29h-61z" />
    <glyph glyph-name="odieresis" unicode="&#xf6;" 
d="M391 61c160 0 281 118 281 279s-121 278 -281 278s-281 -117 -281 -278s121 -279 281 -279zM391 79c-150 0 -263 110 -263 261s113 260 263 260s263 -109 263 -260s-113 -261 -263 -261zM391 -9c-196 0 -365 144 -365 349s169 348 365 348s365 -143 365 -348
s-169 -349 -365 -349zM391 149c114 0 179 84 179 191s-65 190 -179 190s-179 -83 -179 -190s65 -191 179 -191zM295 717c-41 0 -80 35 -80 80s39 80 80 80c42 0 79 -35 79 -80s-37 -80 -79 -80zM488 717c-41 0 -80 35 -80 80s39 80 80 80c42 0 79 -35 79 -80
s-37 -80 -79 -80zM281 797c0 -8 7 -14 14 -14s14 6 14 14s-7 14 -14 14s-14 -6 -14 -14zM474 797c0 -8 7 -14 14 -14s14 6 14 14s-7 14 -14 14s-14 -6 -14 -14z" />
    <glyph glyph-name="ograve" unicode="&#xf2;" 
d="M391 61c160 0 281 118 281 279s-121 278 -281 278s-281 -117 -281 -278s121 -279 281 -279zM391 79c-150 0 -263 110 -263 261s113 260 263 260s263 -109 263 -260s-113 -261 -263 -261zM391 -9c-196 0 -365 144 -365 349s169 348 365 348s365 -143 365 -348
s-169 -349 -365 -349zM391 149c114 0 179 84 179 191s-65 190 -179 190s-179 -83 -179 -190s65 -191 179 -191zM382 722h-57l-95 182h86zM418 904l40 -182h-58l-66 182h84z" />
    <glyph glyph-name="otilde" unicode="&#xf5;" 
d="M391 61c160 0 281 118 281 279s-121 278 -281 278s-281 -117 -281 -278s121 -279 281 -279zM391 79c-150 0 -263 110 -263 261s113 260 263 260s263 -109 263 -260s-113 -261 -263 -261zM391 -9c-196 0 -365 144 -365 349s169 348 365 348s365 -143 365 -348
s-169 -349 -365 -349zM391 149c114 0 179 84 179 191s-65 190 -179 190s-179 -83 -179 -190s65 -191 179 -191zM337 832c-42 0 -76 -37 -88 -103l-51 6c14 107 74 156 130 156c50 0 90 -36 111 -36c17 0 22 11 28 33l50 -6c-9 -56 -39 -87 -69 -87c-39 0 -75 37 -111 37z
M456 718c-50 0 -90 36 -111 36c-17 0 -22 -11 -28 -33l-50 6c9 56 38 87 70 87c35 0 71 -37 111 -37c39 0 76 37 86 103l52 -6c-13 -105 -74 -156 -130 -156z" />
    <glyph glyph-name="scaron" unicode="&#x161;" horiz-adv-x="568" 
d="M286 -10c-153 0 -240 70 -282 126l59 44c42 -55 109 -103 219 -103c123 0 181 57 181 143c0 68 -37 109 -131 140l-85 29c-59 21 -102 51 -102 119c0 75 63 116 140 116c86 0 132 -30 168 -68l-46 -48c-28 29 -63 50 -117 50c-44 0 -66 -20 -66 -47c0 -26 15 -39 48 -50
l90 -30c136 -45 182 -110 182 -206c0 -125 -78 -215 -258 -215zM282 75c-106 0 -166 46 -205 96l59 44c33 -41 74 -74 142 -74c54 0 86 16 86 54c0 29 -22 43 -67 58l-80 27c-99 33 -169 93 -169 205c0 134 111 203 232 203c124 0 186 -41 231 -91l-45 -47
c-39 41 -94 72 -181 72s-158 -47 -158 -134c0 -74 45 -113 115 -136l85 -29c79 -28 117 -61 117 -123c0 -76 -51 -125 -162 -125zM461 923l-172 -210c-3 -4 -6 -4 -9 0l-172 210h64l112 -134l114 134h63zM375 923l-91 -105l-90 105h61l29 -29l30 29h61z" />
    <glyph glyph-name="uacute" unicode="&#xfa;" horiz-adv-x="694" 
d="M347 -10c-170 0 -295 90 -295 273v417h82v-416c0 -135 85 -203 213 -203c129 0 213 68 213 203v416h82v-417c0 -183 -125 -273 -295 -273zM347 79c-118 0 -195 62 -195 185v416h82v-415c0 -74 36 -116 113 -116s113 42 113 116v415h82v-416c0 -123 -76 -185 -195 -185z
M418 722h-57l66 182h86zM285 722l40 182h84l-66 -182h-58z" />
    <glyph glyph-name="ucircumflex" unicode="&#xfb;" horiz-adv-x="694" 
d="M347 -10c-170 0 -295 90 -295 273v417h82v-416c0 -135 85 -203 213 -203c129 0 213 68 213 203v416h82v-417c0 -183 -125 -273 -295 -273zM347 79c-118 0 -195 62 -195 185v416h82v-415c0 -74 36 -116 113 -116s113 42 113 116v415h82v-416c0 -123 -76 -185 -195 -185z
M171 722l172 210c3 4 6 4 9 0l172 -210h-64l-112 134l-114 -134h-63zM257 722l91 105l90 -105h-61l-29 29l-30 -29h-61z" />
    <glyph glyph-name="udieresis" unicode="&#xfc;" horiz-adv-x="694" 
d="M347 -10c-170 0 -295 90 -295 273v417h82v-416c0 -135 85 -203 213 -203c129 0 213 68 213 203v416h82v-417c0 -183 -125 -273 -295 -273zM347 79c-118 0 -195 62 -195 185v416h82v-415c0 -74 36 -116 113 -116s113 42 113 116v415h82v-416c0 -123 -76 -185 -195 -185z
M251 717c-41 0 -80 35 -80 80s39 80 80 80c42 0 79 -35 79 -80s-37 -80 -79 -80zM444 717c-41 0 -80 35 -80 80s39 80 80 80c42 0 79 -35 79 -80s-37 -80 -79 -80zM237 797c0 -8 7 -14 14 -14s14 6 14 14s-7 14 -14 14s-14 -6 -14 -14zM430 797c0 -8 7 -14 14 -14
s14 6 14 14s-7 14 -14 14s-14 -6 -14 -14z" />
    <glyph glyph-name="ugrave" unicode="&#xf9;" horiz-adv-x="694" 
d="M347 -10c-170 0 -295 90 -295 273v417h82v-416c0 -135 85 -203 213 -203c129 0 213 68 213 203v416h82v-417c0 -183 -125 -273 -295 -273zM347 79c-118 0 -195 62 -195 185v416h82v-415c0 -74 36 -116 113 -116s113 42 113 116v415h82v-416c0 -123 -76 -185 -195 -185z
M338 722h-57l-95 182h86zM374 904l40 -182h-58l-66 182h84z" />
    <glyph glyph-name="yacute" unicode="&#xfd;" horiz-adv-x="666" 
d="M244 263l-240 417h89l233 -412v-268h-82v263zM426 0h-82v267l233 413h85l-236 -412v-268zM338 431l133 249h86l-221 -394l-222 394h90zM408 722h-57l66 182h86zM275 722l40 182h84l-66 -182h-58z" />
    <glyph glyph-name="ydieresis" unicode="&#xff;" horiz-adv-x="666" 
d="M244 263l-240 417h89l233 -412v-268h-82v263zM426 0h-82v267l233 413h85l-236 -412v-268zM338 431l133 249h86l-221 -394l-222 394h90zM241 717c-41 0 -80 35 -80 80s39 80 80 80c42 0 79 -35 79 -80s-37 -80 -79 -80zM434 717c-41 0 -80 35 -80 80s39 80 80 80
c42 0 79 -35 79 -80s-37 -80 -79 -80zM227 797c0 -8 7 -14 14 -14s14 6 14 14s-7 14 -14 14s-14 -6 -14 -14zM420 797c0 -8 7 -14 14 -14s14 6 14 14s-7 14 -14 14s-14 -6 -14 -14z" />
    <glyph glyph-name="zcaron" unicode="&#x17e;" horiz-adv-x="613" 
d="M14 0c-6 0 -8 2 -3 10l303 517h-252v68h377l-306 -527h436v-68h-555zM472 613h-410v67h529c6 0 8 -2 3 -10l-303 -517h278v-67h-403zM497 923l-172 -210c-3 -4 -6 -4 -9 0l-172 210h64l112 -134l114 134h63zM411 923l-91 -105l-90 105h61l29 -29l30 29h61z" />
    <glyph glyph-name="summation" unicode="&#x2211;" horiz-adv-x="608" 
d="M355 347l-204 -279h424v-68h-553c-5 0 -7 4 -2 10l243 333l-248 327c-4 5 -3 10 2 10h540v-67h-408zM329 527l138 -172c2 -3 2 -7 0 -10l-145 -192h253v-67h-386l191 262l-192 247h369v-68h-228z" />
    <glyph glyph-name="Euro" unicode="&#x20ac;" horiz-adv-x="764" 
d="M690 193l63 -40c-67 -113 -161 -162 -298 -162c-154 0 -295 98 -339 249h-66v78h53c-1 14 -1 27 -1 34h-52v78h63c39 155 177 258 332 258c149 0 235 -60 293 -146l-60 -41c-44 66 -114 117 -232 117c-146 0 -262 -117 -262 -278s117 -279 270 -279c115 0 186 45 236 132
zM454 79c-143 0 -252 110 -252 261s108 260 244 260c109 0 175 -47 216 -109l-61 -42c-25 42 -66 81 -154 81c-69 0 -121 -40 -147 -100h212v-78h-229c0 -8 0 -27 1 -34h228v-78h-207c28 -55 80 -91 148 -91c88 0 131 40 160 94l62 -40c-46 -82 -114 -124 -221 -124z" />
    <glyph glyph-name="space_uni0326" horiz-adv-x="500" 
d="M186 -267l24 74c-22 11 -42 35 -42 71c0 46 39 78 80 78s79 -31 79 -77c0 -28 -11 -48 -35 -83l-43 -63h-63zM235 -124c0 -7 6 -13 13 -13s13 6 13 13s-6 13 -13 13s-13 -6 -13 -13z" />
    <glyph glyph-name="uni0237" unicode="&#x237;" horiz-adv-x="486" 
d="M432 680v-489c0 -128 -77 -201 -208 -201c-115 0 -183 47 -218 113l63 40c25 -48 69 -84 145 -84c86 0 136 48 136 139v482h82zM84 153l62 40c14 -24 26 -47 57 -47c29 0 47 16 47 58v476h82v-482c0 -79 -44 -121 -118 -121c-69 0 -108 33 -130 76z" />
    <glyph glyph-name="Dcroat" unicode="&#x110;" horiz-adv-x="688" 
d="M6 348v62h53v270h263c196 0 344 -129 344 -340s-148 -340 -344 -340h-263v269h-53v61h135v-262h171c158 0 270 104 270 272s-112 272 -270 272h-171v-264h-135zM241 526v-116h128v-62h-210v246h153c148 0 252 -98 252 -254s-104 -254 -252 -254h-153v244h210v-61h-128
v-115h61c110 0 178 73 178 186s-68 186 -178 186h-61z" />
    <glyph glyph-name="dcroat" unicode="&#x111;" horiz-adv-x="688" 
d="M6 348v62h53v270h263c196 0 344 -129 344 -340s-148 -340 -344 -340h-263v269h-53v61h135v-262h171c158 0 270 104 270 272s-112 272 -270 272h-171v-264h-135zM241 526v-116h128v-62h-210v246h153c148 0 252 -98 252 -254s-104 -254 -252 -254h-153v244h210v-61h-128
v-115h61c110 0 178 73 178 186s-68 186 -178 186h-61z" />
    <glyph glyph-name="Abreve" unicode="&#x102;" horiz-adv-x="681" 
d="M337 553l-254 -553h-79l326 690c5 10 17 10 22 0l325 -690h-84zM175 157l162 353l163 -353h-325zM486 0l-35 79h-233l-33 -79h-82l63 139h343l64 -139h-87zM333 352l-57 -135h115zM340 715c-100 0 -166 63 -175 145l57 4c7 -54 51 -95 118 -95s109 41 117 95l57 -4
c-9 -82 -74 -145 -174 -145zM340 787c-56 0 -93 34 -100 78l59 3c3 -18 16 -30 41 -30s38 12 41 30l57 -3c-7 -44 -41 -78 -98 -78z" />
    <glyph glyph-name="Amacron" unicode="&#x100;" horiz-adv-x="681" 
d="M337 553l-254 -553h-79l326 690c5 10 17 10 22 0l325 -690h-84zM175 157l162 353l163 -353h-325zM486 0l-35 79h-233l-33 -79h-82l63 139h343l64 -139h-87zM333 352l-57 -135h115zM198 799v59h284v-59h-284zM198 722v59h284v-59h-284z" />
    <glyph glyph-name="Aogonek" unicode="&#x104;" horiz-adv-x="681" 
d="M537 -107c0 33 17 69 57 106l-257 554l-254 -553h-79l331 692c3 7 9 7 12 0l325 -682c-50 -46 -70 -77 -70 -97c0 -15 11 -20 23 -20s19 4 26 8l19 -35c-14 -13 -42 -23 -73 -23c-39 0 -60 19 -60 50zM175 157l162 353l163 -353h-325zM489 0l-36 82h-237l-34 -82h-79
l63 139h343l64 -139c-39 -37 -54 -71 -54 -107c0 -42 31 -67 78 -67c34 0 64 10 82 24l21 -38c-27 -22 -64 -35 -120 -35c-77 0 -128 43 -128 108c0 46 27 85 63 115h-26zM333 358l-61 -144h123z" />
    <glyph glyph-name="Cacute" unicode="&#x106;" horiz-adv-x="690" 
d="M679 153c-67 -113 -161 -162 -299 -162c-191 0 -354 144 -354 349s162 348 344 348c147 0 237 -62 294 -146l-61 -42c-43 65 -112 118 -231 118c-146 0 -262 -117 -262 -278s117 -279 270 -279c116 0 186 46 236 132zM372 600c111 0 176 -49 216 -109l-61 -42
c-26 40 -68 81 -154 81c-100 0 -161 -83 -161 -190s63 -191 167 -191c88 0 131 40 160 94l62 -40c-46 -82 -113 -124 -221 -124c-143 0 -252 110 -252 261s108 260 244 260zM434 722h-57l66 182h86zM301 722l40 182h84l-66 -182h-58z" />
    <glyph glyph-name="Ccaron" unicode="&#x10c;" horiz-adv-x="690" 
d="M679 153c-67 -113 -161 -162 -299 -162c-191 0 -354 144 -354 349s162 348 344 348c147 0 237 -62 294 -146l-61 -42c-43 65 -112 118 -231 118c-146 0 -262 -117 -262 -278s117 -279 270 -279c116 0 186 46 236 132zM372 600c111 0 176 -49 216 -109l-61 -42
c-26 40 -68 81 -154 81c-100 0 -161 -83 -161 -190s63 -191 167 -191c88 0 131 40 160 94l62 -40c-46 -82 -113 -124 -221 -124c-143 0 -252 110 -252 261s108 260 244 260zM540 923l-172 -210c-3 -4 -6 -4 -9 0l-172 210h64l112 -134l114 134h63zM454 923l-91 -105l-90 105
h61l29 -29l30 29h61z" />
    <glyph glyph-name="Ccircumflex" unicode="&#x108;" horiz-adv-x="690" 
d="M679 153c-67 -113 -161 -162 -299 -162c-191 0 -354 144 -354 349s162 348 344 348c147 0 237 -62 294 -146l-61 -42c-43 65 -112 118 -231 118c-146 0 -262 -117 -262 -278s117 -279 270 -279c116 0 186 46 236 132zM372 600c111 0 176 -49 216 -109l-61 -42
c-26 40 -68 81 -154 81c-100 0 -161 -83 -161 -190s63 -191 167 -191c88 0 131 40 160 94l62 -40c-46 -82 -113 -124 -221 -124c-143 0 -252 110 -252 261s108 260 244 260zM187 722l172 210c3 4 6 4 9 0l172 -210h-64l-112 134l-114 -134h-63zM273 722l91 105l90 -105h-61
l-29 29l-30 -29h-61z" />
    <glyph glyph-name="Cdotaccent" unicode="&#x10a;" horiz-adv-x="690" 
d="M679 153c-67 -113 -161 -162 -299 -162c-191 0 -354 144 -354 349s162 348 344 348c147 0 237 -62 294 -146l-61 -42c-43 65 -112 118 -231 118c-146 0 -262 -117 -262 -278s117 -279 270 -279c116 0 186 46 236 132zM372 600c111 0 176 -49 216 -109l-61 -42
c-26 40 -68 81 -154 81c-100 0 -161 -83 -161 -190s63 -191 167 -191c88 0 131 40 160 94l62 -40c-46 -82 -113 -124 -221 -124c-143 0 -252 110 -252 261s108 260 244 260zM364 717c-41 0 -80 35 -80 80s39 80 80 80c42 0 79 -35 79 -80s-37 -80 -79 -80zM350 797
c0 -8 7 -14 14 -14s14 6 14 14s-7 14 -14 14s-14 -6 -14 -14z" />
    <glyph glyph-name="Dcaron" unicode="&#x10e;" horiz-adv-x="688" 
d="M141 612v-544h171c158 0 270 104 270 272s-112 272 -270 272h-171zM159 86v508h153c148 0 252 -98 252 -254s-104 -254 -252 -254h-153zM59 0v680h263c196 0 344 -129 344 -340s-148 -340 -344 -340h-263zM241 154h61c110 0 178 73 178 186s-68 186 -178 186h-61v-372z
M485 923l-172 -210c-3 -4 -6 -4 -9 0l-172 210h64l112 -134l114 134h63zM399 923l-91 -105l-90 105h61l29 -29l30 29h61z" />
    <glyph glyph-name="Ecaron" unicode="&#x11a;" horiz-adv-x="579" 
d="M59 0v680h477v-68h-395v-545h409v-67h-491zM550 153v-68h-391v248h328v-63h-246v-117h309zM487 415v-64h-328v243h377v-67h-295v-112h246zM483 923l-172 -210c-3 -4 -6 -4 -9 0l-172 210h64l112 -134l114 134h63zM397 923l-91 -105l-90 105h61l29 -29l30 29h61z" />
    <glyph glyph-name="Edotaccent" unicode="&#x116;" horiz-adv-x="579" 
d="M59 0v680h477v-68h-395v-545h409v-67h-491zM550 153v-68h-391v248h328v-63h-246v-117h309zM487 415v-64h-328v243h377v-67h-295v-112h246zM307 717c-41 0 -80 35 -80 80s39 80 80 80c42 0 79 -35 79 -80s-37 -80 -79 -80zM293 797c0 -8 7 -14 14 -14s14 6 14 14
s-7 14 -14 14s-14 -6 -14 -14z" />
    <glyph glyph-name="Emacron" unicode="&#x112;" horiz-adv-x="579" 
d="M59 0v680h477v-68h-395v-545h409v-67h-491zM550 153v-68h-391v248h328v-63h-246v-117h309zM487 415v-64h-328v243h377v-67h-295v-112h246zM164 799v59h284v-59h-284zM164 722v59h284v-59h-284z" />
    <glyph glyph-name="Eogonek" unicode="&#x118;" horiz-adv-x="579" 
d="M59 0v680h477v-68h-395v-545h380c-94 -60 -158 -122 -158 -174c0 -42 30 -67 77 -67c34 0 63 10 81 24l21 -38c-27 -22 -64 -35 -120 -35c-77 0 -126 41 -126 105c0 48 27 85 72 118h-309zM550 153v-68h-391v248h328v-63h-246v-117h309zM487 415v-64h-328v243h377v-67
h-295v-112h246zM381 -107c0 50 68 111 169 174v-67h-25c-53 -37 -79 -68 -79 -88c0 -14 9 -19 21 -19s19 4 26 8l19 -35c-14 -13 -41 -23 -72 -23c-39 0 -59 19 -59 50z" />
    <glyph glyph-name="Gbreve" unicode="&#x11e;" horiz-adv-x="720" 
d="M616 318h-225v63h297v-296c-63 -52 -145 -94 -296 -94c-200 0 -366 144 -366 349s166 348 362 348c120 0 214 -45 273 -121l-57 -49c-49 61 -123 100 -218 100c-158 0 -276 -117 -276 -278s118 -281 283 -281c111 0 173 29 223 65v194zM526 171v66h-135v63h207v-168
c-43 -30 -102 -55 -205 -55c-155 0 -265 112 -265 263s110 260 258 260c89 0 160 -36 205 -94l-57 -49c-34 44 -82 73 -150 73c-111 0 -172 -83 -172 -190s62 -196 182 -196c66 0 103 13 132 27zM383 715c-100 0 -166 63 -175 145l57 4c7 -54 51 -95 118 -95s109 41 117 95
l57 -4c-9 -82 -74 -145 -174 -145zM383 787c-56 0 -93 34 -100 78l59 3c3 -18 16 -30 41 -30s38 12 41 30l57 -3c-7 -44 -41 -78 -98 -78z" />
    <glyph glyph-name="Gcircumflex" unicode="&#x11c;" horiz-adv-x="720" 
d="M616 318h-225v63h297v-296c-63 -52 -145 -94 -296 -94c-200 0 -366 144 -366 349s166 348 362 348c120 0 214 -45 273 -121l-57 -49c-49 61 -123 100 -218 100c-158 0 -276 -117 -276 -278s118 -281 283 -281c111 0 173 29 223 65v194zM526 171v66h-135v63h207v-168
c-43 -30 -102 -55 -205 -55c-155 0 -265 112 -265 263s110 260 258 260c89 0 160 -36 205 -94l-57 -49c-34 44 -82 73 -150 73c-111 0 -172 -83 -172 -190s62 -196 182 -196c66 0 103 13 132 27zM207 722l172 210c3 4 6 4 9 0l172 -210h-64l-112 134l-114 -134h-63zM293 722
l91 105l90 -105h-61l-29 29l-30 -29h-61z" />
    <glyph glyph-name="Gcommaaccent" unicode="&#x122;" horiz-adv-x="720" 
d="M616 318h-225v63h297v-296c-63 -52 -145 -94 -296 -94c-200 0 -366 144 -366 349s166 348 362 348c120 0 214 -45 273 -121l-57 -49c-49 61 -123 100 -218 100c-158 0 -276 -117 -276 -278s118 -281 283 -281c111 0 173 29 223 65v194zM526 171v66h-135v63h207v-168
c-43 -30 -102 -55 -205 -55c-155 0 -265 112 -265 263s110 260 258 260c89 0 160 -36 205 -94l-57 -49c-34 44 -82 73 -150 73c-111 0 -172 -83 -172 -190s62 -196 182 -196c66 0 103 13 132 27zM320 -267l24 74c-22 11 -42 35 -42 71c0 46 39 78 80 78s79 -31 79 -77
c0 -28 -11 -48 -35 -83l-43 -63h-63zM369 -124c0 -7 6 -13 13 -13s13 6 13 13s-6 13 -13 13s-13 -6 -13 -13z" />
    <glyph glyph-name="Gdotaccent" unicode="&#x120;" horiz-adv-x="720" 
d="M616 318h-225v63h297v-296c-63 -52 -145 -94 -296 -94c-200 0 -366 144 -366 349s166 348 362 348c120 0 214 -45 273 -121l-57 -49c-49 61 -123 100 -218 100c-158 0 -276 -117 -276 -278s118 -281 283 -281c111 0 173 29 223 65v194zM526 171v66h-135v63h207v-168
c-43 -30 -102 -55 -205 -55c-155 0 -265 112 -265 263s110 260 258 260c89 0 160 -36 205 -94l-57 -49c-34 44 -82 73 -150 73c-111 0 -172 -83 -172 -190s62 -196 182 -196c66 0 103 13 132 27zM384 717c-41 0 -80 35 -80 80s39 80 80 80c42 0 79 -35 79 -80
s-37 -80 -79 -80zM370 797c0 -8 7 -14 14 -14s14 6 14 14s-7 14 -14 14s-14 -6 -14 -14z" />
    <glyph glyph-name="Hbar" unicode="&#x126;" horiz-adv-x="718" 
d="M241 680v-116h236v116h82v-329h-400v329h82zM241 0h-82v333h400v-333h-82v266h-236v-266zM659 0h-82v680h82v-116h50v-78h-50v-486zM59 0v486h-50v78h50v116h82v-680h-82zM477 419v67h-236v-67h236z" />
    <glyph glyph-name="Hcircumflex" unicode="&#x124;" horiz-adv-x="718" 
d="M241 0h-82v333h400v-333h-82v266h-236v-266zM477 419v261h82v-329h-400v329h82v-261h236zM59 0v680h82v-680h-82zM659 0h-82v680h82v-680zM183 722l172 210c3 4 6 4 9 0l172 -210h-64l-112 134l-114 -134h-63zM269 722l91 105l90 -105h-61l-29 29l-30 -29h-61z" />
    <glyph glyph-name="Idotaccent" unicode="&#x130;" horiz-adv-x="308" 
d="M245 0h-82v680h82v-680zM63 0v680h82v-680h-82zM155 717c-41 0 -80 35 -80 80s39 80 80 80c42 0 79 -35 79 -80s-37 -80 -79 -80zM141 797c0 -8 7 -14 14 -14s14 6 14 14s-7 14 -14 14s-14 -6 -14 -14z" />
    <glyph glyph-name="Imacron" unicode="&#x12a;" horiz-adv-x="308" 
d="M245 0h-82v680h82v-680zM63 0v680h82v-680h-82zM12 799v59h284v-59h-284zM12 722v59h284v-59h-284z" />
    <glyph glyph-name="Iogonek" unicode="&#x12e;" horiz-adv-x="308" 
d="M63 0v680h82v-682c-32 -39 -51 -69 -51 -102c0 -45 33 -69 78 -69c32 0 61 9 79 23l21 -38c-27 -22 -64 -35 -111 -35c-86 0 -135 43 -135 103c0 51 27 88 73 120h-36zM112 -104c0 32 18 59 51 100v684h82v-676c-51 -36 -71 -71 -71 -91c0 -15 11 -20 23 -20s19 4 26 8
l19 -35c-14 -13 -41 -22 -70 -22c-38 0 -60 18 -60 52z" />
    <glyph glyph-name="Jcircumflex" unicode="&#x134;" horiz-adv-x="486" 
d="M432 680v-489c0 -128 -77 -201 -208 -201c-115 0 -183 47 -218 113l63 40c25 -48 69 -84 145 -84c86 0 136 48 136 139v482h82zM84 153l62 40c14 -24 26 -47 57 -47c29 0 47 16 47 58v476h82v-482c0 -79 -44 -121 -118 -121c-69 0 -108 33 -130 76zM161 722l172 210
c3 4 6 4 9 0l172 -210h-64l-112 134l-114 -134h-63zM247 722l91 105l90 -105h-61l-29 29l-30 -29h-61z" />
    <glyph glyph-name="Kcommaaccent" unicode="&#x136;" horiz-adv-x="682" 
d="M560 680h88l-226 -295l253 -385h-97l-254 379zM241 406l204 274h94l-380 -485v485h82v-274zM59 0v680h82v-680h-82zM460 0l-160 244l-59 -74v-170h-82v168l154 197l245 -365h-98zM270 -267l24 74c-22 11 -42 35 -42 71c0 46 39 78 80 78s79 -31 79 -77
c0 -28 -11 -48 -35 -83l-43 -63h-63zM319 -124c0 -7 6 -13 13 -13s13 6 13 13s-6 13 -13 13s-13 -6 -13 -13z" />
    <glyph glyph-name="Lacute" unicode="&#x139;" horiz-adv-x="555" 
d="M59 0v680h82v-613h389v-67h-471zM530 153v-68h-371v595h82v-527h289zM220 722h-57l66 182h86zM87 722l40 182h84l-66 -182h-58z" />
    <glyph glyph-name="Lcaron" unicode="&#x13d;" horiz-adv-x="555" 
d="M59 0v680h82v-613h389v-67h-471zM530 153v-68h-371v595h82v-527h289zM351 465l24 74c-22 11 -42 35 -42 71c0 46 39 78 80 78s79 -31 79 -77c0 -28 -11 -48 -35 -83l-43 -63h-63zM400 608c0 -7 6 -13 13 -13s13 6 13 13s-6 13 -13 13s-13 -6 -13 -13z" />
    <glyph glyph-name="Lcommaaccent" unicode="&#x13b;" horiz-adv-x="555" 
d="M59 0v680h82v-613h389v-67h-471zM530 153v-68h-371v595h82v-527h289zM231 -267l24 74c-22 11 -42 35 -42 71c0 46 39 78 80 78s79 -31 79 -77c0 -28 -11 -48 -35 -83l-43 -63h-63zM280 -124c0 -7 6 -13 13 -13s13 6 13 13s-6 13 -13 13s-13 -6 -13 -13z" />
    <glyph glyph-name="Nacute" unicode="&#x143;" horiz-adv-x="730" 
d="M135 540v-540h-76v689c0 6 3 11 14 2l429 -355v344h76v-503zM657 -12l-429 354v-342h-75v502l443 -363v541h75v-690c0 -8 -3 -11 -14 -2zM415 722h-57l66 182h86zM282 722l40 182h84l-66 -182h-58z" />
    <glyph glyph-name="Ncaron" unicode="&#x147;" horiz-adv-x="730" 
d="M135 540v-540h-76v689c0 6 3 11 14 2l429 -355v344h76v-503zM657 -12l-429 354v-342h-75v502l443 -363v541h75v-690c0 -8 -3 -11 -14 -2zM531 923l-172 -210c-3 -4 -6 -4 -9 0l-172 210h64l112 -134l114 134h63zM445 923l-91 -105l-90 105h61l29 -29l30 29h61z" />
    <glyph glyph-name="Ncommaaccent" unicode="&#x145;" horiz-adv-x="730" 
d="M135 540v-540h-76v689c0 6 3 11 14 2l429 -355v344h76v-503zM657 -12l-429 354v-342h-75v502l443 -363v541h75v-690c0 -8 -3 -11 -14 -2zM311 -267l24 74c-22 11 -42 35 -42 71c0 46 39 78 80 78s79 -31 79 -77c0 -28 -11 -48 -35 -83l-43 -63h-63zM360 -124
c0 -7 6 -13 13 -13s13 6 13 13s-6 13 -13 13s-13 -6 -13 -13z" />
    <glyph glyph-name="Ohungarumlaut" unicode="&#x150;" 
d="M391 61c160 0 281 118 281 279s-121 278 -281 278s-281 -117 -281 -278s121 -279 281 -279zM391 79c-150 0 -263 110 -263 261s113 260 263 260s263 -109 263 -260s-113 -261 -263 -261zM391 -9c-196 0 -365 144 -365 349s169 348 365 348s365 -143 365 -348
s-169 -349 -365 -349zM391 149c114 0 179 84 179 191s-65 190 -179 190s-179 -83 -179 -190s65 -191 179 -191zM361 722h-57l59 182h79zM228 722l40 182h77l-59 -182h-58zM565 722h-57l59 182h79zM432 722l40 182h77l-59 -182h-58z" />
    <glyph glyph-name="Omacron" unicode="&#x14c;" 
d="M391 61c160 0 281 118 281 279s-121 278 -281 278s-281 -117 -281 -278s121 -279 281 -279zM391 79c-150 0 -263 110 -263 261s113 260 263 260s263 -109 263 -260s-113 -261 -263 -261zM391 -9c-196 0 -365 144 -365 349s169 348 365 348s365 -143 365 -348
s-169 -349 -365 -349zM391 149c114 0 179 84 179 191s-65 190 -179 190s-179 -83 -179 -190s65 -191 179 -191zM249 799v59h284v-59h-284zM249 722v59h284v-59h-284z" />
    <glyph glyph-name="Racute" unicode="&#x154;" horiz-adv-x="647" 
d="M141 612v-612h-82v680h275c173 0 269 -102 269 -241c0 -90 -43 -161 -124 -198l141 -241h-89l-158 277c96 14 148 74 148 162c0 103 -68 173 -191 173h-189zM330 292h-171v302h171c111 0 173 -62 173 -155c0 -90 -62 -147 -173 -147zM241 213v-213h-82v274h171
c8 0 13 0 24 1l157 -275h-88l-120 213h-62zM241 352h84c62 0 95 31 95 87s-33 87 -95 87h-84v-174zM369 722h-57l66 182h86zM236 722l40 182h84l-66 -182h-58z" />
    <glyph glyph-name="Rcaron" unicode="&#x158;" horiz-adv-x="647" 
d="M141 612v-612h-82v680h275c173 0 269 -102 269 -241c0 -90 -43 -161 -124 -198l141 -241h-89l-158 277c96 14 148 74 148 162c0 103 -68 173 -191 173h-189zM330 292h-171v302h171c111 0 173 -62 173 -155c0 -90 -62 -147 -173 -147zM241 213v-213h-82v274h171
c8 0 13 0 24 1l157 -275h-88l-120 213h-62zM241 352h84c62 0 95 31 95 87s-33 87 -95 87h-84v-174zM475 923l-172 -210c-3 -4 -6 -4 -9 0l-172 210h64l112 -134l114 134h63zM389 923l-91 -105l-90 105h61l29 -29l30 29h61z" />
    <glyph glyph-name="Rcommaaccent" unicode="&#x156;" horiz-adv-x="647" 
d="M141 612v-612h-82v680h275c173 0 269 -102 269 -241c0 -90 -43 -161 -124 -198l141 -241h-89l-158 277c96 14 148 74 148 162c0 103 -68 173 -191 173h-189zM330 292h-171v302h171c111 0 173 -62 173 -155c0 -90 -62 -147 -173 -147zM241 213v-213h-82v274h171
c8 0 13 0 24 1l157 -275h-88l-120 213h-62zM241 352h84c62 0 95 31 95 87s-33 87 -95 87h-84v-174zM258 -267l24 74c-22 11 -42 35 -42 71c0 46 39 78 80 78s79 -31 79 -77c0 -28 -11 -48 -35 -83l-43 -63h-63zM307 -124c0 -7 6 -13 13 -13s13 6 13 13s-6 13 -13 13
s-13 -6 -13 -13z" />
    <glyph glyph-name="Sacute" unicode="&#x15a;" horiz-adv-x="568" 
d="M286 -10c-153 0 -240 70 -282 126l59 44c42 -55 109 -103 219 -103c123 0 181 57 181 143c0 68 -37 109 -131 140l-85 29c-59 21 -102 51 -102 119c0 75 63 116 140 116c86 0 132 -30 168 -68l-46 -48c-28 29 -63 50 -117 50c-44 0 -66 -20 -66 -47c0 -26 15 -39 48 -50
l90 -30c136 -45 182 -110 182 -206c0 -125 -78 -215 -258 -215zM282 75c-106 0 -166 46 -205 96l59 44c33 -41 74 -74 142 -74c54 0 86 16 86 54c0 29 -22 43 -67 58l-80 27c-99 33 -169 93 -169 205c0 134 111 203 232 203c124 0 186 -41 231 -91l-45 -47
c-39 41 -94 72 -181 72s-158 -47 -158 -134c0 -74 45 -113 115 -136l85 -29c79 -28 117 -61 117 -123c0 -76 -51 -125 -162 -125zM355 722h-57l66 182h86zM222 722l40 182h84l-66 -182h-58z" />
    <glyph glyph-name="Scedilla" unicode="&#x15e;" horiz-adv-x="568" 
d="M296 -222c-59 0 -95 19 -119 57l68 45c7 -12 18 -23 35 -23c15 0 28 6 28 24c0 16 -11 25 -34 25h-34v86c-125 12 -199 74 -236 124l59 44c42 -55 109 -103 219 -103c123 0 181 57 181 143c0 68 -37 109 -131 140l-85 29c-59 21 -102 51 -102 119c0 75 63 116 140 116
c86 0 132 -30 168 -68l-46 -48c-28 29 -63 50 -117 50c-44 0 -66 -20 -66 -47c0 -26 15 -39 48 -50l90 -30c136 -45 182 -110 182 -206c0 -117 -69 -204 -225 -214v-22c46 -7 83 -41 83 -97c0 -59 -55 -94 -106 -94zM282 75c-106 0 -166 46 -205 96l59 44
c33 -41 74 -74 142 -74c54 0 86 16 86 54c0 29 -22 43 -67 58l-80 27c-99 33 -169 93 -169 205c0 134 111 203 232 203c124 0 186 -41 231 -91l-45 -47c-39 41 -94 72 -181 72s-158 -47 -158 -134c0 -74 45 -113 115 -136l85 -29c79 -28 117 -61 117 -123
c0 -76 -51 -125 -162 -125z" />
    <glyph glyph-name="Scircumflex" unicode="&#x15c;" horiz-adv-x="568" 
d="M286 -10c-153 0 -240 70 -282 126l59 44c42 -55 109 -103 219 -103c123 0 181 57 181 143c0 68 -37 109 -131 140l-85 29c-59 21 -102 51 -102 119c0 75 63 116 140 116c86 0 132 -30 168 -68l-46 -48c-28 29 -63 50 -117 50c-44 0 -66 -20 -66 -47c0 -26 15 -39 48 -50
l90 -30c136 -45 182 -110 182 -206c0 -125 -78 -215 -258 -215zM282 75c-106 0 -166 46 -205 96l59 44c33 -41 74 -74 142 -74c54 0 86 16 86 54c0 29 -22 43 -67 58l-80 27c-99 33 -169 93 -169 205c0 134 111 203 232 203c124 0 186 -41 231 -91l-45 -47
c-39 41 -94 72 -181 72s-158 -47 -158 -134c0 -74 45 -113 115 -136l85 -29c79 -28 117 -61 117 -123c0 -76 -51 -125 -162 -125zM108 722l172 210c3 4 6 4 9 0l172 -210h-64l-112 134l-114 -134h-63zM194 722l91 105l90 -105h-61l-29 29l-30 -29h-61z" />
    <glyph glyph-name="Scommaaccent" unicode="&#x218;" horiz-adv-x="568" 
d="M286 -10c-153 0 -240 70 -282 126l59 44c42 -55 109 -103 219 -103c123 0 181 57 181 143c0 68 -37 109 -131 140l-85 29c-59 21 -102 51 -102 119c0 75 63 116 140 116c86 0 132 -30 168 -68l-46 -48c-28 29 -63 50 -117 50c-44 0 -66 -20 -66 -47c0 -26 15 -39 48 -50
l90 -30c136 -45 182 -110 182 -206c0 -125 -78 -215 -258 -215zM282 75c-106 0 -166 46 -205 96l59 44c33 -41 74 -74 142 -74c54 0 86 16 86 54c0 29 -22 43 -67 58l-80 27c-99 33 -169 93 -169 205c0 134 111 203 232 203c124 0 186 -41 231 -91l-45 -47
c-39 41 -94 72 -181 72s-158 -47 -158 -134c0 -74 45 -113 115 -136l85 -29c79 -28 117 -61 117 -123c0 -76 -51 -125 -162 -125zM221 -267l24 74c-22 11 -42 35 -42 71c0 46 39 78 80 78s79 -31 79 -77c0 -28 -11 -48 -35 -83l-43 -63h-63zM270 -124c0 -7 6 -13 13 -13
s13 6 13 13s-6 13 -13 13s-13 -6 -13 -13z" />
    <glyph glyph-name="Tcaron" unicode="&#x164;" horiz-adv-x="588" 
d="M385 0h-82v594h262v-67h-180v-527zM203 0v527h-180v67h262v-594h-82zM565 680v-68h-542v68h542zM471 923l-172 -210c-3 -4 -6 -4 -9 0l-172 210h64l112 -134l114 134h63zM385 923l-91 -105l-90 105h61l29 -29l30 29h61z" />
    <glyph glyph-name="uni021A" unicode="&#x21a;" horiz-adv-x="588" 
d="M323 -119c0 13 -7 21 -20 24v689h262v-67h-180v-527h-51v-31c46 -7 83 -41 83 -97c0 -59 -55 -94 -106 -94c-59 0 -95 19 -119 57l68 45c7 -12 18 -23 35 -23c15 0 28 6 28 24zM203 0v527h-180v67h262v-688h-31v94h-51zM565 680v-68h-542v68h542z" />
    <glyph glyph-name="Tcommaaccent" unicode="&#x162;" horiz-adv-x="588" 
d="M385 0h-82v594h262v-67h-180v-527zM203 0v527h-180v67h262v-594h-82zM565 680v-68h-542v68h542zM231 -267l24 74c-22 11 -42 35 -42 71c0 46 39 78 80 78s79 -31 79 -77c0 -28 -11 -48 -35 -83l-43 -63h-63zM280 -124c0 -7 6 -13 13 -13s13 6 13 13s-6 13 -13 13
s-13 -6 -13 -13z" />
    <glyph glyph-name="Ubreve" unicode="&#x16c;" horiz-adv-x="694" 
d="M347 -10c-170 0 -295 90 -295 273v417h82v-416c0 -135 85 -203 213 -203c129 0 213 68 213 203v416h82v-417c0 -183 -125 -273 -295 -273zM347 79c-118 0 -195 62 -195 185v416h82v-415c0 -74 36 -116 113 -116s113 42 113 116v415h82v-416c0 -123 -76 -185 -195 -185z
M347 715c-100 0 -166 63 -175 145l57 4c7 -54 51 -95 118 -95s109 41 117 95l57 -4c-9 -82 -74 -145 -174 -145zM347 787c-56 0 -93 34 -100 78l59 3c3 -18 16 -30 41 -30s38 12 41 30l57 -3c-7 -44 -41 -78 -98 -78z" />
    <glyph glyph-name="Uhungarumlaut" unicode="&#x170;" horiz-adv-x="694" 
d="M347 -10c-170 0 -295 90 -295 273v417h82v-416c0 -135 85 -203 213 -203c129 0 213 68 213 203v416h82v-417c0 -183 -125 -273 -295 -273zM347 79c-118 0 -195 62 -195 185v416h82v-415c0 -74 36 -116 113 -116s113 42 113 116v415h82v-416c0 -123 -76 -185 -195 -185z
M317 722h-57l59 182h79zM184 722l40 182h77l-59 -182h-58zM521 722h-57l59 182h79zM388 722l40 182h77l-59 -182h-58z" />
    <glyph glyph-name="Umacron" unicode="&#x16a;" horiz-adv-x="694" 
d="M347 -10c-170 0 -295 90 -295 273v417h82v-416c0 -135 85 -203 213 -203c129 0 213 68 213 203v416h82v-417c0 -183 -125 -273 -295 -273zM347 79c-118 0 -195 62 -195 185v416h82v-415c0 -74 36 -116 113 -116s113 42 113 116v415h82v-416c0 -123 -76 -185 -195 -185z
M205 799v59h284v-59h-284zM205 722v59h284v-59h-284z" />
    <glyph glyph-name="Uogonek" unicode="&#x172;" horiz-adv-x="694" 
d="M347 79c-118 0 -195 61 -195 185v416h82v-415c0 -77 36 -116 113 -116s113 39 113 116v415h82v-416c0 -124 -76 -185 -195 -185zM266 -114c0 41 22 78 50 105c-151 10 -264 99 -264 272v417h82v-416c0 -136 85 -203 213 -203c36 0 63 5 91 16
c-43 -39 -105 -102 -105 -178c0 -44 29 -73 79 -73c31 0 60 11 78 24l21 -38c-27 -22 -64 -35 -120 -35c-77 0 -125 40 -125 109zM351 -101c0 77 77 151 147 210c35 29 62 79 62 155v416h82v-417c0 -93 -35 -162 -92 -209c-62 -51 -137 -91 -137 -137c0 -19 11 -24 23 -24
s19 4 26 8l19 -35c-14 -12 -41 -23 -69 -23c-42 0 -61 23 -61 56z" />
    <glyph glyph-name="Uring" unicode="&#x16e;" horiz-adv-x="694" 
d="M347 -10c-170 0 -295 90 -295 273v417h82v-416c0 -135 85 -203 213 -203c129 0 213 68 213 203v416h82v-417c0 -183 -125 -273 -295 -273zM347 79c-118 0 -195 62 -195 185v416h82v-415c0 -74 36 -116 113 -116s113 42 113 116v415h82v-416c0 -123 -76 -185 -195 -185z
M347 696c-69 0 -116 50 -116 109s47 109 116 109s116 -50 116 -109s-47 -109 -116 -109zM347 762c23 0 42 16 42 43c0 26 -19 43 -42 43s-42 -17 -42 -43c0 -27 19 -43 42 -43z" />
    <glyph glyph-name="Zacute" unicode="&#x179;" horiz-adv-x="613" 
d="M14 0c-6 0 -8 2 -3 10l303 517h-252v68h377l-306 -527h436v-68h-555zM472 613h-410v67h529c6 0 8 -2 3 -10l-303 -517h278v-67h-403zM391 722h-57l66 182h86zM258 722l40 182h84l-66 -182h-58z" />
    <glyph glyph-name="Zdotaccent" unicode="&#x17b;" horiz-adv-x="613" 
d="M14 0c-6 0 -8 2 -3 10l303 517h-252v68h377l-306 -527h436v-68h-555zM472 613h-410v67h529c6 0 8 -2 3 -10l-303 -517h278v-67h-403zM321 717c-41 0 -80 35 -80 80s39 80 80 80c42 0 79 -35 79 -80s-37 -80 -79 -80zM307 797c0 -8 7 -14 14 -14s14 6 14 14s-7 14 -14 14
s-14 -6 -14 -14z" />
    <glyph glyph-name="abreve" unicode="&#x103;" horiz-adv-x="681" 
d="M337 553l-254 -553h-79l326 690c5 10 17 10 22 0l325 -690h-84zM175 157l162 353l163 -353h-325zM486 0l-35 79h-233l-33 -79h-82l63 139h343l64 -139h-87zM333 352l-57 -135h115zM340 715c-100 0 -166 63 -175 145l57 4c7 -54 51 -95 118 -95s109 41 117 95l57 -4
c-9 -82 -74 -145 -174 -145zM340 787c-56 0 -93 34 -100 78l59 3c3 -18 16 -30 41 -30s38 12 41 30l57 -3c-7 -44 -41 -78 -98 -78z" />
    <glyph glyph-name="amacron" unicode="&#x101;" horiz-adv-x="681" 
d="M337 553l-254 -553h-79l326 690c5 10 17 10 22 0l325 -690h-84zM175 157l162 353l163 -353h-325zM486 0l-35 79h-233l-33 -79h-82l63 139h343l64 -139h-87zM333 352l-57 -135h115zM198 799v59h284v-59h-284zM198 722v59h284v-59h-284z" />
    <glyph glyph-name="aogonek" unicode="&#x105;" horiz-adv-x="681" 
d="M537 -107c0 33 17 69 57 106l-257 554l-254 -553h-79l331 692c3 7 9 7 12 0l325 -682c-50 -46 -70 -77 -70 -97c0 -15 11 -20 23 -20s19 4 26 8l19 -35c-14 -13 -42 -23 -73 -23c-39 0 -60 19 -60 50zM175 157l162 353l163 -353h-325zM489 0l-36 82h-237l-34 -82h-79
l63 139h343l64 -139c-39 -37 -54 -71 -54 -107c0 -42 31 -67 78 -67c34 0 64 10 82 24l21 -38c-27 -22 -64 -35 -120 -35c-77 0 -128 43 -128 108c0 46 27 85 63 115h-26zM333 358l-61 -144h123z" />
    <glyph glyph-name="cacute" unicode="&#x107;" horiz-adv-x="690" 
d="M679 153c-67 -113 -161 -162 -299 -162c-191 0 -354 144 -354 349s162 348 344 348c147 0 237 -62 294 -146l-61 -42c-43 65 -112 118 -231 118c-146 0 -262 -117 -262 -278s117 -279 270 -279c116 0 186 46 236 132zM372 600c111 0 176 -49 216 -109l-61 -42
c-26 40 -68 81 -154 81c-100 0 -161 -83 -161 -190s63 -191 167 -191c88 0 131 40 160 94l62 -40c-46 -82 -113 -124 -221 -124c-143 0 -252 110 -252 261s108 260 244 260zM434 722h-57l66 182h86zM301 722l40 182h84l-66 -182h-58z" />
    <glyph glyph-name="ccaron" unicode="&#x10d;" horiz-adv-x="690" 
d="M679 153c-67 -113 -161 -162 -299 -162c-191 0 -354 144 -354 349s162 348 344 348c147 0 237 -62 294 -146l-61 -42c-43 65 -112 118 -231 118c-146 0 -262 -117 -262 -278s117 -279 270 -279c116 0 186 46 236 132zM372 600c111 0 176 -49 216 -109l-61 -42
c-26 40 -68 81 -154 81c-100 0 -161 -83 -161 -190s63 -191 167 -191c88 0 131 40 160 94l62 -40c-46 -82 -113 -124 -221 -124c-143 0 -252 110 -252 261s108 260 244 260zM540 923l-172 -210c-3 -4 -6 -4 -9 0l-172 210h64l112 -134l114 134h63zM454 923l-91 -105l-90 105
h61l29 -29l30 29h61z" />
    <glyph glyph-name="ccircumflex" unicode="&#x109;" horiz-adv-x="690" 
d="M679 153c-67 -113 -161 -162 -299 -162c-191 0 -354 144 -354 349s162 348 344 348c147 0 237 -62 294 -146l-61 -42c-43 65 -112 118 -231 118c-146 0 -262 -117 -262 -278s117 -279 270 -279c116 0 186 46 236 132zM372 600c111 0 176 -49 216 -109l-61 -42
c-26 40 -68 81 -154 81c-100 0 -161 -83 -161 -190s63 -191 167 -191c88 0 131 40 160 94l62 -40c-46 -82 -113 -124 -221 -124c-143 0 -252 110 -252 261s108 260 244 260zM187 722l172 210c3 4 6 4 9 0l172 -210h-64l-112 134l-114 -134h-63zM273 722l91 105l90 -105h-61
l-29 29l-30 -29h-61z" />
    <glyph glyph-name="cdotaccent" unicode="&#x10b;" horiz-adv-x="690" 
d="M679 153c-67 -113 -161 -162 -299 -162c-191 0 -354 144 -354 349s162 348 344 348c147 0 237 -62 294 -146l-61 -42c-43 65 -112 118 -231 118c-146 0 -262 -117 -262 -278s117 -279 270 -279c116 0 186 46 236 132zM372 600c111 0 176 -49 216 -109l-61 -42
c-26 40 -68 81 -154 81c-100 0 -161 -83 -161 -190s63 -191 167 -191c88 0 131 40 160 94l62 -40c-46 -82 -113 -124 -221 -124c-143 0 -252 110 -252 261s108 260 244 260zM364 717c-41 0 -80 35 -80 80s39 80 80 80c42 0 79 -35 79 -80s-37 -80 -79 -80zM350 797
c0 -8 7 -14 14 -14s14 6 14 14s-7 14 -14 14s-14 -6 -14 -14z" />
    <glyph glyph-name="dcaron" unicode="&#x10f;" horiz-adv-x="688" 
d="M141 612v-544h171c158 0 270 104 270 272s-112 272 -270 272h-171zM159 86v508h153c148 0 252 -98 252 -254s-104 -254 -252 -254h-153zM59 0v680h263c196 0 344 -129 344 -340s-148 -340 -344 -340h-263zM241 154h61c110 0 178 73 178 186s-68 186 -178 186h-61v-372z
M485 923l-172 -210c-3 -4 -6 -4 -9 0l-172 210h64l112 -134l114 134h63zM399 923l-91 -105l-90 105h61l29 -29l30 29h61z" />
    <glyph glyph-name="ecaron" unicode="&#x11b;" horiz-adv-x="579" 
d="M59 0v680h477v-68h-395v-545h409v-67h-491zM550 153v-68h-391v248h328v-63h-246v-117h309zM487 415v-64h-328v243h377v-67h-295v-112h246zM483 923l-172 -210c-3 -4 -6 -4 -9 0l-172 210h64l112 -134l114 134h63zM397 923l-91 -105l-90 105h61l29 -29l30 29h61z" />
    <glyph glyph-name="edotaccent" unicode="&#x117;" horiz-adv-x="579" 
d="M59 0v680h477v-68h-395v-545h409v-67h-491zM550 153v-68h-391v248h328v-63h-246v-117h309zM487 415v-64h-328v243h377v-67h-295v-112h246zM307 717c-41 0 -80 35 -80 80s39 80 80 80c42 0 79 -35 79 -80s-37 -80 -79 -80zM293 797c0 -8 7 -14 14 -14s14 6 14 14
s-7 14 -14 14s-14 -6 -14 -14z" />
    <glyph glyph-name="emacron" unicode="&#x113;" horiz-adv-x="579" 
d="M59 0v680h477v-68h-395v-545h409v-67h-491zM550 153v-68h-391v248h328v-63h-246v-117h309zM487 415v-64h-328v243h377v-67h-295v-112h246zM164 799v59h284v-59h-284zM164 722v59h284v-59h-284z" />
    <glyph glyph-name="eogonek" unicode="&#x119;" horiz-adv-x="579" 
d="M59 0v680h477v-68h-395v-545h380c-94 -60 -158 -122 -158 -174c0 -42 30 -67 77 -67c34 0 63 10 81 24l21 -38c-27 -22 -64 -35 -120 -35c-77 0 -126 41 -126 105c0 48 27 85 72 118h-309zM550 153v-68h-391v248h328v-63h-246v-117h309zM487 415v-64h-328v243h377v-67
h-295v-112h246zM381 -107c0 50 68 111 169 174v-67h-25c-53 -37 -79 -68 -79 -88c0 -14 9 -19 21 -19s19 4 26 8l19 -35c-14 -13 -41 -23 -72 -23c-39 0 -59 19 -59 50z" />
    <glyph glyph-name="gbreve" unicode="&#x11f;" horiz-adv-x="720" 
d="M616 318h-225v63h297v-296c-63 -52 -145 -94 -296 -94c-200 0 -366 144 -366 349s166 348 362 348c120 0 214 -45 273 -121l-57 -49c-49 61 -123 100 -218 100c-158 0 -276 -117 -276 -278s118 -281 283 -281c111 0 173 29 223 65v194zM526 171v66h-135v63h207v-168
c-43 -30 -102 -55 -205 -55c-155 0 -265 112 -265 263s110 260 258 260c89 0 160 -36 205 -94l-57 -49c-34 44 -82 73 -150 73c-111 0 -172 -83 -172 -190s62 -196 182 -196c66 0 103 13 132 27zM383 715c-100 0 -166 63 -175 145l57 4c7 -54 51 -95 118 -95s109 41 117 95
l57 -4c-9 -82 -74 -145 -174 -145zM383 787c-56 0 -93 34 -100 78l59 3c3 -18 16 -30 41 -30s38 12 41 30l57 -3c-7 -44 -41 -78 -98 -78z" />
    <glyph glyph-name="gcircumflex" unicode="&#x11d;" horiz-adv-x="720" 
d="M616 318h-225v63h297v-296c-63 -52 -145 -94 -296 -94c-200 0 -366 144 -366 349s166 348 362 348c120 0 214 -45 273 -121l-57 -49c-49 61 -123 100 -218 100c-158 0 -276 -117 -276 -278s118 -281 283 -281c111 0 173 29 223 65v194zM526 171v66h-135v63h207v-168
c-43 -30 -102 -55 -205 -55c-155 0 -265 112 -265 263s110 260 258 260c89 0 160 -36 205 -94l-57 -49c-34 44 -82 73 -150 73c-111 0 -172 -83 -172 -190s62 -196 182 -196c66 0 103 13 132 27zM207 722l172 210c3 4 6 4 9 0l172 -210h-64l-112 134l-114 -134h-63zM293 722
l91 105l90 -105h-61l-29 29l-30 -29h-61z" />
    <glyph glyph-name="gcommaaccent" unicode="&#x123;" horiz-adv-x="720" 
d="M616 318h-225v63h297v-296c-63 -52 -145 -94 -296 -94c-200 0 -366 144 -366 349s166 348 362 348c120 0 214 -45 273 -121l-57 -49c-49 61 -123 100 -218 100c-158 0 -276 -117 -276 -278s118 -281 283 -281c111 0 173 29 223 65v194zM526 171v66h-135v63h207v-168
c-43 -30 -102 -55 -205 -55c-155 0 -265 112 -265 263s110 260 258 260c89 0 160 -36 205 -94l-57 -49c-34 44 -82 73 -150 73c-111 0 -172 -83 -172 -190s62 -196 182 -196c66 0 103 13 132 27zM320 -267l24 74c-22 11 -42 35 -42 71c0 46 39 78 80 78s79 -31 79 -77
c0 -28 -11 -48 -35 -83l-43 -63h-63zM369 -124c0 -7 6 -13 13 -13s13 6 13 13s-6 13 -13 13s-13 -6 -13 -13z" />
    <glyph glyph-name="gdotaccent" unicode="&#x121;" horiz-adv-x="720" 
d="M616 318h-225v63h297v-296c-63 -52 -145 -94 -296 -94c-200 0 -366 144 -366 349s166 348 362 348c120 0 214 -45 273 -121l-57 -49c-49 61 -123 100 -218 100c-158 0 -276 -117 -276 -278s118 -281 283 -281c111 0 173 29 223 65v194zM526 171v66h-135v63h207v-168
c-43 -30 -102 -55 -205 -55c-155 0 -265 112 -265 263s110 260 258 260c89 0 160 -36 205 -94l-57 -49c-34 44 -82 73 -150 73c-111 0 -172 -83 -172 -190s62 -196 182 -196c66 0 103 13 132 27zM384 717c-41 0 -80 35 -80 80s39 80 80 80c42 0 79 -35 79 -80
s-37 -80 -79 -80zM370 797c0 -8 7 -14 14 -14s14 6 14 14s-7 14 -14 14s-14 -6 -14 -14z" />
    <glyph glyph-name="hbar" unicode="&#x127;" horiz-adv-x="718" 
d="M241 680v-116h236v116h82v-329h-400v329h82zM241 0h-82v333h400v-333h-82v266h-236v-266zM659 0h-82v680h82v-116h50v-78h-50v-486zM59 0v486h-50v78h50v116h82v-680h-82zM477 419v67h-236v-67h236z" />
    <glyph glyph-name="hcircumflex" unicode="&#x125;" horiz-adv-x="718" 
d="M241 0h-82v333h400v-333h-82v266h-236v-266zM477 419v261h82v-329h-400v329h82v-261h236zM59 0v680h82v-680h-82zM659 0h-82v680h82v-680zM183 722l172 210c3 4 6 4 9 0l172 -210h-64l-112 134l-114 -134h-63zM269 722l91 105l90 -105h-61l-29 29l-30 -29h-61z" />
    <glyph glyph-name="idotaccent" horiz-adv-x="308" 
d="M245 0h-82v680h82v-680zM63 0v680h82v-680h-82zM155 717c-41 0 -80 35 -80 80s39 80 80 80c42 0 79 -35 79 -80s-37 -80 -79 -80zM141 797c0 -8 7 -14 14 -14s14 6 14 14s-7 14 -14 14s-14 -6 -14 -14z" />
    <glyph glyph-name="imacron" unicode="&#x12b;" horiz-adv-x="308" 
d="M245 0h-82v680h82v-680zM63 0v680h82v-680h-82zM12 799v59h284v-59h-284zM12 722v59h284v-59h-284z" />
    <glyph glyph-name="iogonek" unicode="&#x12f;" horiz-adv-x="308" 
d="M63 0v680h82v-682c-32 -39 -51 -69 -51 -102c0 -45 33 -69 78 -69c32 0 61 9 79 23l21 -38c-27 -22 -64 -35 -111 -35c-86 0 -135 43 -135 103c0 51 27 88 73 120h-36zM112 -104c0 32 18 59 51 100v684h82v-676c-51 -36 -71 -71 -71 -91c0 -15 11 -20 23 -20s19 4 26 8
l19 -35c-14 -13 -41 -22 -70 -22c-38 0 -60 18 -60 52z" />
    <glyph glyph-name="jcircumflex" unicode="&#x135;" horiz-adv-x="486" 
d="M432 680v-489c0 -128 -77 -201 -208 -201c-115 0 -183 47 -218 113l63 40c25 -48 69 -84 145 -84c86 0 136 48 136 139v482h82zM84 153l62 40c14 -24 26 -47 57 -47c29 0 47 16 47 58v476h82v-482c0 -79 -44 -121 -118 -121c-69 0 -108 33 -130 76zM161 722l172 210
c3 4 6 4 9 0l172 -210h-64l-112 134l-114 -134h-63zM247 722l91 105l90 -105h-61l-29 29l-30 -29h-61z" />
    <glyph glyph-name="kcommaaccent" unicode="&#x137;" horiz-adv-x="682" 
d="M560 680h88l-226 -295l253 -385h-97l-254 379zM241 406l204 274h94l-380 -485v485h82v-274zM59 0v680h82v-680h-82zM460 0l-160 244l-59 -74v-170h-82v168l154 197l245 -365h-98zM270 -267l24 74c-22 11 -42 35 -42 71c0 46 39 78 80 78s79 -31 79 -77
c0 -28 -11 -48 -35 -83l-43 -63h-63zM319 -124c0 -7 6 -13 13 -13s13 6 13 13s-6 13 -13 13s-13 -6 -13 -13z" />
    <glyph glyph-name="lacute" unicode="&#x13a;" horiz-adv-x="555" 
d="M59 0v680h82v-613h389v-67h-471zM530 153v-68h-371v595h82v-527h289zM220 722h-57l66 182h86zM87 722l40 182h84l-66 -182h-58z" />
    <glyph glyph-name="lcaron" unicode="&#x13e;" horiz-adv-x="555" 
d="M59 0v680h82v-613h389v-67h-471zM530 153v-68h-371v595h82v-527h289zM351 465l24 74c-22 11 -42 35 -42 71c0 46 39 78 80 78s79 -31 79 -77c0 -28 -11 -48 -35 -83l-43 -63h-63zM400 608c0 -7 6 -13 13 -13s13 6 13 13s-6 13 -13 13s-13 -6 -13 -13z" />
    <glyph glyph-name="lcommaaccent" unicode="&#x13c;" horiz-adv-x="555" 
d="M59 0v680h82v-613h389v-67h-471zM530 153v-68h-371v595h82v-527h289zM231 -267l24 74c-22 11 -42 35 -42 71c0 46 39 78 80 78s79 -31 79 -77c0 -28 -11 -48 -35 -83l-43 -63h-63zM280 -124c0 -7 6 -13 13 -13s13 6 13 13s-6 13 -13 13s-13 -6 -13 -13z" />
    <glyph glyph-name="nacute" unicode="&#x144;" horiz-adv-x="730" 
d="M135 540v-540h-76v689c0 6 3 11 14 2l429 -355v344h76v-503zM657 -12l-429 354v-342h-75v502l443 -363v541h75v-690c0 -8 -3 -11 -14 -2zM415 722h-57l66 182h86zM282 722l40 182h84l-66 -182h-58z" />
    <glyph glyph-name="ncaron" unicode="&#x148;" horiz-adv-x="730" 
d="M135 540v-540h-76v689c0 6 3 11 14 2l429 -355v344h76v-503zM657 -12l-429 354v-342h-75v502l443 -363v541h75v-690c0 -8 -3 -11 -14 -2zM531 923l-172 -210c-3 -4 -6 -4 -9 0l-172 210h64l112 -134l114 134h63zM445 923l-91 -105l-90 105h61l29 -29l30 29h61z" />
    <glyph glyph-name="ncommaaccent" unicode="&#x146;" horiz-adv-x="730" 
d="M135 540v-540h-76v689c0 6 3 11 14 2l429 -355v344h76v-503zM657 -12l-429 354v-342h-75v502l443 -363v541h75v-690c0 -8 -3 -11 -14 -2zM311 -267l24 74c-22 11 -42 35 -42 71c0 46 39 78 80 78s79 -31 79 -77c0 -28 -11 -48 -35 -83l-43 -63h-63zM360 -124
c0 -7 6 -13 13 -13s13 6 13 13s-6 13 -13 13s-13 -6 -13 -13z" />
    <glyph glyph-name="ohungarumlaut" unicode="&#x151;" 
d="M391 61c160 0 281 118 281 279s-121 278 -281 278s-281 -117 -281 -278s121 -279 281 -279zM391 79c-150 0 -263 110 -263 261s113 260 263 260s263 -109 263 -260s-113 -261 -263 -261zM391 -9c-196 0 -365 144 -365 349s169 348 365 348s365 -143 365 -348
s-169 -349 -365 -349zM391 149c114 0 179 84 179 191s-65 190 -179 190s-179 -83 -179 -190s65 -191 179 -191zM361 722h-57l59 182h79zM228 722l40 182h77l-59 -182h-58zM565 722h-57l59 182h79zM432 722l40 182h77l-59 -182h-58z" />
    <glyph glyph-name="omacron" unicode="&#x14d;" 
d="M391 61c160 0 281 118 281 279s-121 278 -281 278s-281 -117 -281 -278s121 -279 281 -279zM391 79c-150 0 -263 110 -263 261s113 260 263 260s263 -109 263 -260s-113 -261 -263 -261zM391 -9c-196 0 -365 144 -365 349s169 348 365 348s365 -143 365 -348
s-169 -349 -365 -349zM391 149c114 0 179 84 179 191s-65 190 -179 190s-179 -83 -179 -190s65 -191 179 -191zM249 799v59h284v-59h-284zM249 722v59h284v-59h-284z" />
    <glyph glyph-name="racute" unicode="&#x155;" horiz-adv-x="647" 
d="M141 612v-612h-82v680h275c173 0 269 -102 269 -241c0 -90 -43 -161 -124 -198l141 -241h-89l-158 277c96 14 148 74 148 162c0 103 -68 173 -191 173h-189zM330 292h-171v302h171c111 0 173 -62 173 -155c0 -90 -62 -147 -173 -147zM241 213v-213h-82v274h171
c8 0 13 0 24 1l157 -275h-88l-120 213h-62zM241 352h84c62 0 95 31 95 87s-33 87 -95 87h-84v-174zM369 722h-57l66 182h86zM236 722l40 182h84l-66 -182h-58z" />
    <glyph glyph-name="rcaron" unicode="&#x159;" horiz-adv-x="647" 
d="M141 612v-612h-82v680h275c173 0 269 -102 269 -241c0 -90 -43 -161 -124 -198l141 -241h-89l-158 277c96 14 148 74 148 162c0 103 -68 173 -191 173h-189zM330 292h-171v302h171c111 0 173 -62 173 -155c0 -90 -62 -147 -173 -147zM241 213v-213h-82v274h171
c8 0 13 0 24 1l157 -275h-88l-120 213h-62zM241 352h84c62 0 95 31 95 87s-33 87 -95 87h-84v-174zM475 923l-172 -210c-3 -4 -6 -4 -9 0l-172 210h64l112 -134l114 134h63zM389 923l-91 -105l-90 105h61l29 -29l30 29h61z" />
    <glyph glyph-name="rcommaaccent" unicode="&#x157;" horiz-adv-x="647" 
d="M141 612v-612h-82v680h275c173 0 269 -102 269 -241c0 -90 -43 -161 -124 -198l141 -241h-89l-158 277c96 14 148 74 148 162c0 103 -68 173 -191 173h-189zM330 292h-171v302h171c111 0 173 -62 173 -155c0 -90 -62 -147 -173 -147zM241 213v-213h-82v274h171
c8 0 13 0 24 1l157 -275h-88l-120 213h-62zM241 352h84c62 0 95 31 95 87s-33 87 -95 87h-84v-174zM258 -267l24 74c-22 11 -42 35 -42 71c0 46 39 78 80 78s79 -31 79 -77c0 -28 -11 -48 -35 -83l-43 -63h-63zM307 -124c0 -7 6 -13 13 -13s13 6 13 13s-6 13 -13 13
s-13 -6 -13 -13z" />
    <glyph glyph-name="sacute" unicode="&#x15b;" horiz-adv-x="568" 
d="M286 -10c-153 0 -240 70 -282 126l59 44c42 -55 109 -103 219 -103c123 0 181 57 181 143c0 68 -37 109 -131 140l-85 29c-59 21 -102 51 -102 119c0 75 63 116 140 116c86 0 132 -30 168 -68l-46 -48c-28 29 -63 50 -117 50c-44 0 -66 -20 -66 -47c0 -26 15 -39 48 -50
l90 -30c136 -45 182 -110 182 -206c0 -125 -78 -215 -258 -215zM282 75c-106 0 -166 46 -205 96l59 44c33 -41 74 -74 142 -74c54 0 86 16 86 54c0 29 -22 43 -67 58l-80 27c-99 33 -169 93 -169 205c0 134 111 203 232 203c124 0 186 -41 231 -91l-45 -47
c-39 41 -94 72 -181 72s-158 -47 -158 -134c0 -74 45 -113 115 -136l85 -29c79 -28 117 -61 117 -123c0 -76 -51 -125 -162 -125zM355 722h-57l66 182h86zM222 722l40 182h84l-66 -182h-58z" />
    <glyph glyph-name="scedilla" unicode="&#x15f;" horiz-adv-x="568" 
d="M296 -222c-59 0 -95 19 -119 57l68 45c7 -12 18 -23 35 -23c15 0 28 6 28 24c0 16 -11 25 -34 25h-34v86c-125 12 -199 74 -236 124l59 44c42 -55 109 -103 219 -103c123 0 181 57 181 143c0 68 -37 109 -131 140l-85 29c-59 21 -102 51 -102 119c0 75 63 116 140 116
c86 0 132 -30 168 -68l-46 -48c-28 29 -63 50 -117 50c-44 0 -66 -20 -66 -47c0 -26 15 -39 48 -50l90 -30c136 -45 182 -110 182 -206c0 -117 -69 -204 -225 -214v-22c46 -7 83 -41 83 -97c0 -59 -55 -94 -106 -94zM282 75c-106 0 -166 46 -205 96l59 44
c33 -41 74 -74 142 -74c54 0 86 16 86 54c0 29 -22 43 -67 58l-80 27c-99 33 -169 93 -169 205c0 134 111 203 232 203c124 0 186 -41 231 -91l-45 -47c-39 41 -94 72 -181 72s-158 -47 -158 -134c0 -74 45 -113 115 -136l85 -29c79 -28 117 -61 117 -123
c0 -76 -51 -125 -162 -125z" />
    <glyph glyph-name="scircumflex" unicode="&#x15d;" horiz-adv-x="568" 
d="M286 -10c-153 0 -240 70 -282 126l59 44c42 -55 109 -103 219 -103c123 0 181 57 181 143c0 68 -37 109 -131 140l-85 29c-59 21 -102 51 -102 119c0 75 63 116 140 116c86 0 132 -30 168 -68l-46 -48c-28 29 -63 50 -117 50c-44 0 -66 -20 -66 -47c0 -26 15 -39 48 -50
l90 -30c136 -45 182 -110 182 -206c0 -125 -78 -215 -258 -215zM282 75c-106 0 -166 46 -205 96l59 44c33 -41 74 -74 142 -74c54 0 86 16 86 54c0 29 -22 43 -67 58l-80 27c-99 33 -169 93 -169 205c0 134 111 203 232 203c124 0 186 -41 231 -91l-45 -47
c-39 41 -94 72 -181 72s-158 -47 -158 -134c0 -74 45 -113 115 -136l85 -29c79 -28 117 -61 117 -123c0 -76 -51 -125 -162 -125zM108 722l172 210c3 4 6 4 9 0l172 -210h-64l-112 134l-114 -134h-63zM194 722l91 105l90 -105h-61l-29 29l-30 -29h-61z" />
    <glyph glyph-name="scommaaccent" unicode="&#x219;" horiz-adv-x="568" 
d="M286 -10c-153 0 -240 70 -282 126l59 44c42 -55 109 -103 219 -103c123 0 181 57 181 143c0 68 -37 109 -131 140l-85 29c-59 21 -102 51 -102 119c0 75 63 116 140 116c86 0 132 -30 168 -68l-46 -48c-28 29 -63 50 -117 50c-44 0 -66 -20 -66 -47c0 -26 15 -39 48 -50
l90 -30c136 -45 182 -110 182 -206c0 -125 -78 -215 -258 -215zM282 75c-106 0 -166 46 -205 96l59 44c33 -41 74 -74 142 -74c54 0 86 16 86 54c0 29 -22 43 -67 58l-80 27c-99 33 -169 93 -169 205c0 134 111 203 232 203c124 0 186 -41 231 -91l-45 -47
c-39 41 -94 72 -181 72s-158 -47 -158 -134c0 -74 45 -113 115 -136l85 -29c79 -28 117 -61 117 -123c0 -76 -51 -125 -162 -125zM221 -267l24 74c-22 11 -42 35 -42 71c0 46 39 78 80 78s79 -31 79 -77c0 -28 -11 -48 -35 -83l-43 -63h-63zM270 -124c0 -7 6 -13 13 -13
s13 6 13 13s-6 13 -13 13s-13 -6 -13 -13z" />
    <glyph glyph-name="tcaron" unicode="&#x165;" horiz-adv-x="588" 
d="M385 0h-82v594h262v-67h-180v-527zM203 0v527h-180v67h262v-594h-82zM565 680v-68h-542v68h542zM471 923l-172 -210c-3 -4 -6 -4 -9 0l-172 210h64l112 -134l114 134h63zM385 923l-91 -105l-90 105h61l29 -29l30 29h61z" />
    <glyph glyph-name="uni021B" unicode="&#x21b;" horiz-adv-x="588" 
d="M323 -119c0 13 -7 21 -20 24v689h262v-67h-180v-527h-51v-31c46 -7 83 -41 83 -97c0 -59 -55 -94 -106 -94c-59 0 -95 19 -119 57l68 45c7 -12 18 -23 35 -23c15 0 28 6 28 24zM203 0v527h-180v67h262v-688h-31v94h-51zM565 680v-68h-542v68h542z" />
    <glyph glyph-name="tcommaaccent" unicode="&#x163;" horiz-adv-x="588" 
d="M385 0h-82v594h262v-67h-180v-527zM203 0v527h-180v67h262v-594h-82zM565 680v-68h-542v68h542zM231 -267l24 74c-22 11 -42 35 -42 71c0 46 39 78 80 78s79 -31 79 -77c0 -28 -11 -48 -35 -83l-43 -63h-63zM280 -124c0 -7 6 -13 13 -13s13 6 13 13s-6 13 -13 13
s-13 -6 -13 -13z" />
    <glyph glyph-name="ubreve" unicode="&#x16d;" horiz-adv-x="694" 
d="M347 -10c-170 0 -295 90 -295 273v417h82v-416c0 -135 85 -203 213 -203c129 0 213 68 213 203v416h82v-417c0 -183 -125 -273 -295 -273zM347 79c-118 0 -195 62 -195 185v416h82v-415c0 -74 36 -116 113 -116s113 42 113 116v415h82v-416c0 -123 -76 -185 -195 -185z
M347 715c-100 0 -166 63 -175 145l57 4c7 -54 51 -95 118 -95s109 41 117 95l57 -4c-9 -82 -74 -145 -174 -145zM347 787c-56 0 -93 34 -100 78l59 3c3 -18 16 -30 41 -30s38 12 41 30l57 -3c-7 -44 -41 -78 -98 -78z" />
    <glyph glyph-name="uhungarumlaut" unicode="&#x171;" horiz-adv-x="694" 
d="M347 -10c-170 0 -295 90 -295 273v417h82v-416c0 -135 85 -203 213 -203c129 0 213 68 213 203v416h82v-417c0 -183 -125 -273 -295 -273zM347 79c-118 0 -195 62 -195 185v416h82v-415c0 -74 36 -116 113 -116s113 42 113 116v415h82v-416c0 -123 -76 -185 -195 -185z
M317 722h-57l59 182h79zM184 722l40 182h77l-59 -182h-58zM521 722h-57l59 182h79zM388 722l40 182h77l-59 -182h-58z" />
    <glyph glyph-name="umacron" unicode="&#x16b;" horiz-adv-x="694" 
d="M347 -10c-170 0 -295 90 -295 273v417h82v-416c0 -135 85 -203 213 -203c129 0 213 68 213 203v416h82v-417c0 -183 -125 -273 -295 -273zM347 79c-118 0 -195 62 -195 185v416h82v-415c0 -74 36 -116 113 -116s113 42 113 116v415h82v-416c0 -123 -76 -185 -195 -185z
M205 799v59h284v-59h-284zM205 722v59h284v-59h-284z" />
    <glyph glyph-name="uogonek" unicode="&#x173;" horiz-adv-x="694" 
d="M347 79c-118 0 -195 61 -195 185v416h82v-415c0 -77 36 -116 113 -116s113 39 113 116v415h82v-416c0 -124 -76 -185 -195 -185zM266 -114c0 41 22 78 50 105c-151 10 -264 99 -264 272v417h82v-416c0 -136 85 -203 213 -203c36 0 63 5 91 16
c-43 -39 -105 -102 -105 -178c0 -44 29 -73 79 -73c31 0 60 11 78 24l21 -38c-27 -22 -64 -35 -120 -35c-77 0 -125 40 -125 109zM351 -101c0 77 77 151 147 210c35 29 62 79 62 155v416h82v-417c0 -93 -35 -162 -92 -209c-62 -51 -137 -91 -137 -137c0 -19 11 -24 23 -24
s19 4 26 8l19 -35c-14 -12 -41 -23 -69 -23c-42 0 -61 23 -61 56z" />
    <glyph glyph-name="uring" unicode="&#x16f;" horiz-adv-x="694" 
d="M347 -10c-170 0 -295 90 -295 273v417h82v-416c0 -135 85 -203 213 -203c129 0 213 68 213 203v416h82v-417c0 -183 -125 -273 -295 -273zM347 79c-118 0 -195 62 -195 185v416h82v-415c0 -74 36 -116 113 -116s113 42 113 116v415h82v-416c0 -123 -76 -185 -195 -185z
M347 696c-69 0 -116 50 -116 109s47 109 116 109s116 -50 116 -109s-47 -109 -116 -109zM347 762c23 0 42 16 42 43c0 26 -19 43 -42 43s-42 -17 -42 -43c0 -27 19 -43 42 -43z" />
    <glyph glyph-name="zacute" unicode="&#x17a;" horiz-adv-x="613" 
d="M14 0c-6 0 -8 2 -3 10l303 517h-252v68h377l-306 -527h436v-68h-555zM472 613h-410v67h529c6 0 8 -2 3 -10l-303 -517h278v-67h-403zM391 722h-57l66 182h86zM258 722l40 182h84l-66 -182h-58z" />
    <glyph glyph-name="zdotaccent" unicode="&#x17c;" horiz-adv-x="613" 
d="M14 0c-6 0 -8 2 -3 10l303 517h-252v68h377l-306 -527h436v-68h-555zM472 613h-410v67h529c6 0 8 -2 3 -10l-303 -517h278v-67h-403zM321 717c-41 0 -80 35 -80 80s39 80 80 80c42 0 79 -35 79 -80s-37 -80 -79 -80zM307 797c0 -8 7 -14 14 -14s14 6 14 14s-7 14 -14 14
s-14 -6 -14 -14z" />
    <glyph glyph-name="one.superior" unicode="&#xb9;" horiz-adv-x="228" 
d="M76 405v198h-52v77h149v-275h-97z" />
    <glyph glyph-name="two.superior" unicode="&#xb2;" horiz-adv-x="308" 
d="M31 405c-6 0 -8 5 -3 11l102 108c29 31 42 49 42 66c0 13 -10 22 -24 22c-20 0 -31 -18 -35 -35l-82 25c17 54 59 88 127 88c77 0 112 -41 112 -89c0 -37 -22 -64 -61 -103l-19 -20h88v-73h-247z" />
    <glyph glyph-name="three.superior" unicode="&#xb3;" horiz-adv-x="304" 
d="M150 392c-66 0 -100 29 -121 66l66 37c8 -19 24 -34 50 -34c21 0 37 14 37 36c0 25 -21 35 -43 35c-16 0 -29 -3 -42 -8c-5 -2 -9 3 -5 9l61 78h-103v69h220c4 0 5 -4 2 -8l-73 -94c37 -9 72 -34 72 -83c0 -56 -36 -103 -121 -103z" />
    <glyph glyph-name="G.alt" horiz-adv-x="741" 
d="M630 318h-237v61h321s1 -20 1 -39c0 -232 -133 -350 -334 -350c-198 0 -355 145 -355 350s160 348 352 348c131 0 235 -58 288 -153l-65 -39c-42 75 -119 122 -224 122c-155 0 -267 -117 -267 -278s112 -281 272 -281c156 0 246 90 248 259zM527 239h-134v61h219
c-5 -145 -89 -223 -230 -223c-150 0 -254 112 -254 263s104 260 249 260c98 0 169 -44 209 -114l-65 -39c-26 46 -70 83 -146 83c-108 0 -163 -83 -163 -190s58 -194 170 -194c85 0 125 29 145 93z" />
    <glyph glyph-name="K.alt" horiz-adv-x="677" 
d="M241 680v-287l215 287h90l-252 -330l255 -350h-103l-205 285v-285h-82v680h82zM671 0h-101l-254 350l252 330h90l-250 -322zM59 0v680h82v-680h-82z" />
    <glyph glyph-name="M.alt" horiz-adv-x="830" 
d="M59 0v692c0 6 4 7 9 2l349 -337l345 337c4 4 9 3 9 -2v-692h-82v527l-273 -270l-275 270v-527h-82zM159 0v486l257 -252l255 252v-486h-82v311l-171 -171c-4 -4 -5 -4 -9 0l-168 171v-311h-82z" />
    <glyph glyph-name="Q.alt" 
d="M391 61c66 0 125 20 172 54l134 -133l-47 -47l-94 94c-50 -24 -107 -38 -165 -38c-196 0 -365 144 -365 349s169 348 365 348s365 -143 365 -348c0 -85 -31 -160 -82 -219l81 -81l-46 -46l-133 132c59 50 96 125 96 214c0 161 -121 278 -281 278s-281 -117 -281 -278
s121 -279 281 -279zM391 79c-150 0 -263 110 -263 261s113 260 263 260s263 -109 263 -260c0 -84 -35 -154 -91 -201l-131 131l48 47l72 -73c12 28 18 60 18 96c0 107 -65 190 -179 190s-179 -83 -179 -190c0 -116 65 -196 179 -196c16 0 32 2 46 5l-63 63l46 46l130 -130
c-44 -31 -99 -49 -159 -49z" />
    <glyph glyph-name="Q.alt1" 
d="M391 77c-153 0 -263 108 -263 263c0 151 113 260 263 260s263 -109 263 -260s-113 -263 -263 -263zM391 59c160 0 281 120 281 281s-121 278 -281 278s-281 -117 -281 -278c0 -101 47 -186 122 -235c-69 -1 -120 -43 -162 -98l-52 45c23 34 53 62 87 81
c-49 57 -79 129 -79 207c0 205 169 348 365 348s365 -143 365 -348c0 -173 -110 -291 -271 -324c28 -25 59 -43 100 -43c35 0 61 14 81 31l40 -50c-26 -25 -65 -46 -121 -46c-71 0 -120 37 -174 86c-23 20 -45 47 -72 69c17 -3 34 -4 52 -4zM391 144c114 0 179 80 179 196
c0 107 -65 190 -179 190s-179 -83 -179 -190c0 -116 65 -196 179 -196zM138 -51l-55 47c39 51 87 92 147 92c84 0 120 -64 169 -107c59 -52 111 -91 186 -91c59 0 101 23 131 51l39 -49c-32 -34 -85 -66 -170 -66c-105 0 -177 49 -229 97c-45 42 -85 81 -131 81
c-39 0 -65 -24 -87 -55z" />
    <glyph glyph-name="AE.alt" horiz-adv-x="944" 
d="M165 157l186 424l160 -424h-346zM345 613l-265 -613h-76l301 680h412v-67h-372zM489 0l-33 82h-244l-35 -82h-78l59 139h361l27 -71h373v-68h-430zM461 338h311v-68h-206l48 -117h305v-67h-362zM364 595h353v-68h-253l41 -104h267v-67h-317zM341 386l-72 -172h135z" />
    <glyph glyph-name="Adieresis.alt" horiz-adv-x="681" 
d="M144 528c-41 0 -80 35 -80 80s39 80 80 80c42 0 79 -35 79 -80s-37 -80 -79 -80zM537 528c-41 0 -80 35 -80 80s39 80 80 80c42 0 79 -35 79 -80s-37 -80 -79 -80zM130 608c0 -8 7 -14 14 -14s14 6 14 14s-7 14 -14 14s-14 -6 -14 -14zM523 608c0 -8 7 -14 14 -14
s14 6 14 14s-7 14 -14 14s-14 -6 -14 -14zM337 553l-254 -553h-79l326 690c5 10 17 10 22 0l325 -690h-84zM175 157l162 353l163 -353h-325zM486 0l-35 79h-233l-33 -79h-82l63 139h343l64 -139h-87zM333 352l-57 -135h115z" />
    <glyph glyph-name="Aring.alt" horiz-adv-x="681" 
d="M175 157l162 353l163 -353h-325zM486 0l-35 79h-233l-33 -79h-82l63 139h343l64 -139h-87zM333 352l-57 -135h115zM340 636c23 0 42 16 42 43c0 26 -19 43 -42 43s-42 -17 -42 -43c0 -27 19 -43 42 -43zM337 553l-254 -553h-79l276 584c-35 19 -56 55 -56 95
c0 59 47 109 116 109s116 -50 116 -109c0 -39 -21 -75 -55 -95l276 -584h-84z" />
    <glyph glyph-name="Gbreve.alt" horiz-adv-x="741" 
d="M630 318h-237v61h321s1 -20 1 -39c0 -232 -133 -350 -334 -350c-198 0 -355 145 -355 350s160 348 352 348c131 0 235 -58 288 -153l-65 -39c-42 75 -119 122 -224 122c-155 0 -267 -117 -267 -278s112 -281 272 -281c156 0 246 90 248 259zM527 239h-134v61h219
c-5 -145 -89 -223 -230 -223c-150 0 -254 112 -254 263s104 260 249 260c98 0 169 -44 209 -114l-65 -39c-26 46 -70 83 -146 83c-108 0 -163 -83 -163 -190s58 -194 170 -194c85 0 125 29 145 93zM373 715c-100 0 -166 63 -175 145l57 4c7 -54 51 -95 118 -95
s109 41 117 95l57 -4c-9 -82 -74 -145 -174 -145zM373 787c-56 0 -93 34 -100 78l59 3c3 -18 16 -30 41 -30s38 12 41 30l57 -3c-7 -44 -41 -78 -98 -78z" />
    <glyph glyph-name="Gcircumflex.alt" horiz-adv-x="741" 
d="M630 318h-237v61h321s1 -20 1 -39c0 -232 -133 -350 -334 -350c-198 0 -355 145 -355 350s160 348 352 348c131 0 235 -58 288 -153l-65 -39c-42 75 -119 122 -224 122c-155 0 -267 -117 -267 -278s112 -281 272 -281c156 0 246 90 248 259zM527 239h-134v61h219
c-5 -145 -89 -223 -230 -223c-150 0 -254 112 -254 263s104 260 249 260c98 0 169 -44 209 -114l-65 -39c-26 46 -70 83 -146 83c-108 0 -163 -83 -163 -190s58 -194 170 -194c85 0 125 29 145 93zM195 722l172 210c3 4 6 4 9 0l172 -210h-64l-112 134l-114 -134h-63z
M281 722l91 105l90 -105h-61l-29 29l-30 -29h-61z" />
    <glyph glyph-name="Gcommaaccent.alt" horiz-adv-x="741" 
d="M630 318h-237v61h321s1 -20 1 -39c0 -232 -133 -350 -334 -350c-198 0 -355 145 -355 350s160 348 352 348c131 0 235 -58 288 -153l-65 -39c-42 75 -119 122 -224 122c-155 0 -267 -117 -267 -278s112 -281 272 -281c156 0 246 90 248 259zM527 239h-134v61h219
c-5 -145 -89 -223 -230 -223c-150 0 -254 112 -254 263s104 260 249 260c98 0 169 -44 209 -114l-65 -39c-26 46 -70 83 -146 83c-108 0 -163 -83 -163 -190s58 -194 170 -194c85 0 125 29 145 93zM318 -267l24 74c-22 11 -42 35 -42 71c0 46 39 78 80 78s79 -31 79 -77
c0 -28 -11 -48 -35 -83l-43 -63h-63zM367 -124c0 -7 6 -13 13 -13s13 6 13 13s-6 13 -13 13s-13 -6 -13 -13z" />
    <glyph glyph-name="Gdotaccent.alt" horiz-adv-x="741" 
d="M630 318h-237v61h321s1 -20 1 -39c0 -232 -133 -350 -334 -350c-198 0 -355 145 -355 350s160 348 352 348c131 0 235 -58 288 -153l-65 -39c-42 75 -119 122 -224 122c-155 0 -267 -117 -267 -278s112 -281 272 -281c156 0 246 90 248 259zM527 239h-134v61h219
c-5 -145 -89 -223 -230 -223c-150 0 -254 112 -254 263s104 260 249 260c98 0 169 -44 209 -114l-65 -39c-26 46 -70 83 -146 83c-108 0 -163 -83 -163 -190s58 -194 170 -194c85 0 125 29 145 93zM377 717c-41 0 -80 35 -80 80s39 80 80 80c42 0 79 -35 79 -80
s-37 -80 -79 -80zM363 797c0 -8 7 -14 14 -14s14 6 14 14s-7 14 -14 14s-14 -6 -14 -14z" />
    <glyph glyph-name="Kcommaaccent.alt" horiz-adv-x="677" 
d="M241 680v-287l215 287h90l-252 -330l255 -350h-103l-205 285v-285h-82v680h82zM671 0h-101l-254 350l252 330h90l-250 -322zM59 0v680h82v-680h-82zM278 -267l24 74c-22 11 -42 35 -42 71c0 46 39 78 80 78s79 -31 79 -77c0 -28 -11 -48 -35 -83l-43 -63h-63zM327 -124
c0 -7 6 -13 13 -13s13 6 13 13s-6 13 -13 13s-13 -6 -13 -13z" />
    <glyph glyph-name="Odieresis.alt" 
d="M391 -9c-196 0 -365 144 -365 349c0 75 22 141 61 196c-26 13 -46 40 -46 72c0 45 39 80 80 80c33 0 62 -22 74 -53c57 34 125 53 196 53s139 -19 196 -53c12 31 43 53 75 53c42 0 79 -35 79 -80c0 -33 -20 -60 -46 -73c38 -54 61 -120 61 -195
c0 -205 -169 -349 -365 -349zM391 61c160 0 281 118 281 279s-121 278 -281 278s-281 -117 -281 -278s121 -279 281 -279zM391 79c-150 0 -263 110 -263 261s113 260 263 260s263 -109 263 -260s-113 -261 -263 -261zM391 149c114 0 179 84 179 191s-65 190 -179 190
s-179 -83 -179 -190s65 -191 179 -191zM107 608c0 -8 7 -14 14 -14s14 6 14 14s-7 14 -14 14s-14 -6 -14 -14zM648 608c0 -8 7 -14 14 -14s14 6 14 14s-7 14 -14 14s-14 -6 -14 -14z" />
    <glyph glyph-name="Udieresis.alt" horiz-adv-x="694" 
d="M347 531c-41 0 -80 35 -80 80s39 80 80 80c42 0 79 -35 79 -80s-37 -80 -79 -80zM347 347c-41 0 -80 35 -80 80s39 80 80 80c42 0 79 -35 79 -80s-37 -80 -79 -80zM347 -10c-170 0 -295 90 -295 273v417h82v-416c0 -135 85 -203 213 -203c129 0 213 68 213 203v416h82
v-417c0 -183 -125 -273 -295 -273zM347 79c-118 0 -195 62 -195 185v416h82v-415c0 -74 36 -116 113 -116s113 42 113 116v415h82v-416c0 -123 -76 -185 -195 -185zM333 611c0 -8 7 -14 14 -14s14 6 14 14s-7 14 -14 14s-14 -6 -14 -14zM333 427c0 -8 7 -14 14 -14
s14 6 14 14s-7 14 -14 14s-14 -6 -14 -14z" />
    <glyph glyph-name="zero.alt" 
d="M391 61c160 0 281 118 281 279s-121 278 -281 278s-281 -117 -281 -278s121 -279 281 -279zM391 79c-150 0 -263 110 -263 261s113 260 263 260s263 -109 263 -260s-113 -261 -263 -261zM391 -9c-196 0 -365 144 -365 349s169 348 365 348s365 -143 365 -348
s-169 -349 -365 -349zM391 149c114 0 179 84 179 191s-65 190 -179 190s-179 -83 -179 -190s65 -191 179 -191z" />
    <glyph glyph-name="braceleft.alt" horiz-adv-x="414" 
d="M259 0c-71 0 -144 35 -144 134v81c0 36 -15 53 -48 53h-40v144h40c33 0 48 17 48 53v81c0 99 73 134 144 134h121v-63h-92c-50 0 -96 -23 -96 -92v-80c0 -64 -42 -92 -107 -96v-19c65 -4 107 -32 107 -95v-80c0 -69 46 -92 96 -92h92v-63h-121zM210 525c0 55 38 74 78 74
h92v-63h-63c-19 0 -30 -7 -30 -32v-79c0 -57 -30 -78 -68 -85c38 -7 68 -30 68 -85v-79c0 -25 11 -32 30 -32h63v-63h-92c-40 0 -78 19 -78 74v80c0 62 -34 93 -88 105c54 11 88 43 88 105v80z" />
    <glyph glyph-name="braceright.alt" horiz-adv-x="414" 
d="M155 0h-121v63h92c50 0 96 23 96 92v80c0 63 42 91 107 95v19c-65 4 -107 32 -107 96v80c0 69 -46 92 -96 92h-92v63h121c71 0 144 -35 144 -134v-81c0 -36 15 -53 48 -53h40v-144h-40c-33 0 -48 -17 -48 -53v-81c0 -99 -73 -134 -144 -134zM204 525v-80
c0 -62 34 -94 88 -105c-54 -12 -88 -43 -88 -105v-80c0 -55 -38 -74 -78 -74h-92v63h63c19 0 30 7 30 32v79c0 55 30 78 68 85c-38 7 -68 28 -68 85v79c0 25 -11 32 -30 32h-63v63h92c40 0 78 -19 78 -74z" />
    </font>
</defs>
</svg>
