<?xml version="1.0" encoding="utf-8"?>
<!-- Generated by IcoMoon.io -->
<!DOCTYPE svg PUBLIC "-//W3C//DTD SVG 1.1//EN" "http://www.w3.org/Graphics/SVG/1.1/DTD/svg11.dtd">
<svg version="1.1" xmlns="http://www.w3.org/2000/svg" xmlns:xlink="http://www.w3.org/1999/xlink" width="64" height="64" viewBox="0 0 64 64">
<path fill="#444444" d="M12.2 13.6l1.4 1.4-5.6 5.6 4.4 4.4 5.6-5.6 1.2 1.2-5.6 5.6 4.4 4.4 12.8-12.8-15.6-15.6-12.8 12.8 4.2 4.2c-0.2 0 5.6-5.6 5.6-5.6zM46.2 33.4l-12.8 12.8 4.4 4.4 5.6-5.6 1.2 1.2-5.6 5.6 4.4 4.4 5.6-5.6 1.4 1.4-5.6 5.6 4.2 4.2 12.8-12.8c0 0-15.6-15.6-15.6-15.6zM59.6 17c1.6-1.6 1.6-4 0-5.6l-7-7c-1.6-1.6-4-1.6-5.6 0l-4.4 4.4 12.6 12.6c0.2-0.2 4.4-4.4 4.4-4.4zM6.8 51.8l5.2 5.2 10.6-3.8-12-12c0 0.2-3.8 10.6-3.8 10.6zM41.2 9.8l-29.8 29.8 12.8 12.8 29.8-29.8c0 0-12.8-12.8-12.8-12.8zM17.4 39.6l24-24 1.4 1.4-24 24-1.4-1.4zM20.2 42.4l24-24 1.4 1.4-24 24c0 0-1.4-1.4-1.4-1.4zM22.8 45.2l24-24 1.4 1.4-24 24c0 0-1.4-1.4-1.4-1.4zM4 60l6.2-2.2-3.8-3.8c-0.2-0.2-2.4 6-2.4 6z"></path>
</svg>
