<?xml version="1.0" encoding="utf-8"?>
<!-- Generator: Adobe Illustrator 18.1.1, SVG Export Plug-In . SVG Version: 6.00 Build 0)  -->
<svg version="1.1" id="Layer_1" xmlns="http://www.w3.org/2000/svg" xmlns:xlink="http://www.w3.org/1999/xlink" x="0px" y="0px"
	 viewBox="-233 235 32 32" enable-background="new -233 235 32 32" xml:space="preserve">
<path fill="#F0F0F0" d="M-226.9,241.8l0.7,0.7l-2.8,2.8l2.2,2.2l2.8-2.8l0.6,0.6l-2.8,2.8l2.2,2.2l6.4-6.4l-7.8-7.8l-6.4,6.4
	l2.1,2.1C-229.8,244.6-226.9,241.8-226.9,241.8z M-209.9,251.7l-6.4,6.4l2.2,2.2l2.8-2.8l0.6,0.6l-2.8,2.8l2.2,2.2l2.8-2.8l0.7,0.7
	l-2.8,2.8l2.1,2.1l6.4-6.4C-202.1,259.5-209.9,251.7-209.9,251.7z M-203.2,243.5c0.8-0.8,0.8-2,0-2.8l-3.5-3.5c-0.8-0.8-2-0.8-2.8,0
	l-2.2,2.2l6.3,6.3C-205.3,245.6-203.2,243.5-203.2,243.5z M-229.6,260.9l2.6,2.6l5.3-1.9l-6-6C-227.7,255.7-229.6,260.9-229.6,260.9
	z M-212.4,239.9l-14.9,14.9l6.4,6.4l14.9-14.9C-206,246.3-212.4,239.9-212.4,239.9z M-224.3,254.8l12-12l0.7,0.7l-12,12
	L-224.3,254.8z M-222.9,256.2l12-12l0.7,0.7l-12,12C-222.2,256.9-222.9,256.2-222.9,256.2z M-221.6,257.6l12-12l0.7,0.7l-12,12
	C-220.9,258.3-221.6,257.6-221.6,257.6z M-231,265l3.1-1.1l-1.9-1.9C-229.9,261.9-231,265-231,265z"/>
</svg>
