<?xml version="1.0" encoding="utf-8"?>
<!-- Generated by IcoMoon.io -->
<!DOCTYPE svg PUBLIC "-//W3C//DTD SVG 1.1//EN" "http://www.w3.org/Graphics/SVG/1.1/DTD/svg11.dtd">
<svg version="1.1" xmlns="http://www.w3.org/2000/svg" xmlns:xlink="http://www.w3.org/1999/xlink" width="59" height="64" viewBox="0 0 59 64">
<path fill="#444444" d="M26.25 28.429q0 1.286 1.143 2.518t2.768 2.429 3.232 2.625 2.75 3.714 1.143 5.071q0 3.214-1.714 6.179-2.571 4.357-7.536 6.411t-10.643 2.054q-4.714 0-8.804-1.482t-6.125-4.911q-1.321-2.143-1.321-4.679 0-2.893 1.589-5.357t4.232-4.107q4.679-2.929 14.429-3.571-1.143-1.5-1.696-2.643t-0.554-2.607q0-1.286 0.75-3.036-1.643 0.143-2.429 0.143-5.286 0-8.911-3.446t-3.625-8.732q0-2.929 1.286-5.679t3.536-4.679q2.75-2.357 6.518-3.5t7.768-1.143h14.929l-4.929 3.143h-4.679q2.643 2.25 4 4.75t1.357 5.714q0 2.571-0.875 4.625t-2.107 3.321-2.482 2.321-2.125 2.196-0.875 2.357zM21.036 25q1.357 0 2.786-0.589t2.357-1.554q1.893-2.036 1.893-5.679 0-2.071-0.607-4.464t-1.732-4.625-3.018-3.696-4.179-1.464q-1.5 0-2.946 0.696t-2.339 1.875q-1.679 2.107-1.679 5.714 0 1.643 0.357 3.482t1.125 3.679 1.857 3.304 2.679 2.393 3.446 0.929zM21.107 56.179q2.071 0 3.982-0.464t3.536-1.393 2.607-2.607 0.982-3.893q0-0.893-0.25-1.75t-0.518-1.5-0.964-1.482-1.054-1.25-1.375-1.232-1.304-1.036-1.482-1.071-1.304-0.929q-0.571-0.071-1.714-0.071-1.893 0-3.75 0.25t-3.839 0.893-3.464 1.643-2.446 2.661-0.964 3.768q0 2.5 1.25 4.411t3.268 2.964 4.25 1.571 4.554 0.518zM50.036 24.893h7.607v3.857h-7.607v7.821h-3.75v-7.821h-7.571v-3.857h7.571v-7.75h3.75v7.75z"></path>
</svg>
