<?xml version="1.0" encoding="utf-8"?>
<!-- Generator: Adobe Illustrator 18.1.1, SVG Export Plug-In . SVG Version: 6.00 Build 0)  -->
<svg version="1.1" id="Layer_1" xmlns="http://www.w3.org/2000/svg" xmlns:xlink="http://www.w3.org/1999/xlink" x="0px" y="0px"
	 viewBox="-233 235 32 32" enable-background="new -233 235 32 32" xml:space="preserve">
<path fill="#F0F0F0" d="M-210,235h-14c-1.6,0-3,1.4-3,3v26c0,1.6,1.4,3,3,3h14c1.6,0,3-1.4,3-3v-26C-207,236.4-208.4,235-210,235z
	 M-221,236.5h8v1h-8V236.5z M-217,265c-1.1,0-2-0.9-2-2s0.9-2,2-2s2,0.9,2,2S-215.9,265-217,265z M-209,259h-16v-20h16V259z"/>
</svg>
