<?xml version="1.0" encoding="utf-8"?>
<!-- Generator: Adobe Illustrator 18.1.1, SVG Export Plug-In . SVG Version: 6.00 Build 0)  -->
<svg version="1.1" id="Layer_1" xmlns="http://www.w3.org/2000/svg" xmlns:xlink="http://www.w3.org/1999/xlink" x="0px" y="0px"
	 viewBox="-233 235 32 32" enable-background="new -233 235 32 32" xml:space="preserve">
<path fill="#F0F0F0" d="M-209.6,264.5c0,0,0.3-2-1.7-4.5c2-5.6,2.3-10.8,2.3-10.8s4.1,0.9,4.1,5
	C-204.9,261.3-209.6,264.5-209.6,264.5z M-221,262.1c0,0-2.8-8.9-2.8-12.6c0-1.7,0.2-3.1,0.5-4.5h12.6c0.3,1.3,0.5,2.8,0.5,4.5
	c0,3.6-2.8,12.6-2.8,12.6H-221z M-217,247.1c-1.4,0-2.6,1.1-2.6,2.6c0,1.4,1.2,2.6,2.6,2.6s2.6-1.1,2.6-2.6
	C-214.4,248.2-215.6,247.1-217,247.1z M-217.6,235.6v-3.5h1v3.4c1.1,0.8,4.2,3.5,5.6,8.6h-12.2
	C-221.7,239.1-218.8,236.5-217.6,235.6z M-224.4,264.5c0,0-4.7-3.2-4.7-10.2c0-4.1,4.1-5,4.1-5s0.3,5.1,2.3,10.8
	C-224.7,262.5-224.4,264.5-224.4,264.5z M-215.3,265l-0.8-0.8l-0.9,2.8l-1.1-2.8l-0.7,1.5l-1.1-2.6h5.8
	C-214.1,263-215.3,265-215.3,265z"/>
</svg>
