<?xml version="1.0" encoding="utf-8"?>
<!-- Generated by IcoMoon.io -->
<!DOCTYPE svg PUBLIC "-//W3C//DTD SVG 1.1//EN" "http://www.w3.org/Graphics/SVG/1.1/DTD/svg11.dtd">
<svg version="1.1" xmlns="http://www.w3.org/2000/svg" xmlns:xlink="http://www.w3.org/1999/xlink" width="64" height="64" viewBox="0 0 64 64">
<path fill="#444444" d="M46.8 59c0 0 0.6-4-3.4-9 4-11.2 4.6-21.6 4.6-21.6s8.2 1.8 8.2 10c0 14.2-9.4 20.6-9.4 20.6zM24 54.2c0 0-5.6-17.8-5.6-25.2 0-3.4 0.4-6.2 1-9h25.2c0.6 2.6 1 5.6 1 9 0 7.2-5.6 25.2-5.6 25.2h-16zM32 24.2c-2.8 0-5.2 2.2-5.2 5.2 0 2.8 2.4 5.2 5.2 5.2s5.2-2.2 5.2-5.2c0-3-2.4-5.2-5.2-5.2zM30.8 1.2v-7h2v6.8c2.2 1.6 8.4 7 11.2 17.2h-24.4c3-10 8.8-15.2 11.2-17zM17.2 59c0 0-9.4-6.4-9.4-20.4 0-8.2 8.2-10 8.2-10s0.6 10.2 4.6 21.6c-4 4.8-3.4 8.8-3.4 8.8zM35.4 60l-1.6-1.6-1.8 5.6-2.2-5.6-1.4 3-2.2-5.2h11.6c0-0.2-2.4 3.8-2.4 3.8z"></path>
</svg>
